<svg xmlns="http://www.w3.org/2000/svg" width="1844.028" height="766.76" viewBox="0 0 1844.028 766.76">
  <g id="map-localizacao-privilegiada" transform="translate(-4.139 -744.774)">
    <g id="Group_785" data-name="Group 785">
      <path id="Path_2611" data-name="Path 2611" d="M755.868,1384.483l-5.3-4.4-4.408-5.276-2.648-6.606L740,1356.3l-3.52-6.607-2.648-2.646-2.2-1.315h-4.852l-15.872,1.315,1.76,32.162-25.56,3.074-33.06,2.2-14.54.444h-7.056l-12.78-1.759-10.148-1.759-.872-.444H608.2l-14.984-4.4-14.556-6.163-3.964-3.533L571.6,1372.6l5.3,3.961,11.908,3.074,3.52.887,7.056,3.961,5.281,1.331,10.591,1.759,14.984,2.646,9.688,1.754,7.056.881,8.816,3.083,10.148,3.964,19.836-1.762,13.653-.881,16.76-1.762,24.688-2.2,24.244-1.321v-.441l-.444-.44Z" fill="#426aa8"/>
      <path id="Path_2612" data-name="Path 2612" d="M799.182,1338.011l-14.984.887-9.7.872-7.484.443-15.428,1.315-10.148.887-1.76.887-.888.428v2.2l1.775,2.646,1.76,3.533,2.2,4.833,3.076,7.937,1.776,4.848,2.2,4.4,2.2,2.63,3.964,3.976,4.408,3.961,3.076,1.315,1.775.887,2.633-.443,3.092-.444h2.648l5.28.444,6.612-.444,8.816-.444,4.852-.428h5.3l3.52-.443,5.3-7.494-8.372-39.64Z" fill="#426aa8"/>
      <path id="Path_2613" data-name="Path 2613" d="M842.492,1254.572v-3.533l-1.332-11.883-.429-10.568-12.8,1.759-26,2.646-9.26.872-4.408.444-3.52.444-23.356,2.646-18.964,2.2-5.724.872-1.76.887L731.848,1244l-2.648,3.961-1.316,2.646v4.4L729.2,1269.1l32.616-3.074,2.648,36.551h3.218l3.092,35.679,40.545-3.961-.024-.247,8.27-.64,10.148-1.315,5.28-2.2,3.536-2.2,5.724-4.4,2.648-3.533v-8.365l-3.092-42.729Z" fill="#426aa8"/>
      <path id="Path_2614" data-name="Path 2614" d="M730.153,1279.862,692.8,1282.7l.424,6.189,5.3,56.891,10.178-1.208-.045-.467,24.087-2.331-2.607-26.455,3.254-.262Z" fill="#426aa8"/>
      <path id="Path_2615" data-name="Path 2615" d="M1119.754,1061.678l-7.928-4.848-25.576-4.848-70.528.444-42.749,7.922-29.1,12.77-34.82,14.987L872.9,1099.544l-.444,1.331-10.132,11.883-21.168,7.937-16.3,11.883,7.484,9.7,1.332,2.2.872,2.2,1.332,2.646,1.316,4.4,1.332,3.961.429,3.961.444,3.533,1.76,21.135,89.048-6.607,3.964,46.232.888,7.479,1.76,21.594,4.852,54.613.444,8.809,5.724-3.533,33.948-21.579,19.836-9.252,13.653-8.366L1036,1258.977l8.816-10.568,15.872-19.82,12.78-28.17,9.7-32.162,5.281-13.214,28.652-58.573,6.168-22.466-.428-6.163Z" fill="#426aa8"/>
      <path id="Path_2616" data-name="Path 2616" d="M1080.635,893.25l28.652-1.315V880.48l.444-10.567V855.368l-.888-1.315-1.316-1.315-.888-.444h-25.116l-.888.444-.444.428.444,19.392V893.25Z" fill="#426aa8"/>
      <path id="Path_2617" data-name="Path 2617" d="M1125.235,955.157v-89.42l-2.648,1.835-2.648,1.33-2.648,2.646-1.837,1.835-2.633,3.518-.444,2.2.444,48.006V932.4l.429,26.87.444,3.961,3.092,5.8,2.648,3.518.872,2.2.444,1.835.444,12.342,5.28,3.426-1.316-36.995Z" fill="#426aa8"/>
      <path id="Path_2618" data-name="Path 2618" d="M1146.89,820.078l-5.3-39.2-1.837-17.159-2.2-17.618-14.035-.882v0l-7.056-.444-19.836,1.774-17.632,2.63-18.948,7.494-13.668,10.552-20.28,14.987-10.576,7.478-13.668,6.163-7.928,5.291h-5.3l-4.408-1.774-6.168-.428-8.372-.887L954.253,796.3l-19.392.872-19.392,3.976-13.224,5.276-14.112,10.14-14.54,12.326-15,19.82-22.04,16.3-14.54,3.961-29.54,8.365-18.5,3.089-11.02,2.63-9.26.444H719.312l-9.7-1.315-5.724-2.2-7.944.872-3.076,2.2-1.776,4.4-2.2,5.735-3.52,7.479-1.76,13.213,2.2,7.937,5.724,11.883,3.536,6.179,5.28,7.478,12.352,12.77,7.041,7.05,11.02,10.568,6.184,5.291,7.928,7.05,7.056,5.276,14.984,7.937,12.336,6.163,6.184,3.518,6.168,3.976,14.1,10.568,3.98,6.163,3.076,8.365,3.536,10.568,1.76,9.253,1.316,4.4.888.887,4.852,3.961,6.168,4.4h1.316l18.964,6.607,7.928.887L875.8,1081.7l7.041-2.2,17.632-4.848,14.112-3.517,6.168-1.759,8.372-3.089,5.74-3.074,6.168-3.976,12.78-9.681,11.908-5.291V994.5l.872-104.836H1002.3l.444-23.781V845.19h91.681l22.04-.444H1120l1.76,1.315,1.316,1.331.811,2.012v9.06l.444,9.7.444.443h.872l2.648-3.089,3.092-3.074,2.648-2.2,2.2-1.835,1.316-.887.888-.443h7.041l.888-17.174.949-8.809Z" fill="#426aa8"/>
    </g>
    <g id="Group_786" data-name="Group 786">
      <path id="Path_2619" data-name="Path 2619" d="M4.359,1509.759,67,1502.8l98.748-11.3,75.7-9.128,8.7-1.3,83.076-10,156.6-18.256,177.057-20.864L808.7,1414.568l24.787-2.608,125.293-14.344,382.374-45.644,30.889-3.909,30.889-3.471,16.525-2.173,16.524-2.173,14.365-2.611,7.386-2.173,6.1-2.173,16.086-6.958,15.225-7.38,72.653-37.822,39.574-20,14.349-7.818,15.709-4.347,4.682-1.313,22.2-2.173,16.615,1.751,19.183,5.645,10.875,5.645,20.844,14.353,26.131,20,16.917,13.463,27.792,19.137,21.3,9.991,23.563,7.818" fill="none" stroke="#15c7b2" stroke-linejoin="round" stroke-width="1.163"/>
    </g>
    <g id="Group_787" data-name="Group 787">
      <path id="Path_2620" data-name="Path 2620" d="M4.359,1509.553,67,1502.6l98.748-11.3,75.7-9.128,8.7-1.3,83.076-10,156.6-18.256,177.057-20.864L808.7,1414.361l24.787-2.608,125.293-14.344,382.374-45.644,30.889-3.909,30.889-3.471,16.525-2.173,16.524-2.173,14.365-2.611,7.386-2.173,6.1-2.173,16.086-6.958,15.225-7.38,72.653-37.822,39.574-20,14.349-7.818,15.709-4.347,4.682-1.313,22.2-2.173,16.615,1.751,19.183,5.645,10.875,5.645,20.844,14.353,26.131,20,16.917,13.463,27.792,19.137,21.3,9.991,23.563,7.818" fill="none" stroke="#15c7b2" stroke-linejoin="round" stroke-width="3.987" stroke-dasharray="0.498 4.984"/>
    </g>
    <path id="Path_2621" data-name="Path 2621" d="M1269.912,1348.431l-18.457,1.651-25.022,2.049-301.048,27.449-43.066,3.686-23.384,2.462-152.981,13.935-28.312,2.049-11.892,1.229-40.189,3.279-182.93,16.8-13.529,1.229-16.007,1.229-19.269,1.639-19.283,1.639-33.624,3.279-28.711,2.459-13.544,1.229-39.776,3.279-39.79,3.279-13.942,1.229-28.711,2.869-35.689,2.869-57.829,5.328-39.785,3.688" fill="none" stroke="#41c5a9" stroke-width="11"/>
    <path id="Path_2622" data-name="Path 2622" d="M45.177,1447.817l-16.68,11.8,18.576,8.555Z" fill="#41c5a9"/>
    <path id="Path_2623" data-name="Path 2623" d="M1272.387,1348.039l-18.457,1.651-25.022,2.049-301.048,27.45-43.066,3.685-23.384,2.462-152.981,13.935-28.312,2.049-11.892,1.229-40.189,3.279-182.93,16.8-13.529,1.229-16.007,1.229-19.269,1.639-19.283,1.639-33.624,3.279-28.711,2.459-13.544,1.229-39.776,3.279-39.79,3.279-13.942,1.229-28.711,2.869-35.689,2.869L85.4,1454.187l-39.785,3.688" fill="none" stroke="#fff" stroke-linejoin="round" stroke-width="1.993"/>
    <path id="Path_2624" data-name="Path 2624" d="M1269.936,1357.986l16.778-11.66-18.5-8.71Z" fill="#41c5a9"/>
    <text id="SÃO_PAULO" data-name="SÃO PAULO" transform="translate(217.608 1408.033) rotate(-3.739)" fill="#41c5a9" font-size="21.575" font-family="UrbanistRoman-Bold, Urbanist" font-weight="700"><tspan x="0" y="0">SÃO PAULO</tspan></text>
    <text id="RIO_DE_JANEIRO" data-name="RIO DE JANEIRO" transform="translate(1233.323 1324.902) rotate(-5.901)" fill="#41c5a9" font-size="21.575" font-family="UrbanistRoman-Bold, Urbanist" font-weight="700"><tspan x="0" y="0">RIO DE JANEIRO</tspan></text>
    <g id="Group_790" data-name="Group 790">
      <path id="Path_2625" data-name="Path 2625" d="M815.247,1382.512h-50.5V1367h50.5v36.443a13.294,13.294,0,0,1-.515,3.457,11.856,11.856,0,0,1-3.156,5.123,9.07,9.07,0,0,1-2.432,1.766,9.622,9.622,0,0,1-1.426.589,10.7,10.7,0,0,1-2.1.532,16.623,16.623,0,0,0-2.314.253c-.795.112-2.338.336-3.484.56a28.526,28.526,0,0,0-4.91,1.374,13.689,13.689,0,0,0-2.946,1.57,9.449,9.449,0,0,0-1.4,1.149,3.381,3.381,0,0,0-.561.561l-.234-.281a8.106,8.106,0,0,0-2.572-2.074,17.365,17.365,0,0,0-3.46-1.4,29.61,29.61,0,0,0-3.694-.9c-1.076-.168-2.128-.364-3.227-.476a18.714,18.714,0,0,1-4.863-.869,11.61,11.61,0,0,1-5.166-4.348,11.2,11.2,0,0,1-2.035-6.587v-23.151" fill="#41c5a9"/>
      <path id="Path_2626" data-name="Path 2626" d="M815.247,1382.512h-50.5V1367h50.5v36.443a13.294,13.294,0,0,1-.515,3.457,11.856,11.856,0,0,1-3.156,5.123,9.07,9.07,0,0,1-2.432,1.766,9.622,9.622,0,0,1-1.426.589,10.7,10.7,0,0,1-2.1.532,16.623,16.623,0,0,0-2.314.253c-.795.112-2.338.336-3.484.56a28.526,28.526,0,0,0-4.91,1.374,13.689,13.689,0,0,0-2.946,1.57,9.449,9.449,0,0,0-1.4,1.149,3.381,3.381,0,0,0-.561.561l-.234-.281a8.106,8.106,0,0,0-2.572-2.074,17.365,17.365,0,0,0-3.46-1.4,29.61,29.61,0,0,0-3.694-.9c-1.076-.168-2.128-.364-3.227-.476a18.714,18.714,0,0,1-4.863-.869,11.61,11.61,0,0,1-5.166-4.348,11.2,11.2,0,0,1-2.035-6.587v-23.151" fill="none" stroke="#fff" stroke-width="1.163"/>
      <g id="Group_788" data-name="Group 788">
        <path id="Path_2627" data-name="Path 2627" d="M771.551,1406.5l-.036-11.858,4.319-.014a3.681,3.681,0,0,1,1.7.381,2.979,2.979,0,0,1,1.207,1.1,3.306,3.306,0,0,1,.325,2.561,2.449,2.449,0,0,1-.387.793,1.579,1.579,0,0,1-.676.524,1.823,1.823,0,0,1,.9.488,2.548,2.548,0,0,1,.545.833,4.134,4.134,0,0,1,.27.973,6.279,6.279,0,0,1,.074.917,3.075,3.075,0,0,1-.46,1.68,3.393,3.393,0,0,1-1.246,1.173,3.52,3.52,0,0,1-1.731.437Zm2.044-7.274,2.016-.006a1.575,1.575,0,0,0,1.071-.394,1.305,1.305,0,0,0,.441-1.034,1.245,1.245,0,0,0-.448-1.036,1.674,1.674,0,0,0-1.073-.348l-2.016.006Zm.017,5.5,2.525-.008a1.727,1.727,0,0,0,.913-.248,1.842,1.842,0,0,0,.651-.68,1.96,1.96,0,0,0,.242-.983,1.774,1.774,0,0,0-.248-.9,2,2,0,0,0-.655-.683,1.65,1.65,0,0,0-.915-.26l-2.525.008Z" fill="#f1f1f1"/>
        <path id="Path_2628" data-name="Path 2628" d="M781.892,1406.468l-.036-11.858,4.548-.015a3.252,3.252,0,0,1,1.747.478,3.538,3.538,0,0,1,1.24,1.288,3.575,3.575,0,0,1,.463,1.791,3.669,3.669,0,0,1-.287,1.478,3.507,3.507,0,0,1-.81,1.167,3.552,3.552,0,0,1-1.2.749l2.852,4.9-2.38.006-2.759-4.709-1.329,0,.014,4.718Zm2.046-6.791,2.245-.007a1.525,1.525,0,0,0,.8-.223,1.673,1.673,0,0,0,.582-.594,1.69,1.69,0,0,0,0-1.669,1.668,1.668,0,0,0-.586-.591,1.517,1.517,0,0,0-.805-.218l-2.245.007Z" fill="#f1f1f1"/>
        <path id="Path_2629" data-name="Path 2629" d="M793.319,1406.433l-.031-9.791-1.49,0,.552-2.069,3-.009.036,11.858Z" fill="#f1f1f1"/>
        <path id="Path_2630" data-name="Path 2630" d="M798.909,1406.415l-.031-9.791-1.49.005.552-2.069,3-.01.037,11.858Z" fill="#f1f1f1"/>
        <path id="Path_2631" data-name="Path 2631" d="M806.921,1406.611a3.979,3.979,0,0,1-2.085-.562,4.316,4.316,0,0,1-1.521-1.511,4.024,4.024,0,0,1-.574-2.1,4.165,4.165,0,0,1,.137-1.1,4.386,4.386,0,0,1,.433-1.025l3.3-5.779,2.4-.007-2.216,3.861a3.96,3.96,0,0,1,1.322.114,3.872,3.872,0,0,1,1.179.53,4.152,4.152,0,0,1,.951.878,4,4,0,0,1,.635,1.15,4.177,4.177,0,0,1-.093,2.972,4.281,4.281,0,0,1-.9,1.338,4.171,4.171,0,0,1-1.336.91A4.1,4.1,0,0,1,806.921,1406.611Zm-.006-2.067a2.032,2.032,0,0,0,1.1-.3,2.178,2.178,0,0,0,.756-.785,2.044,2.044,0,0,0,.272-1.025,2.084,2.084,0,0,0-.283-1.067,2.118,2.118,0,0,0-.761-.769,2.049,2.049,0,0,0-1.08-.283,2.017,2.017,0,0,0-1.1.3,2.173,2.173,0,0,0-.747.787,2.091,2.091,0,0,0-.268,1.043,1.983,1.983,0,0,0,.3,1.074,2.227,2.227,0,0,0,.777.752A2.01,2.01,0,0,0,806.915,1404.544Z" fill="#f1f1f1"/>
      </g>
      <g id="Group_789" data-name="Group 789">
        <path id="Path_2632" data-name="Path 2632" d="M783.421,1380.025l-.029-9.458,3.628-.012a2.584,2.584,0,0,1,1.393.381,2.855,2.855,0,0,1,1.358,2.454,2.9,2.9,0,0,1-.229,1.18,2.788,2.788,0,0,1-.645.931,2.845,2.845,0,0,1-.954.6l2.275,3.9-1.9.006-2.2-3.756-1.061,0,.012,3.763Zm1.632-5.417,1.79-.005a1.228,1.228,0,0,0,.642-.178,1.34,1.34,0,0,0,.465-.475,1.35,1.35,0,0,0-.005-1.331,1.339,1.339,0,0,0-.467-.47,1.2,1.2,0,0,0-.643-.174l-1.79.005Z" fill="#f1f1f1"/>
        <path id="Path_2633" data-name="Path 2633" d="M792.529,1380.172a3.039,3.039,0,0,1-1.018-.173,2.857,2.857,0,0,1-.9-.517l1.05-1.273a1.677,1.677,0,0,0,.365.218,1.211,1.211,0,0,0,.5.1,1.251,1.251,0,0,0,.675-.2,1.5,1.5,0,0,0,.488-.509,1.321,1.321,0,0,0,.183-.686l-.02-6.6,1.648-.005.021,6.6a2.933,2.933,0,0,1-.4,1.519,3.148,3.148,0,0,1-1.085,1.1A2.85,2.85,0,0,1,792.529,1380.172Z" fill="#f1f1f1"/>
      </g>
    </g>
    <g id="Group_791" data-name="Group 791">
      <rect id="Rectangle_48" data-name="Rectangle 48" width="259.122" height="35.293" transform="matrix(0.993, -0.115, 0.115, 0.993, 907.078, 1336.808)" fill="#22386f"/>
      <text id="RODOVIA_PRES._DUTRA" data-name="RODOVIA PRES. DUTRA" transform="translate(923.329 1359.442) rotate(-6.342)" fill="#41c5a9" font-size="21.575" font-family="UrbanistRoman-Bold, Urbanist" font-weight="700"><tspan x="0" y="0">RODOVIA PRES. DUTRA</tspan></text>
    </g>
    <text id="ECOPARQUE" transform="translate(941.053 1150.908) rotate(-1.094)" fill="#f1f1f1" font-size="21.575" font-family="UrbanistRoman-Bold, Urbanist" font-weight="700"><tspan x="0" y="0">ECOPARQUE</tspan></text>
    <text id="ECOPARQUE-2" data-name="ECOPARQUE" transform="translate(796.325 970.297) rotate(-1.094)" fill="#f1f1f1" font-size="21.575" font-family="UrbanistRoman-Bold, Urbanist" font-weight="700"><tspan x="0" y="0">ECOPARQUE</tspan></text>
    <text id="ECO_PARQUE" data-name="ECO
PARQUE" transform="translate(778.286 1278.43) rotate(-1.094)" fill="#f1f1f1" font-size="15.398" font-family="UrbanistRoman-Bold, Urbanist" font-weight="700"><tspan x="0" y="0">ECO</tspan><tspan x="0" y="18.478">PARQUE</tspan></text>
  </g>
</svg>
