<svg xmlns="http://www.w3.org/2000/svg" width="931.113" height="655.126" viewBox="0 0 931.113 655.126">
  <g id="map-sinergia-empresas" transform="translate(-411.755 -744.774)">
    <g id="Group_1183" data-name="Group 1183">
      <path id="Path_5926" data-name="Path 5926" d="M755.868,1384.483l-5.3-4.4-4.408-5.276-2.648-6.606L740,1356.3l-3.52-6.607-2.648-2.646-2.2-1.315h-4.852l-15.872,1.315,1.76,32.162-25.56,3.074-33.06,2.2-14.54.444h-7.056l-12.78-1.759-10.148-1.759-.872-.444H608.2l-14.984-4.4-14.556-6.163-3.964-3.533L571.6,1372.6l5.3,3.961,11.908,3.074,3.52.887,7.056,3.961,5.281,1.331,10.591,1.759,14.984,2.646,9.688,1.754,7.056.881,8.816,3.083,10.148,3.964,19.836-1.762,13.653-.881,16.76-1.762,24.688-2.2,24.244-1.321v-.441l-.444-.44Z" fill="#426aa8"/>
      <path id="Path_5927" data-name="Path 5927" d="M799.182,1338.011l-14.984.887-9.7.872-7.484.443-15.428,1.315-10.148.887-1.76.887-.888.428v2.2l1.775,2.646,1.76,3.533,2.2,4.833,3.076,7.937,1.776,4.848,2.2,4.4,2.2,2.63,3.964,3.976,4.408,3.961,3.076,1.315,1.775.887,2.633-.443,3.092-.444h2.648l5.28.444,6.612-.444,8.816-.444,4.852-.428h5.3l3.52-.443,5.3-7.494-8.372-39.64Z" fill="#426aa8"/>
      <path id="Path_5928" data-name="Path 5928" d="M842.492,1254.572v-3.533l-1.332-11.883-.429-10.568-12.8,1.759-26,2.646-9.26.872-4.408.444-3.52.444-23.356,2.646-18.964,2.2-5.724.872-1.76.887L731.848,1244l-2.648,3.961-1.316,2.646v4.4L729.2,1269.1l32.616-3.074,2.648,36.551h3.218l3.092,35.679,40.545-3.961-.024-.247,8.27-.64,10.148-1.315,5.28-2.2,3.536-2.2,5.724-4.4,2.648-3.533v-8.365l-3.092-42.729Z" fill="#426aa8"/>
      <path id="Path_5929" data-name="Path 5929" d="M730.153,1279.862,692.8,1282.7l.424,6.189,5.3,56.891,10.178-1.208-.045-.467,24.087-2.331-2.607-26.455,3.254-.262Z" fill="#426aa8"/>
      <path id="Path_5930" data-name="Path 5930" d="M1119.754,1061.678l-7.928-4.848-25.576-4.848-70.528.444-42.749,7.922-29.1,12.77-34.82,14.987L872.9,1099.544l-.444,1.331-10.132,11.883-21.168,7.937-16.3,11.883,7.484,9.7,1.332,2.2.872,2.2,1.332,2.646,1.316,4.4,1.332,3.961.429,3.961.444,3.533,1.76,21.135,89.048-6.607,3.964,46.232.888,7.479,1.76,21.594,4.852,54.613.444,8.809,5.724-3.533,33.948-21.579,19.836-9.252,13.653-8.366L1036,1258.977l8.816-10.568,15.872-19.82,12.78-28.17,9.7-32.162,5.281-13.214,28.652-58.573,6.168-22.466-.428-6.163Z" fill="#426aa8"/>
      <path id="Path_5931" data-name="Path 5931" d="M1080.635,893.25l28.652-1.315V880.48l.444-10.567V855.368l-.888-1.315-1.316-1.315-.888-.444h-25.116l-.888.444-.444.428.444,19.392V893.25Z" fill="#426aa8"/>
      <path id="Path_5932" data-name="Path 5932" d="M1125.235,955.157v-89.42l-2.648,1.835-2.648,1.33-2.648,2.646-1.837,1.835-2.633,3.518-.444,2.2.444,48.006V932.4l.429,26.87.444,3.961,3.092,5.8,2.648,3.518.872,2.2.444,1.835.444,12.342,5.28,3.426-1.316-36.995Z" fill="#426aa8"/>
      <path id="Path_5933" data-name="Path 5933" d="M1146.89,820.078l-5.3-39.2-1.837-17.159-2.2-17.618-14.035-.882v0l-7.056-.444-19.836,1.774-17.632,2.63-18.948,7.494-13.668,10.552-20.28,14.987-10.576,7.478-13.668,6.163-7.928,5.291h-5.3l-4.408-1.774-6.168-.428-8.372-.887L954.253,796.3l-19.392.872-19.392,3.976-13.224,5.276-14.112,10.14-14.54,12.326-15,19.82-22.04,16.3-14.54,3.961-29.54,8.365-18.5,3.089-11.02,2.63-9.26.444H719.312l-9.7-1.315-5.724-2.2-7.944.872-3.076,2.2-1.776,4.4-2.2,5.735-3.52,7.479-1.76,13.213,2.2,7.937,5.724,11.883,3.536,6.179,5.28,7.478,12.352,12.77,7.041,7.05,11.02,10.568,6.184,5.291,7.928,7.05,7.056,5.276,14.984,7.937,12.336,6.163,6.184,3.518,6.168,3.976,14.1,10.568,3.98,6.163,3.076,8.365,3.536,10.568,1.76,9.253,1.316,4.4.888.887,4.852,3.961,6.168,4.4h1.316l18.964,6.607,7.928.887L875.8,1081.7l7.041-2.2,17.632-4.848,14.112-3.517,6.168-1.759,8.372-3.089,5.74-3.074,6.168-3.976,12.78-9.681,11.908-5.291V994.5l.872-104.836H1002.3l.444-23.781V845.19h91.681l22.04-.444H1120l1.76,1.315,1.316,1.331.811,2.012v9.06l.444,9.7.444.443h.872l2.648-3.089,3.092-3.074,2.648-2.2,2.2-1.835,1.316-.887.888-.443h7.041l.888-17.174.949-8.809Z" fill="#426aa8"/>
    </g>
    <path id="Path_5934" data-name="Path 5934" d="M1177.226,1067.388l-602.362,280.4L464.484,1009l215.588,328.643L443.719,1062.549s418.571,259.012,417.2,266.786-81.688-184.82-81.688-184.82,83.058,108.195,83.058,111.473-194.532-87.43-194.532-87.43L1307.4,921.247l-129.274,146.185L1059.008,910.64l153.179,115.776L1181.41,834.139,492.9,969.655l681.954-162.838,26.229-22.951L1308.02,919.409l-124.111-87.833,18.139-48.69" fill="none" stroke="#15c7b2" stroke-linecap="round" stroke-linejoin="round" stroke-width="2"/>
    <g id="Group_1184" data-name="Group 1184">
      <path id="Path_5935" data-name="Path 5935" d="M644.849,1171.687H640.7v-2.2h4.146Zm8.548-15.1h-3.669a.6.6,0,0,0-.605.55l-.495,7.368h-3.045v-2.327a.625.625,0,0,0-.624-.587.552.552,0,0,0-.33.11l-3.21,2.2v-1.778a.627.627,0,0,0-.624-.6.546.546,0,0,0-.33.11l-4.2,2.932a.608.608,0,0,0-.238.477v7.148a.614.614,0,0,0,.6.623h17.72a.531.531,0,0,0,.44-.2.513.513,0,0,0,.184-.44l-.972-15.1A.646.646,0,0,0,653.4,1156.584Z" fill="#15c7b2"/>
      <path id="Path_5936" data-name="Path 5936" d="M683.408,1359.028h-4.146v-2.2h4.146Zm8.621-15.085h-3.687a.584.584,0,0,0-.587.55l-.495,7.368h-3.045v-2.327a.655.655,0,0,0-.642-.605.642.642,0,0,0-.312.11l-3.229,2.2v-1.8a.623.623,0,0,0-.623-.587.555.555,0,0,0-.331.11L674.9,1351.9a.616.616,0,0,0-.238.495v7.166a.579.579,0,0,0,.587.587h17.738a.607.607,0,0,0,.44-.183.535.535,0,0,0,.165-.44l-.972-15.122A.606.606,0,0,0,692.029,1343.943Z" fill="#15c7b2"/>
      <path id="Path_5937" data-name="Path 5937" d="M852.335,1344.42h-4.164v-2.2h4.164Zm8.585-15.085h-3.65a.635.635,0,0,0-.624.568l-.477,7.368h-3.063v-2.346a.572.572,0,0,0-.569-.568H852.5a.5.5,0,0,0-.33,0l-3.229,2.2v-1.815a.559.559,0,0,0-.568-.568h-.037a.5.5,0,0,0-.33,0l-4.182,2.951a.558.558,0,0,0-.239.476v7.185a.591.591,0,0,0,.587.587h17.72a.594.594,0,0,0,.459-.2.5.5,0,0,0,.165-.44l-.972-15.084A.651.651,0,0,0,860.92,1329.335Z" fill="#15c7b2"/>
      <path id="Path_5938" data-name="Path 5938" d="M1036.048,919.15H1031.9v-2.2h4.146Zm8.621-15.084h-3.595a.583.583,0,0,0-.587.55l-.5,7.368h-3.064v-2.328a.622.622,0,0,0-.624-.586.449.449,0,0,0-.311,0l-3.247,2.2v-1.815a.6.6,0,0,0-.606-.586.5.5,0,0,0-.33,0l-4.182,2.951a.558.558,0,0,0-.238.476v7.167a.594.594,0,0,0,.586.605h17.739a.584.584,0,0,0,.44-.2.656.656,0,0,0,.165-.44l-.972-15.121A.609.609,0,0,0,1044.669,904.066Z" fill="#15c7b2"/>
      <path id="Path_5939" data-name="Path 5939" d="M1332.7,916.016h-4.164v-2.2h4.164Zm8.6-15.085h-3.687a.584.584,0,0,0-.587.55l-.477,7.369h-3.063V906.5a.641.641,0,0,0-.642-.586.894.894,0,0,0-.312.11l-3.229,2.2v-1.8a.626.626,0,0,0-.623-.6,1.181,1.181,0,0,0-.331.11l-4.182,2.951a.609.609,0,0,0-.239.477v7.185a.6.6,0,0,0,.587.586h17.757a.59.59,0,0,0,.441-.2.545.545,0,0,0,.146-.44l-.972-15.1A.606.606,0,0,0,1341.306,900.931Z" fill="#15c7b2"/>
      <path id="Path_5940" data-name="Path 5940" d="M1214.624,1051.376h-4.054v-2.2h4.164Zm8.6-15.1h-3.669a.607.607,0,0,0-.6.586l-.477,7.369h-3.063v-2.365a.591.591,0,0,0-.6-.568h-.037a.452.452,0,0,0-.312,0l-3.228,2.2v-1.8a.625.625,0,0,0-.7-.568.689.689,0,0,0-.256.073l-4.183,2.951a.606.606,0,0,0-.238.477v7.185a.607.607,0,0,0,.605.586H1224.2a.586.586,0,0,0,.44-.2.543.543,0,0,0,.147-.44l-.973-15.085A.665.665,0,0,0,1223.227,1036.273Z" fill="#15c7b2"/>
      <path id="Path_5941" data-name="Path 5941" d="M1222.805,789.308h-4.164v-2.2h4.164Zm8.6-15.1h-3.669a.584.584,0,0,0-.587.55l-.495,7.368h-3.064v-2.328a.622.622,0,0,0-.624-.586.449.449,0,0,0-.311,0l-3.247,2.2v-1.814a.6.6,0,0,0-.606-.587.5.5,0,0,0-.33,0l-4.182,2.951a.559.559,0,0,0-.239.477V789.6a.6.6,0,0,0,.587.6h17.739a.584.584,0,0,0,.44-.2.624.624,0,0,0,.165-.439l-.972-15.1A.613.613,0,0,0,1231.409,774.205Z" fill="#15c7b2"/>
      <path id="Path_5942" data-name="Path 5942" d="M466.75,974.229h-4.164v-2.2h4.164Zm8.6-15.1h-3.669a.6.6,0,0,0-.6.568l-.477,7.368h-3.064v-2.327a.629.629,0,0,0-.642-.6.641.641,0,0,0-.312.11l-3.228,2.2v-1.778a.61.61,0,0,0-.624-.586.586.586,0,0,0-.33.11L458.22,967.1a.643.643,0,0,0-.239.495v7.167a.64.64,0,0,0,.606.623h17.738a.815.815,0,0,0,.44-.2.6.6,0,0,0,.147-.458l-.972-15.1A.627.627,0,0,0,475.353,959.126Z" fill="#15c7b2"/>
      <path id="Path_5943" data-name="Path 5943" d="M759.974,1135.653H755.81v-2.2h4.164Zm8.6-15.085h-3.669a.6.6,0,0,0-.606.568l-.476,7.368h-3.064v-2.346a.594.594,0,0,0-.6-.586h-.037a.517.517,0,0,0-.293.11l-3.247,2.2v-1.8a.571.571,0,0,0-.569-.568h-.037a.509.509,0,0,0-.33.11l-4.182,2.914a.584.584,0,0,0-.257.495v7.166a.6.6,0,0,0,.6.587H769.55a.64.64,0,0,0,.44-.183.525.525,0,0,0,.147-.44l-.954-15.1A.666.666,0,0,0,768.578,1120.568Z" fill="#15c7b2"/>
      <path id="Path_5944" data-name="Path 5944" d="M440.885,1015.414h-4.164v-2.2h4.164Zm8.6-15.121h-3.669a.6.6,0,0,0-.605.568l-.477,7.368h-3.063V1005.9a.629.629,0,0,0-.642-.587.5.5,0,0,0-.312.11l-3.229,2.2v-1.777a.613.613,0,0,0-.623-.6.786.786,0,0,0-.331.11l-4.182,2.932a.608.608,0,0,0-.238.477v7.166a.64.64,0,0,0,.6.624H450.46a.686.686,0,0,0,.441-.22.539.539,0,0,0,.146-.44l-.972-15.085A.624.624,0,0,0,449.488,1000.293Z" fill="#15c7b2"/>
      <path id="Path_5945" data-name="Path 5945" d="M420.542,1065.287h-4.164v-2.2h4.164Zm8.585-15.1h-3.651a.621.621,0,0,0-.624.569l-.476,7.368h-3.064v-2.328a.6.6,0,0,0-.587-.6h-.037a1.19,1.19,0,0,0-.33.11l-3.21,2.2v-1.778a.58.58,0,0,0-.587-.587h-.018a.511.511,0,0,0-.33.11l-4.22,2.915a.645.645,0,0,0-.238.494v7.167a.67.67,0,0,0,.624.623H430.1a.775.775,0,0,0,.44-.22.456.456,0,0,0,.165-.44l-.954-15.1A.665.665,0,0,0,429.127,1050.184Z" fill="#15c7b2"/>
      <path id="Path_5946" data-name="Path 5946" d="M1183.275,824.1h-4.164v-2.2h4.164Zm8.6-15.1h-3.669a.591.591,0,0,0-.6.568l-.477,7.369h-2.972V814.6a.6.6,0,0,0-.587-.6h-.055a.451.451,0,0,0-.312,0l-3.228,2.2v-1.777a.58.58,0,0,0-.587-.587h-.037a.5.5,0,0,0-.33,0l-4.182,2.914a.618.618,0,0,0-.239.5v7.167a.61.61,0,0,0,.6.6h17.757a.684.684,0,0,0,.44-.22.487.487,0,0,0,.147-.44l-.954-15.085A.655.655,0,0,0,1191.878,808.993Z" fill="#15c7b2"/>
      <path id="Path_5947" data-name="Path 5947" d="M1190.062,1086.677H1185.9v-2.2h4.164Zm8.6-15.121h-3.687a.6.6,0,0,0-.587.568l-.477,7.368h-3.155v-2.327a.58.58,0,0,0-.587-.587h-.055a.5.5,0,0,0-.312.11l-3.228,2.2v-1.778a.6.6,0,0,0-.587-.6h-.037a.594.594,0,0,0-.33.11l-4.183,2.932a.611.611,0,0,0-.238.477v7.167a.61.61,0,0,0,.6.6h17.757a.587.587,0,0,0,.44-.2.487.487,0,0,0,.147-.44l-.954-15.085A.692.692,0,0,0,1198.665,1071.556Z" fill="#15c7b2"/>
      <path id="Path_5948" data-name="Path 5948" d="M584.076,1386.65H572.391v-3.959h11.685Zm-.238-9.4v-3.464l-5.687,3.464v-3.464l-5.686,3.464v-3.464l-5.669,3.464v9.458h22.71v-12.922Z" fill="#15c7b2"/>
      <path id="Path_5949" data-name="Path 5949" d="M862.956,1271.25a.328.328,0,0,1-.33.33h-.715a.329.329,0,0,1-.331-.33v-.733a.322.322,0,0,1,.294-.33h.752a.336.336,0,0,1,.33.294v.769Zm-2.2,0a.328.328,0,0,1-.33.33h-.734a.328.328,0,0,1-.33-.33v-.733a.328.328,0,0,1,.33-.33h.734a.329.329,0,0,1,.33.33Zm-4.4.7a.311.311,0,0,1-.293.33h-.752a.306.306,0,0,1-.33-.275v-1.485a.321.321,0,0,1,.293-.33h.752a.336.336,0,0,1,.33.294v1.466Zm-2.2,0a.329.329,0,0,1-.33.33h-.734a.329.329,0,0,1-.33-.33v-1.43a.329.329,0,0,1,.33-.33h.734a.329.329,0,0,1,.33.33Zm9.759-6.818H852.078v-1.1a.328.328,0,0,0-.33-.33h-1.321a.328.328,0,0,0-.33.33v1.356l-2.33,3.519a.259.259,0,0,0,0,.165v5.774a.341.341,0,0,0,.331.33h1.357v-2.493a.329.329,0,0,1,.33-.33h.954a.328.328,0,0,1,.33.33v2.493h12.9a.341.341,0,0,0,.33-.33v-9.385a.328.328,0,0,0-.33-.329Z" fill="#15c7b2"/>
    </g>
  </g>
</svg>
