<svg xmlns="http://www.w3.org/2000/svg" width="575.715" height="655.126" viewBox="0 0 575.715 655.126">
  <g id="map-economia-circular" transform="translate(-571.603 -744.774)">
    <g id="Group_1100" data-name="Group 1100">
      <path id="Path_5260" data-name="Path 5260" d="M755.868,1384.483l-5.3-4.4-4.408-5.276-2.648-6.606L740,1356.3l-3.52-6.607-2.648-2.646-2.2-1.315h-4.852l-15.872,1.315,1.76,32.162-25.56,3.074-33.06,2.2-14.54.444h-7.056l-12.78-1.759-10.148-1.759-.872-.444H608.2l-14.984-4.4-14.556-6.163-3.964-3.533L571.6,1372.6l5.3,3.961,11.908,3.074,3.52.887,7.056,3.961,5.281,1.331,10.591,1.759,14.984,2.646,9.688,1.754,7.056.881,8.816,3.083,10.148,3.964,19.836-1.762,13.653-.881,16.76-1.762,24.688-2.2,24.244-1.321v-.441l-.444-.44Z" fill="#426aa8"/>
      <path id="Path_5261" data-name="Path 5261" d="M799.182,1338.011l-14.984.887-9.7.872-7.484.443-15.428,1.315-10.148.887-1.76.887-.888.428v2.2l1.775,2.646,1.76,3.533,2.2,4.833,3.076,7.937,1.776,4.848,2.2,4.4,2.2,2.63,3.964,3.976,4.408,3.961,3.076,1.315,1.775.887,2.633-.443,3.092-.444h2.648l5.28.444,6.612-.444,8.816-.444,4.852-.428h5.3l3.52-.443,5.3-7.494-8.372-39.64Z" fill="#426aa8"/>
      <path id="Path_5262" data-name="Path 5262" d="M842.492,1254.572v-3.533l-1.332-11.883-.429-10.568-12.8,1.759-26,2.646-9.26.872-4.408.444-3.52.444-23.356,2.646-18.964,2.2-5.724.872-1.76.887L731.848,1244l-2.648,3.961-1.316,2.646v4.4L729.2,1269.1l32.616-3.074,2.648,36.551h3.218l3.092,35.679,40.545-3.961-.024-.247,8.27-.64,10.148-1.315,5.28-2.2,3.536-2.2,5.724-4.4,2.648-3.533v-8.365l-3.092-42.729Z" fill="#426aa8"/>
      <path id="Path_5263" data-name="Path 5263" d="M730.153,1279.862,692.8,1282.7l.424,6.189,5.3,56.891,10.178-1.208-.045-.467,24.087-2.331-2.607-26.455,3.254-.262Z" fill="#426aa8"/>
      <path id="Path_5264" data-name="Path 5264" d="M1119.754,1061.678l-7.928-4.848-25.576-4.848-70.528.444-42.749,7.922-29.1,12.77-34.82,14.987L872.9,1099.544l-.444,1.331-10.132,11.883-21.168,7.937-16.3,11.883,7.484,9.7,1.332,2.2.872,2.2,1.332,2.646,1.316,4.4,1.332,3.961.429,3.961.444,3.533,1.76,21.135,89.048-6.607,3.964,46.232.888,7.479,1.76,21.594,4.852,54.613.444,8.809,5.724-3.533,33.948-21.579,19.836-9.252,13.653-8.366L1036,1258.977l8.816-10.568,15.872-19.82,12.78-28.17,9.7-32.162,5.281-13.214,28.652-58.573,6.168-22.466-.428-6.163Z" fill="#426aa8"/>
      <path id="Path_5265" data-name="Path 5265" d="M1080.635,893.25l28.652-1.315V880.48l.444-10.567V855.368l-.888-1.315-1.316-1.315-.888-.444h-25.116l-.888.444-.444.428.444,19.392V893.25Z" fill="#426aa8"/>
      <path id="Path_5266" data-name="Path 5266" d="M1125.235,955.157v-89.42l-2.648,1.835-2.648,1.33-2.648,2.646-1.837,1.835-2.633,3.518-.444,2.2.444,48.006V932.4l.429,26.87.444,3.961,3.092,5.8,2.648,3.518.872,2.2.444,1.835.444,12.342,5.28,3.426-1.316-36.995Z" fill="#426aa8"/>
      <path id="Path_5267" data-name="Path 5267" d="M1146.89,820.078l-5.3-39.2-1.837-17.159-2.2-17.618-14.035-.882v0l-7.056-.444-19.836,1.774-17.632,2.63-18.948,7.494-13.668,10.552-20.28,14.987-10.576,7.478-13.668,6.163-7.928,5.291h-5.3l-4.408-1.774-6.168-.428-8.372-.887L954.253,796.3l-19.392.872-19.392,3.976-13.224,5.276-14.112,10.14-14.54,12.326-15,19.82-22.04,16.3-14.54,3.961-29.54,8.365-18.5,3.089-11.02,2.63-9.26.444H719.312l-9.7-1.315-5.724-2.2-7.944.872-3.076,2.2-1.776,4.4-2.2,5.735-3.52,7.479-1.76,13.213,2.2,7.937,5.724,11.883,3.536,6.179,5.28,7.478,12.352,12.77,7.041,7.05,11.02,10.568,6.184,5.291,7.928,7.05,7.056,5.276,14.984,7.937,12.336,6.163,6.184,3.518,6.168,3.976,14.1,10.568,3.98,6.163,3.076,8.365,3.536,10.568,1.76,9.253,1.316,4.4.888.887,4.852,3.961,6.168,4.4h1.316l18.964,6.607,7.928.887L875.8,1081.7l7.041-2.2,17.632-4.848,14.112-3.517,6.168-1.759,8.372-3.089,5.74-3.074,6.168-3.976,12.78-9.681,11.908-5.291V994.5l.872-104.836H1002.3l.444-23.781V845.19h91.681l22.04-.444H1120l1.76,1.315,1.316,1.331.811,2.012v9.06l.444,9.7.444.443h.872l2.648-3.089,3.092-3.074,2.648-2.2,2.2-1.835,1.316-.887.888-.443h7.041l.888-17.174.949-8.809Z" fill="#426aa8"/>
    </g>
    <g id="Group_1459" data-name="Group 1459" transform="translate(-17.344 2.695)">
      <g id="Group_1457" data-name="Group 1457">
        <path id="Path_14489" data-name="Path 14489" d="M964.673,1192.426l-7.219-34.841c-18.239,27.459-43.876,41.571-79.312,41.571a101.674,101.674,0,0,1-81.737-41.1l9.653-5.573-45.713-12.249-7.958,29.7-.052.03.03.051-4.27,15.935,10.463-6.041c12.266,18.1,27.27,31.863,46.955,43.223,66.792,38.557,148.139,26.066,190.235-37.3Z" fill="none" stroke="#fff" stroke-width="1"/>
        <path id="Path_14490" data-name="Path 14490" d="M1023.437,1097.3c0-78.674-55.079-143.48-133.156-145.942l20.089,23.228-21.031,21.031c54.013,2.5,90.632,47.079,90.632,101.711a101.469,101.469,0,0,1-8.368,40.48l-9.592-5.538,11.448,48.119,45.713-12.25-9.734-8.488C1019,1139.954,1023.437,1120.054,1023.437,1097.3Z" fill="none" stroke="#fff" stroke-width="1"/>
        <path id="Path_14491" data-name="Path 14491" d="M899.823,973.915l-21.668-21.667v-.214l-.212,0-11.585-11.585v12.005c-21.779,1.584-41.183,7.7-60.845,19.049-68.087,39.316-95.779,119.029-58.984,187.849l9.368-28.531,31.617,9.368c-7.233-13.988-11.2-26.029-11.2-42.863a101.842,101.842,0,0,1,90.045-101.149v11.2Z" fill="none" stroke="#fff" stroke-width="1"/>
      </g>
      <g id="Group_1458" data-name="Group 1458">
        <path id="Path_14492" data-name="Path 14492" d="M877.145,1114.432l2.282,6.871H866.919a8.01,8.01,0,0,1-3.235-.656,6.992,6.992,0,0,1-3.132-2.573l-.528-1.038a6.152,6.152,0,0,1-.291-.99,10.652,10.652,0,0,1,1.171-6.621c.207-.449,1.02-1.857,2.033-3.581h16.49l-2.294,7.41a1.9,1.9,0,0,0,.012,1.178Z" fill="#15c7b2"/>
        <path id="Path_14493" data-name="Path 14493" d="M879.427,1122.088H866.919a8.734,8.734,0,0,1-3.552-.723,7.674,7.674,0,0,1-3.479-2.87c-.013-.021-.025-.043-.036-.065l-.528-1.038a.593.593,0,0,1-.03-.069,6.628,6.628,0,0,1-.33-1.117,11.373,11.373,0,0,1,1.225-7.106c.194-.423.813-1.514,2.071-3.654a.785.785,0,0,1,.677-.387h16.49a.785.785,0,0,1,.75,1.018l-2.293,7.41a1.129,1.129,0,0,0,.006.7h0l2.282,6.87a.786.786,0,0,1-.746,1.033Zm-18.193-4.405a6.159,6.159,0,0,0,2.768,2.246,7.184,7.184,0,0,0,2.917.588h11.419l-1.938-5.837a2.706,2.706,0,0,1-.015-1.665l1.976-6.385H863.387c-.553.943-1.561,2.67-1.769,3.123a9.853,9.853,0,0,0-1.116,6.132,5.159,5.159,0,0,0,.24.83Z" fill="#22386f"/>
        <path id="Path_14494" data-name="Path 14494" d="M871.78,1099.065l-3.532-2.033s-3.126,5.122-5.311,8.812c-1.013,1.724-1.826,3.132-2.033,3.581a10.652,10.652,0,0,0-1.171,6.621,6.119,6.119,0,0,0,.291.99l-8.12-16.029a5.264,5.264,0,0,1,.182-5.037l3.58-6.027-2.955-1.833a.609.609,0,0,1,.322-1.128l12.647-.019,6.925,11.252a.611.611,0,0,1-.825.85Z" fill="#fff"/>
        <path id="Path_14495" data-name="Path 14495" d="M860.025,1117.822a.785.785,0,0,1-.7-.431l-8.121-16.029a6.025,6.025,0,0,1,.207-5.793l3.187-5.364-2.3-1.427a1.4,1.4,0,0,1,.728-2.582l12.655-.019h0a.787.787,0,0,1,.669.374l6.924,11.253a1.4,1.4,0,0,1-1.884,1.943h0l-2.868-1.651c-.913,1.5-3.208,5.279-4.907,8.15-.752,1.279-1.778,3.037-1.995,3.508a9.863,9.863,0,0,0-1.117,6.132,5.249,5.249,0,0,0,.255.864.786.786,0,0,1-.731,1.073Zm-6.378-30.056,2.434,1.51a.785.785,0,0,1,.26,1.069l-3.58,6.026a4.458,4.458,0,0,0-.154,4.285l6.287,12.409a14.759,14.759,0,0,1,1.3-3.964c.194-.423.813-1.515,2.071-3.655,2.164-3.654,5.286-8.772,5.318-8.823a.785.785,0,0,1,1.062-.272l2.935,1.69-6.333-10.292Zm18.29,10.863Zm-18.814-11.188h0Z" fill="#22386f"/>
        <path id="Path_14496" data-name="Path 14496" d="M912.619,1103.028h-.006a.686.686,0,0,1-.078.127,2.009,2.009,0,0,1-.134.207,6.277,6.277,0,0,1-.959,1.08,10.644,10.644,0,0,1-6.318,2.3c-.485.048-2.112.048-4.109.03h-.006l-8.248-14.281,7.853-1.584a1.926,1.926,0,0,0,1.124-.68l4.412-5.468,6.257,10.833a8.1,8.1,0,0,1,1.044,3.132,6.909,6.909,0,0,1-.832,4.309Z" fill="#15c7b2"/>
        <path id="Path_14497" data-name="Path 14497" d="M903.106,1107.563c-.576,0-1.271,0-2.1-.011a.8.8,0,0,1-.679-.393l-8.248-14.28a.786.786,0,0,1,.524-1.163l7.854-1.584a1.134,1.134,0,0,0,.668-.4l4.412-5.467a.786.786,0,0,1,1.291.1l6.258,10.833a8.871,8.871,0,0,1,1.144,3.439,7.684,7.684,0,0,1-.938,4.8c-.011.018-.022.035-.034.052q-.031.052-.06.093a2.977,2.977,0,0,1-.167.252,6.942,6.942,0,0,1-1.063,1.2,11.335,11.335,0,0,1-6.772,2.494C904.9,1107.549,904.228,1107.563,903.106,1107.563Zm-1.641-1.578c2.02.015,3.222.006,3.581-.03a9.958,9.958,0,0,0,5.873-2.1,5.4,5.4,0,0,0,.835-.942,1.12,1.12,0,0,0,.09-.134.847.847,0,0,1,.05-.081c.013-.015,0,.006-.005.023a.8.8,0,0,1,.1-.171,6.078,6.078,0,0,0,.682-3.749,7.294,7.294,0,0,0-.944-2.826l-5.684-9.838-3.693,4.577a2.708,2.708,0,0,1-1.584.957l-6.777,1.367Zm11.155-2.957h0Z" fill="#22386f"/>
        <path id="Path_14498" data-name="Path 14498" d="M911.442,1104.442a6.318,6.318,0,0,0,.959-1.08l-10.069,15.379a5.252,5.252,0,0,1-4.454,2.361l-7.01-.085-.1,3.472a.608.608,0,0,1-1.135.285l-6.349-10.943,6.282-11.622a.61.61,0,0,1,1.147.291l.012,4.072s6,.146,10.287.195h.006c2,.018,3.624.018,4.109-.031a10.628,10.628,0,0,0,6.318-2.294Z" fill="#fff"/>
        <path id="Path_14499" data-name="Path 14499" d="M890.148,1125.867a1.374,1.374,0,0,1-1.2-.7l-6.346-10.937a.784.784,0,0,1-.011-.767l6.282-11.622a1.395,1.395,0,0,1,2.623.664l.01,3.305c1.755.041,6.175.139,9.513.176.858.008,3.452.031,4.028-.026a9.95,9.95,0,0,0,5.87-2.1,5.5,5.5,0,0,0,.839-.944.785.785,0,0,1,1.3.877l-10.069,15.379a6.006,6.006,0,0,1-5.122,2.717l-6.237-.076-.08,2.7a1.384,1.384,0,0,1-1.06,1.313A1.432,1.432,0,0,1,890.148,1125.867Zm.161-1.489v0Zm-6.128-10.561L890,1123.843l.085-2.849a.773.773,0,0,1,.794-.762l7.01.084a4.4,4.4,0,0,0,3.789-2.007l7.632-11.658a14.556,14.556,0,0,1-4.11.867c-.454.046-1.748.056-4.19.035-4.254-.049-10.245-.194-10.3-.195a.786.786,0,0,1-.767-.783l-.01-3.386Zm5.743-11.314Z" fill="#22386f"/>
        <path id="Path_14500" data-name="Path 14500" d="M912.619,1103.028l-.084.127a.686.686,0,0,0,.078-.127Z" fill="#fff"/>
        <path id="Path_14501" data-name="Path 14501" d="M912.534,1103.941a.785.785,0,0,1-.653-1.221l.031-.047a.788.788,0,1,1,1.361.791l-.017.025c-.029.049-.058.09-.081.122A.785.785,0,0,1,912.534,1103.941Zm-.637-1.239-.008.021.009-.02Z" fill="#22386f"/>
        <path id="Path_14502" data-name="Path 14502" d="M882.923,1073.393l-8.248,14.28-5.037-6.027a1.957,1.957,0,0,0-1.208-.673l-7.138-1.032,6.27-10.864a7.827,7.827,0,0,1,1.869-2.215,7.187,7.187,0,0,1,4.121-1.657.413.413,0,0,1,.086,0l.946.049a7.1,7.1,0,0,1,1.11.261,10.659,10.659,0,0,1,5.147,4.327c.285.4,1.1,1.8,2.076,3.544Z" fill="#15c7b2"/>
        <path id="Path_14503" data-name="Path 14503" d="M874.675,1088.459a.79.79,0,0,1-.6-.282l-5.037-6.027a1.172,1.172,0,0,0-.725-.4l-7.13-1.03a.786.786,0,0,1-.568-1.171l6.27-10.864a8.548,8.548,0,0,1,2.059-2.435,8.013,8.013,0,0,1,4.581-1.829,1.069,1.069,0,0,1,.188,0l.914.047a.722.722,0,0,1,.079.009,7.807,7.807,0,0,1,1.232.289,11.386,11.386,0,0,1,5.545,4.618c.1.137.409.566,2.112,3.6a.79.79,0,0,1,.011.8l-8.247,14.281a.786.786,0,0,1-.613.389C874.72,1088.457,874.7,1088.459,874.675,1088.459Zm-12.123-9.129,5.99.865a2.752,2.752,0,0,1,1.7.948l4.316,5.164,7.46-12.917c-1.28-2.274-1.685-2.911-1.812-3.087a9.878,9.878,0,0,0-4.756-4.042,6.39,6.39,0,0,0-.946-.225l-.906-.046a.326.326,0,0,0-.045,0,6.448,6.448,0,0,0-3.633,1.487,6.99,6.99,0,0,0-1.676,1.991Z" fill="#22386f"/>
        <path id="Path_14504" data-name="Path 14504" d="M904.214,1074.242l-6.306,10.961-13.207.376a.612.612,0,0,1-.327-1.14l3.526-2.04s-2.871-5.268-4.977-9.006l-.006-.007c-.977-1.741-1.79-3.149-2.076-3.544a10.661,10.661,0,0,0-5.146-4.327,6.989,6.989,0,0,0-1.111-.261l18.044,1a5.26,5.26,0,0,1,4.272,2.676l3.43,6.112,3.064-1.645a.612.612,0,0,1,.82.844Z" fill="#fff"/>
        <path id="Path_14505" data-name="Path 14505" d="M884.682,1086.366a1.4,1.4,0,0,1-.707-2.6l2.868-1.658c-.839-1.535-2.949-5.385-4.584-8.288l-.026-.044c-1.452-2.586-1.894-3.282-2.028-3.468a9.884,9.884,0,0,0-4.755-4.042,6.368,6.368,0,0,0-.984-.231.786.786,0,0,1,.162-1.561l18.043,1a6.023,6.023,0,0,1,4.914,3.077l3.053,5.439,2.385-1.281a1.4,1.4,0,0,1,1.874,1.924l0,0-6.306,10.961a.782.782,0,0,1-.658.393l-13.208.377Zm-1.1-13.4a.328.328,0,0,1,.026.042c2.085,3.7,4.954,8.964,4.983,9.016a.787.787,0,0,1-.3,1.057l-2.932,1.7,12.085-.345,5.783-10.051-2.527,1.357a.786.786,0,0,1-1.057-.308l-3.43-6.112a4.459,4.459,0,0,0-3.635-2.277l-13.9-.771a14.841,14.841,0,0,1,2.8,3.117C881.579,1069.521,881.887,1069.947,883.581,1072.965Zm20.633,1.277h0Z" fill="#22386f"/>
      </g>
    </g>
  </g>
</svg>
