<svg xmlns="http://www.w3.org/2000/svg" width="575.715" height="655.126" viewBox="0 0 575.715 655.126">
  <g id="map-topografia-plana" transform="translate(-571.603 -744.774)">
    <path id="Path_2611" data-name="Path 2611" d="M755.868,1384.483l-5.3-4.4-4.408-5.276-2.648-6.606L740,1356.3l-3.52-6.607-2.648-2.646-2.2-1.315h-4.852l-15.872,1.315,1.76,32.162-25.56,3.074-33.06,2.2-14.54.444h-7.056l-12.78-1.759-10.148-1.759-.872-.444H608.2l-14.984-4.4-14.556-6.163-3.964-3.533L571.6,1372.6l5.3,3.961,11.908,3.074,3.52.887,7.056,3.961,5.281,1.331,10.591,1.759,14.984,2.646,9.688,1.754,7.056.881,8.816,3.083,10.148,3.964,19.836-1.762,13.653-.881,16.76-1.762,24.688-2.2,24.244-1.321v-.441l-.444-.44Z" fill="#426aa8"/>
    <path id="Path_2612" data-name="Path 2612" d="M799.182,1338.011l-14.984.887-9.7.872-7.484.443-15.428,1.315-10.148.887-1.76.887-.888.428v2.2l1.775,2.646,1.76,3.533,2.2,4.833,3.076,7.937,1.776,4.848,2.2,4.4,2.2,2.63,3.964,3.976,4.408,3.961,3.076,1.315,1.775.887,2.633-.443,3.092-.444h2.648l5.28.444,6.612-.444,8.816-.444,4.852-.428h5.3l3.52-.443,5.3-7.494-8.372-39.64Z" fill="#426aa8"/>
    <path id="Path_2613" data-name="Path 2613" d="M842.492,1254.572v-3.533l-1.332-11.883-.429-10.568-12.8,1.759-26,2.646-9.26.872-4.408.444-3.52.444-23.356,2.646-18.964,2.2-5.724.872-1.76.887L731.848,1244l-2.648,3.961-1.316,2.646v4.4L729.2,1269.1l32.616-3.074,2.648,36.551h3.218l3.092,35.679,40.545-3.961-.024-.247,8.27-.64,10.148-1.315,5.28-2.2,3.536-2.2,5.724-4.4,2.648-3.533v-8.365l-3.092-42.729Z" fill="#426aa8"/>
    <path id="Path_2614" data-name="Path 2614" d="M730.153,1279.862,692.8,1282.7l.424,6.189,5.3,56.891,10.178-1.208-.045-.467,24.087-2.331-2.607-26.455,3.254-.262Z" fill="#426aa8"/>
    <path id="Path_2615" data-name="Path 2615" d="M1119.754,1061.678l-7.928-4.848-25.576-4.848-70.528.444-42.749,7.922-29.1,12.77-34.82,14.987L872.9,1099.544l-.444,1.331-10.132,11.883-21.168,7.937-16.3,11.883,7.484,9.7,1.332,2.2.872,2.2,1.332,2.646,1.316,4.4,1.332,3.961.429,3.961.444,3.533,1.76,21.135,89.048-6.607,3.964,46.232.888,7.479,1.76,21.594,4.852,54.613.444,8.809,5.724-3.533,33.948-21.579,19.836-9.252,13.653-8.366L1036,1258.977l8.816-10.568,15.872-19.82,12.78-28.17,9.7-32.162,5.281-13.214,28.652-58.573,6.168-22.466-.428-6.163Z" fill="#426aa8"/>
    <path id="Path_2616" data-name="Path 2616" d="M1080.635,893.25l28.652-1.315V880.48l.444-10.567V855.368l-.888-1.315-1.316-1.315-.888-.444h-25.116l-.888.444-.444.428.444,19.392V893.25Z" fill="#426aa8"/>
    <path id="Path_2617" data-name="Path 2617" d="M1125.235,955.157v-89.42l-2.648,1.835-2.648,1.33-2.648,2.646-1.837,1.835-2.633,3.518-.444,2.2.444,48.006V932.4l.429,26.87.444,3.961,3.092,5.8,2.648,3.518.872,2.2.444,1.835.444,12.342,5.28,3.426-1.316-36.995Z" fill="#426aa8"/>
    <path id="Path_2618" data-name="Path 2618" d="M1146.89,820.078l-5.3-39.2-1.837-17.159-2.2-17.618-14.035-.882v0l-7.056-.444-19.836,1.774-17.632,2.63-18.948,7.494-13.668,10.552-20.28,14.987-10.576,7.478-13.668,6.163-7.928,5.291h-5.3l-4.408-1.774-6.168-.428-8.372-.887L954.253,796.3l-19.392.872-19.392,3.976-13.224,5.276-14.112,10.14-14.54,12.326-15,19.82-22.04,16.3-14.54,3.961-29.54,8.365-18.5,3.089-11.02,2.63-9.26.444H719.312l-9.7-1.315-5.724-2.2-7.944.872-3.076,2.2-1.776,4.4-2.2,5.735-3.52,7.479-1.76,13.213,2.2,7.937,5.724,11.883,3.536,6.179,5.28,7.478,12.352,12.77,7.041,7.05,11.02,10.568,6.184,5.291,7.928,7.05,7.056,5.276,14.984,7.937,12.336,6.163,6.184,3.518,6.168,3.976,14.1,10.568,3.98,6.163,3.076,8.365,3.536,10.568,1.76,9.253,1.316,4.4.888.887,4.852,3.961,6.168,4.4h1.316l18.964,6.607,7.928.887L875.8,1081.7l7.041-2.2,17.632-4.848,14.112-3.517,6.168-1.759,8.372-3.089,5.74-3.074,6.168-3.976,12.78-9.681,11.908-5.291V994.5l.872-104.836H1002.3l.444-23.781V845.19h91.681l22.04-.444H1120l1.76,1.315,1.316,1.331.811,2.012v9.06l.444,9.7.444.443h.872l2.648-3.089,3.092-3.074,2.648-2.2,2.2-1.835,1.316-.887.888-.443h7.041l.888-17.174.949-8.809Z" fill="#426aa8"/>
  </g>
</svg>
