<svg xmlns="http://www.w3.org/2000/svg" width="931.113" height="612.508" viewBox="0 0 931.113 612.508">
  <g id="map-infraestrutura-diferenciada" transform="translate(-411.755 -774.197)">
    <path id="Path_3284" data-name="Path 3284" d="M644.849,1171.687H640.7v-2.2h4.146Zm8.548-15.1h-3.669a.6.6,0,0,0-.605.55l-.495,7.368h-3.045v-2.327a.625.625,0,0,0-.624-.587.552.552,0,0,0-.33.11l-3.21,2.2v-1.778a.627.627,0,0,0-.624-.6.546.546,0,0,0-.33.11l-4.2,2.932a.608.608,0,0,0-.238.477v7.148a.614.614,0,0,0,.6.623h17.72a.531.531,0,0,0,.44-.2.513.513,0,0,0,.184-.44l-.972-15.1A.646.646,0,0,0,653.4,1156.584Z" fill="#15c7b2"/>
    <path id="Path_3285" data-name="Path 3285" d="M683.408,1359.028h-4.146v-2.2h4.146Zm8.621-15.085h-3.687a.584.584,0,0,0-.587.55l-.495,7.368h-3.045v-2.327a.655.655,0,0,0-.642-.605.642.642,0,0,0-.312.11l-3.229,2.2v-1.8a.623.623,0,0,0-.623-.587.555.555,0,0,0-.331.11L674.9,1351.9a.616.616,0,0,0-.238.495v7.166a.579.579,0,0,0,.587.587h17.738a.607.607,0,0,0,.44-.183.535.535,0,0,0,.165-.44l-.972-15.122A.606.606,0,0,0,692.029,1343.943Z" fill="#15c7b2"/>
    <path id="Path_3286" data-name="Path 3286" d="M852.335,1344.42h-4.164v-2.2h4.164Zm8.585-15.085h-3.65a.635.635,0,0,0-.624.568l-.477,7.368h-3.063v-2.346a.572.572,0,0,0-.569-.568H852.5a.5.5,0,0,0-.33,0l-3.229,2.2v-1.815a.559.559,0,0,0-.568-.568h-.037a.5.5,0,0,0-.33,0l-4.182,2.951a.558.558,0,0,0-.239.476v7.185a.591.591,0,0,0,.587.587h17.72a.594.594,0,0,0,.459-.2.5.5,0,0,0,.165-.44l-.972-15.084A.651.651,0,0,0,860.92,1329.335Z" fill="#15c7b2"/>
    <path id="Path_3287" data-name="Path 3287" d="M1036.048,919.15H1031.9v-2.2h4.146Zm8.621-15.084h-3.595a.583.583,0,0,0-.587.55l-.5,7.368h-3.064v-2.328a.622.622,0,0,0-.624-.586.449.449,0,0,0-.311,0l-3.247,2.2v-1.815a.6.6,0,0,0-.606-.586.5.5,0,0,0-.33,0l-4.182,2.951a.558.558,0,0,0-.238.476v7.167a.594.594,0,0,0,.586.605h17.739a.584.584,0,0,0,.44-.2.656.656,0,0,0,.165-.44l-.972-15.121A.609.609,0,0,0,1044.669,904.066Z" fill="#15c7b2"/>
    <path id="Path_3288" data-name="Path 3288" d="M1332.7,916.016h-4.164v-2.2h4.164Zm8.6-15.085h-3.687a.584.584,0,0,0-.587.55l-.477,7.369h-3.063V906.5a.641.641,0,0,0-.642-.586.894.894,0,0,0-.312.11l-3.229,2.2v-1.8a.626.626,0,0,0-.623-.6,1.181,1.181,0,0,0-.331.11l-4.182,2.951a.609.609,0,0,0-.239.477v7.185a.6.6,0,0,0,.587.586h17.757a.59.59,0,0,0,.441-.2.545.545,0,0,0,.146-.44l-.972-15.1A.606.606,0,0,0,1341.306,900.931Z" fill="#15c7b2"/>
    <path id="Path_3289" data-name="Path 3289" d="M1214.624,1051.376h-4.054v-2.2h4.164Zm8.6-15.1h-3.669a.607.607,0,0,0-.6.586l-.477,7.369h-3.063v-2.365a.591.591,0,0,0-.6-.568h-.037a.452.452,0,0,0-.312,0l-3.228,2.2v-1.8a.625.625,0,0,0-.7-.568.689.689,0,0,0-.256.073l-4.183,2.951a.606.606,0,0,0-.238.477v7.185a.607.607,0,0,0,.605.586H1224.2a.586.586,0,0,0,.44-.2.543.543,0,0,0,.147-.44l-.973-15.085A.665.665,0,0,0,1223.227,1036.273Z" fill="#15c7b2"/>
    <path id="Path_3290" data-name="Path 3290" d="M1222.805,789.308h-4.164v-2.2h4.164Zm8.6-15.1h-3.669a.584.584,0,0,0-.587.55l-.495,7.368h-3.064v-2.328a.622.622,0,0,0-.624-.586.449.449,0,0,0-.311,0l-3.247,2.2v-1.814a.6.6,0,0,0-.606-.587.5.5,0,0,0-.33,0l-4.182,2.951a.559.559,0,0,0-.239.477V789.6a.6.6,0,0,0,.587.6h17.739a.584.584,0,0,0,.44-.2.624.624,0,0,0,.165-.439l-.972-15.1A.613.613,0,0,0,1231.409,774.205Z" fill="#15c7b2"/>
    <path id="Path_3291" data-name="Path 3291" d="M466.75,974.229h-4.164v-2.2h4.164Zm8.6-15.1h-3.669a.6.6,0,0,0-.6.568l-.477,7.368h-3.064v-2.327a.629.629,0,0,0-.642-.6.641.641,0,0,0-.312.11l-3.228,2.2v-1.778a.61.61,0,0,0-.624-.586.586.586,0,0,0-.33.11L458.22,967.1a.643.643,0,0,0-.239.495v7.167a.64.64,0,0,0,.606.623h17.738a.815.815,0,0,0,.44-.2.6.6,0,0,0,.147-.458l-.972-15.1A.627.627,0,0,0,475.353,959.126Z" fill="#15c7b2"/>
    <path id="Path_3292" data-name="Path 3292" d="M759.974,1135.653H755.81v-2.2h4.164Zm8.6-15.085h-3.669a.6.6,0,0,0-.606.568l-.476,7.368h-3.064v-2.346a.594.594,0,0,0-.6-.586h-.037a.517.517,0,0,0-.293.11l-3.247,2.2v-1.8a.571.571,0,0,0-.569-.568h-.037a.509.509,0,0,0-.33.11l-4.182,2.914a.584.584,0,0,0-.257.495v7.166a.6.6,0,0,0,.6.587H769.55a.64.64,0,0,0,.44-.183.525.525,0,0,0,.147-.44l-.954-15.1A.666.666,0,0,0,768.578,1120.568Z" fill="#15c7b2"/>
    <path id="Path_3293" data-name="Path 3293" d="M440.885,1015.414h-4.164v-2.2h4.164Zm8.6-15.121h-3.669a.6.6,0,0,0-.605.568l-.477,7.368h-3.063V1005.9a.629.629,0,0,0-.642-.587.5.5,0,0,0-.312.11l-3.229,2.2v-1.777a.613.613,0,0,0-.623-.6.786.786,0,0,0-.331.11l-4.182,2.932a.608.608,0,0,0-.238.477v7.166a.64.64,0,0,0,.6.624H450.46a.686.686,0,0,0,.441-.22.539.539,0,0,0,.146-.44l-.972-15.085A.624.624,0,0,0,449.488,1000.293Z" fill="#15c7b2"/>
    <path id="Path_3294" data-name="Path 3294" d="M420.542,1065.287h-4.164v-2.2h4.164Zm8.585-15.1h-3.651a.621.621,0,0,0-.624.569l-.476,7.368h-3.064v-2.328a.6.6,0,0,0-.587-.6h-.037a1.19,1.19,0,0,0-.33.11l-3.21,2.2v-1.778a.58.58,0,0,0-.587-.587h-.018a.511.511,0,0,0-.33.11l-4.22,2.915a.645.645,0,0,0-.238.494v7.167a.67.67,0,0,0,.624.623H430.1a.775.775,0,0,0,.44-.22.456.456,0,0,0,.165-.44l-.954-15.1A.665.665,0,0,0,429.127,1050.184Z" fill="#15c7b2"/>
    <path id="Path_3295" data-name="Path 3295" d="M1183.275,824.1h-4.164v-2.2h4.164Zm8.6-15.1h-3.669a.591.591,0,0,0-.6.568l-.477,7.369h-2.972V814.6a.6.6,0,0,0-.587-.6h-.055a.451.451,0,0,0-.312,0l-3.228,2.2v-1.777a.58.58,0,0,0-.587-.587h-.037a.5.5,0,0,0-.33,0l-4.182,2.914a.618.618,0,0,0-.239.5v7.167a.61.61,0,0,0,.6.6h17.757a.684.684,0,0,0,.44-.22.487.487,0,0,0,.147-.44l-.954-15.085A.655.655,0,0,0,1191.878,808.993Z" fill="#15c7b2"/>
    <path id="Path_3296" data-name="Path 3296" d="M1190.062,1086.677H1185.9v-2.2h4.164Zm8.6-15.121h-3.687a.6.6,0,0,0-.587.568l-.477,7.368h-3.155v-2.327a.58.58,0,0,0-.587-.587h-.055a.5.5,0,0,0-.312.11l-3.228,2.2v-1.778a.6.6,0,0,0-.587-.6h-.037a.594.594,0,0,0-.33.11l-4.183,2.932a.611.611,0,0,0-.238.477v7.167a.61.61,0,0,0,.6.6h17.757a.587.587,0,0,0,.44-.2.487.487,0,0,0,.147-.44l-.954-15.085A.692.692,0,0,0,1198.665,1071.556Z" fill="#15c7b2"/>
    <path id="Path_3297" data-name="Path 3297" d="M584.076,1386.65H572.391v-3.959h11.685Zm-.238-9.4v-3.464l-5.687,3.464v-3.464l-5.686,3.464v-3.464l-5.669,3.464v9.458h22.71v-12.922Z" fill="#15c7b2"/>
    <path id="Path_3298" data-name="Path 3298" d="M862.956,1271.25a.328.328,0,0,1-.33.33h-.715a.329.329,0,0,1-.331-.33v-.733a.322.322,0,0,1,.294-.33h.752a.336.336,0,0,1,.33.294v.769Zm-2.2,0a.328.328,0,0,1-.33.33h-.734a.328.328,0,0,1-.33-.33v-.733a.328.328,0,0,1,.33-.33h.734a.329.329,0,0,1,.33.33Zm-4.4.7a.311.311,0,0,1-.293.33h-.752a.306.306,0,0,1-.33-.275v-1.485a.321.321,0,0,1,.293-.33h.752a.336.336,0,0,1,.33.294v1.466Zm-2.2,0a.329.329,0,0,1-.33.33h-.734a.329.329,0,0,1-.33-.33v-1.43a.329.329,0,0,1,.33-.33h.734a.329.329,0,0,1,.33.33Zm9.759-6.818H852.078v-1.1a.328.328,0,0,0-.33-.33h-1.321a.328.328,0,0,0-.33.33v1.356l-2.33,3.519a.259.259,0,0,0,0,.165v5.774a.341.341,0,0,0,.331.33h1.357v-2.493a.329.329,0,0,1,.33-.33h.954a.328.328,0,0,1,.33.33v2.493h12.9a.341.341,0,0,0,.33-.33v-9.385a.328.328,0,0,0-.33-.329Z" fill="#15c7b2"/>
  </g>
</svg>
