<svg xmlns="http://www.w3.org/2000/svg" width="1167.118" height="902.782" viewBox="0 0 1167.118 902.782">
  <g id="map-principios-ecologicos" transform="translate(-571.603 -497.118)">
    <path id="Path_4599" data-name="Path 4599" d="M908.191,904.412l-4.27-.856-1.365-.45-4.4-.981-3.554.89-3.263.657-1.54.774-.175.058h-.058l-1.2.241h-3.712l-1.54,1.53-2.065.35-1.548-.158-1.823-.2-2.3-.457-3.4-.466-1.083-1.081h-2.979l-1.033-.15-2-.333H862.7l-1.607-.358-2.9-.407-3.771.341-2.1.3-1.614.316-.949.242-1.507.3-1.407.483-1.2.474-2.239.74-2.264,1.505-.958.974-.965.765-1.415,1.206-.983.649-.957.956-3.055,2.046-.516,1.539-.4.274-.366.716-2.872,1.913v4.724l-.242.965v3.344l3.3,6.579h2.638l6.434,4.283,2.556-3.843,2.455.5,3.813-1.04,1.34-.142h1.606l1.682-.232h2.505l2.481-.275,1.856,1.231H865.6l2.414-.4,4.828-1.206.932-1.872,1.607-.266.491-.333h2.93l.474-.474h2.881l1.2-1.2h1.507l1.848-1.231.241-.083.2-.1.408-.1,2.264-.757.266-.125h1.324l1.8-.723,4.469-.7,2.847-1.065,1.848-.8,2.622-1.156,2.955-1.689,3.121-3.119,3.388-6.787Zm-14.766,13.3-2.017,1.545-1.909.836-1.7.572-1.194.4-1.84.527-2.888.346-1.162.358h-.855l-.172.062-1.463.374-.264.05-.129.049-.156.041-1.194.61h-.974l-.774.593h-1.862l-.306.235h-1.893l-.318.164-1.038.132-.6.927-3.12.6-1.56.2h-2.915l-1.2-.61-1.6.136H856.7l-1.087.115h-1.038l-.866.07-2.463.515-1.587-.247-1.651,1.9-4.158-2.12h-1.706l-2.13-3.258v-1.655l.156-.478v-2.339l1.856-.947.237-.354.258-.136.333-.762,1.975-1.013.618-.474.635-.321.914-.6.624-.379.619-.482,1.463-.745,1.447-.367.775-.234.908-.239.974-.149.613-.119,1.044-.157,1.355-.148,2.437-.169,1.872.2,1.038.177h1.409l1.291.165.667.074h1.926l.7.535,2.2.231,1.485.227,1.178.1,1,.079,1.334-.173.995-.758h2.4l.775-.119h.038l.113-.029.995-.383,2.108-.326,2.3-.44,2.845.486.883.222,2.759.424,4.05,3.1Z" fill="#41c5a9"/>
    <g id="Group_1022" data-name="Group 1022">
      <path id="Path_4600" data-name="Path 4600" d="M755.868,1384.483l-5.3-4.4-4.408-5.276-2.648-6.606L740,1356.3l-3.52-6.607-2.648-2.646-2.2-1.315h-4.852l-15.872,1.315,1.76,32.162-25.56,3.074-33.06,2.2-14.54.444h-7.056l-12.78-1.759-10.148-1.759-.872-.444H608.2l-14.984-4.4-14.556-6.163-3.964-3.533L571.6,1372.6l5.3,3.961,11.908,3.074,3.52.887,7.056,3.961,5.281,1.331,10.591,1.759,14.984,2.646,9.688,1.754,7.056.881,8.816,3.083,10.148,3.964,19.836-1.762,13.653-.881,16.76-1.762,24.688-2.2,24.244-1.321v-.441l-.444-.44Z" fill="#426aa8"/>
      <path id="Path_4601" data-name="Path 4601" d="M799.182,1338.011l-14.984.887-9.7.872-7.484.443-15.428,1.315-10.148.887-1.76.887-.888.428v2.2l1.775,2.646,1.76,3.533,2.2,4.833,3.076,7.937,1.776,4.848,2.2,4.4,2.2,2.63,3.964,3.976,4.408,3.961,3.076,1.315,1.775.887,2.633-.443,3.092-.444h2.648l5.28.444,6.612-.444,8.816-.444,4.852-.428h5.3l3.52-.443,5.3-7.494-8.372-39.64Z" fill="#426aa8"/>
      <path id="Path_4602" data-name="Path 4602" d="M842.492,1254.572v-3.533l-1.332-11.883-.429-10.568-12.8,1.759-26,2.646-9.26.872-4.408.444-3.52.444-23.356,2.646-18.964,2.2-5.724.872-1.76.887L731.848,1244l-2.648,3.961-1.316,2.646v4.4L729.2,1269.1l32.616-3.074,2.648,36.551h3.218l3.092,35.679,40.545-3.961-.024-.247,8.27-.64,10.148-1.315,5.28-2.2,3.536-2.2,5.724-4.4,2.648-3.533v-8.365l-3.092-42.729Z" fill="#426aa8"/>
      <path id="Path_4603" data-name="Path 4603" d="M730.153,1279.862,692.8,1282.7l.424,6.189,5.3,56.891,10.178-1.208-.045-.467,24.087-2.331-2.607-26.455,3.254-.262Z" fill="#426aa8"/>
      <path id="Path_4604" data-name="Path 4604" d="M1119.754,1061.678l-7.928-4.848-25.576-4.848-70.528.444-42.749,7.922-29.1,12.77-34.82,14.987L872.9,1099.544l-.444,1.331-10.132,11.883-21.168,7.937-16.3,11.883,7.484,9.7,1.332,2.2.872,2.2,1.332,2.646,1.316,4.4,1.332,3.961.429,3.961.444,3.533,1.76,21.135,89.048-6.607,3.964,46.232.888,7.479,1.76,21.594,4.852,54.613.444,8.809,5.724-3.533,33.948-21.579,19.836-9.252,13.653-8.366L1036,1258.977l8.816-10.568,15.872-19.82,12.78-28.17,9.7-32.162,5.281-13.214,28.652-58.573,6.168-22.466-.428-6.163Z" fill="#426aa8"/>
      <path id="Path_4605" data-name="Path 4605" d="M1080.635,893.25l28.652-1.315V880.48l.444-10.567V855.368l-.888-1.315-1.316-1.315-.888-.444h-25.116l-.888.444-.444.428.444,19.392V893.25Z" fill="#426aa8"/>
      <path id="Path_4606" data-name="Path 4606" d="M1125.235,955.157v-89.42l-2.648,1.835-2.648,1.33-2.648,2.646-1.837,1.835-2.633,3.518-.444,2.2.444,48.006V932.4l.429,26.87.444,3.961,3.092,5.8,2.648,3.518.872,2.2.444,1.835.444,12.342,5.28,3.426-1.316-36.995Z" fill="#426aa8"/>
      <path id="Path_4607" data-name="Path 4607" d="M1146.89,820.078l-5.3-39.2-1.837-17.159-2.2-17.618-14.035-.882v0l-7.056-.444-19.836,1.774-17.632,2.63-18.948,7.494-13.668,10.552-20.28,14.987-10.576,7.478-13.668,6.163-7.928,5.291h-5.3l-4.408-1.774-6.168-.428-8.372-.887L954.253,796.3l-19.392.872-19.392,3.976-13.224,5.276-14.112,10.14-14.54,12.326-15,19.82-22.04,16.3-14.54,3.961-29.54,8.365-18.5,3.089-11.02,2.63-9.26.444H719.312l-9.7-1.315-5.724-2.2-7.944.872-3.076,2.2-1.776,4.4-2.2,5.735-3.52,7.479-1.76,13.213,2.2,7.937,5.724,11.883,3.536,6.179,5.28,7.478,12.352,12.77,7.041,7.05,11.02,10.568,6.184,5.291,7.928,7.05,7.056,5.276,14.984,7.937,12.336,6.163,6.184,3.518,6.168,3.976,14.1,10.568,3.98,6.163,3.076,8.365,3.536,10.568,1.76,9.253,1.316,4.4.888.887,4.852,3.961,6.168,4.4h1.316l18.964,6.607,7.928.887L875.8,1081.7l7.041-2.2,17.632-4.848,14.112-3.517,6.168-1.759,8.372-3.089,5.74-3.074,6.168-3.976,12.78-9.681,11.908-5.291V994.5l.872-104.836H1002.3l.444-23.781V845.19h91.681l22.04-.444H1120l1.76,1.315,1.316,1.331.811,2.012v9.06l.444,9.7.444.443h.872l2.648-3.089,3.092-3.074,2.648-2.2,2.2-1.835,1.316-.887.888-.443h7.041l.888-17.174.949-8.809Z" fill="#426aa8"/>
    </g>
    <text id="ECOPARQUE" transform="translate(941.053 1150.908) rotate(-1.094)" fill="#f1f1f1" font-size="21.575" font-family="UrbanistRoman-Bold, Urbanist" font-weight="700"><tspan x="0" y="0">ECOPARQUE</tspan></text>
    <text id="ECOPARQUE-2" data-name="ECOPARQUE" transform="translate(796.325 970.297) rotate(-1.094)" fill="#f1f1f1" font-size="21.575" font-family="UrbanistRoman-Bold, Urbanist" font-weight="700"><tspan x="0" y="0">ECOPARQUE</tspan></text>
    <text id="ECO_PARQUE" data-name="ECO
PARQUE" transform="translate(778.286 1278.43) rotate(-1.094)" fill="#f1f1f1" font-size="15.398" font-family="UrbanistRoman-Bold, Urbanist" font-weight="700"><tspan x="0" y="0">ECO</tspan><tspan x="0" y="18.478">PARQUE</tspan></text>
    <g id="Group_1023" data-name="Group 1023">
      <path id="Path_4608" data-name="Path 4608" d="M662.773,951.081l.271.617.332.573c16.518,29.909,46.66,51.459,73.985,68.672l.813.512.89.392,5.636,2.56c16.277,7.229,31.8,14.217,41.6,26.415a81.158,81.158,0,0,1,3.346,12.485c1.808,8.012,3.737,17.078,9.042,24.728l2.939,4.232,2.909.843c.3.467.648.979,1.055,1.521l1.6,2.108,1.327.829,2.095,6.265h7.7a57.251,57.251,0,0,0,15.825,5.421,42.377,42.377,0,0,0,13.157,3.9l3.361.5,2.592-.738H856.2c29.886,0,55.974-11.882,81.2-23.388,11.077-5.03,21.551-9.8,32.056-13.464l1.613-.542,1.416-.918a25.783,25.783,0,0,0,2.532-1.808c20.407-6.084,40.391-7.349,63.917-7.349,5.652,0,11.319,0,17.091.121,5.17,0,10.4.135,15.719.15h.905c2.969-.18,5.787-.256,8.394-.256,15.147,0,20.964,2.967,21.914,4.533,3.8,6.235-9.9,32.529-17.272,46.761-2.924,5.647-5.983,11.506-8.862,17.394-7.43,14.111-11.876,29.1-16.277,43.568-5.425,18.207-10.534,35.376-20.828,48.3l-1.145,1.431-.558,1.265c-.3.3-.9.828-1.356,1.219a34.359,34.359,0,0,0-5.14,5.422l-1.251.617-1.235,2.47a34.593,34.593,0,0,0-4.492,5.331l-.723.362-1.99,2.3a29.7,29.7,0,0,1-6.329,4.774c-1.251.783-2.442,1.551-3.617,2.319l-.724.587-.8.738c-6.541,6.2-15.131,10.5-24.234,15.06a157.582,157.582,0,0,0-21.2,12.063c-3.135,1.973-6.24,3.961-9.314,5.934-11.907,7.6-23.21,14.834-34.785,20.24H915.4l-3.135,3.117c-35.131,13.1-77.315,29.729-100.389,66.73l-1.809,1.115-1.929,2.906h18.447c21.251-30.722,59.155-45.42,94.421-58.552v-.422l.437-.437h2.608c16.849-7.424,32.553-18.267,49.041-28.628,14.137-10.241,33.428-15.482,47.309-28.629,3.722-2.575,8.771-5.09,12.66-9.533,2.953-1.415,3.617-5.421,7.822-8.253l.421-.858.875-.437c1.431-4.593,6.812-6.159,9.042-11.279,20.874-26.2,22.5-63.824,38.628-94.32,22.787-46.685,57.647-93.793-17.92-89.41-36.412-.106-69.071-2.44-103.614,8.524a39.448,39.448,0,0,1-3.467,2.6c-36.035,12.53-70.94,37.107-111.12,35.993l-1.3-.858c-.874.376-.181.587-2.607,1.3a27.97,27.97,0,0,1-9.043-2.606l-.437-.858v-.437l-.874.437a40.329,40.329,0,0,1-16.925-6.069h-1.3l-.437-1.31-3.467-2.169c-1.627-2.153-1.959-4.744-6.51-6.069-6.586-9.548-6.315-24.834-11.726-36.43-13.262-17.635-34.181-25.767-53.819-34.7-26.058-16.265-54.045-36.144-69.011-63.252-12.826-29.261-9.661-45.345,5.169-63.251l-16.894-1.536C651.7,899.185,648.968,919.546,662.773,951.081Z" fill="#41c5a9"/>
      <path id="Path_4609" data-name="Path 4609" d="M1710.84,497.118l-5.426,14.458h18.839v.436c-.3,0,.151,1.07-1.809,1.808l-.9-.437h-1.206l-.9.437c-55.914,103.581-86.509,100.719-110.622,140.086-105.846,188.985-197.9,123.746-365.4,104.982-52.583,5.331-91.271-5.226-134.254-6.521a9.954,9.954,0,0,0-2.17-1.807c-48.831,4.442-63.556,17.364-82.048,35.571-32.689,14.954-33.307,26.114-56.065,17.755l-1.808-1.807c-115.747-7.936-84.143,62.062-158.037,72.287-31.906,11.22-68.182,15.964-101.082,8.449-1.327-.211-2.879.482-5.652.422-1.417-.6-3.12-2.124-6.074-.422-45.786,49.276,50.519,112.918,79.863,127.075v1.295c8.681,4.4,21.144,8.629,27.791,17.349,4.717,7.846,9.51,18.162,10.851,28.192l-.437,2.168c18.085,37.951,80.209,15.452,106.086,8.313,18.251-6.37,25.44-20.1,42.787-22.62,41.6-18.614,91.106-10.225,134.993-1.807,5.275-2.816,15.116,2.636,23.255,9.608l10.384-10.135c-8.319-7.334-19.638-14.683-30.293-14.683a22.912,22.912,0,0,0-4.054.361c-24.4-4.683-50.2-9.036-75.643-9.036-23.948,0-44.52,3.826-62.8,11.672-11.892,2.244-20.015,8.177-27.129,13.463a62.358,62.358,0,0,1-15.764,9.337l-7.686,2.214c-14.815,4.352-35.1,10.3-52.719,10.3-16.1,0-22.954-5.06-26.405-10.015l-.151-1.1c-1.808-13.238-7.942-25.647-12.78-33.734l-.422-.663-.467-.632c-6.752-8.855-16.458-13.885-24.838-17.771v-1.205l-8.168-3.945c-26.164-12.651-77.481-49.065-83.314-80.058a24.85,24.85,0,0,1,3.753-19.111,31.682,31.682,0,0,0,4.129-.316,166.482,166.482,0,0,0,34.664,3.524,220.045,220.045,0,0,0,70.85-12.425c35.749-5.421,50.729-23.493,63.962-39.456,14.664-17.726,27.339-33.057,73.306-33.057,3.5,0,7.174.091,10.987.271l.106.091L963.9,817.4a52.173,52.173,0,0,0,18.085,3.75c10.852,0,18.252-4.608,26.9-9.939a188.1,188.1,0,0,1,22.17-11.943l2.321-1.069,1.809-1.807c15.327-15.09,26.615-26.2,66.7-30.813l1.205,1.28,6.18-.135c14.649.467,28.786,2.033,43.751,3.705,19.005,2.123,38.643,4.322,60.6,4.322,10.143,0,19.894-.482,29.765-1.416,30.745,3.494,58.416,8.494,85.273,13.313,37.979,6.852,70.88,12.771,102.635,12.771,79.907,0,134.978-40.089,190.018-138.295,7.686-12.454,16.277-20.225,27.128-30.029,20.346-18.328,45.364-41.008,80.329-104.093l9.947,1.069V497.118Z" fill="#41c5a9"/>
    </g>
  </g>
</svg>
