<svg xmlns="http://www.w3.org/2000/svg" width="575.715" height="655.126" viewBox="0 0 575.715 655.126">
  <g id="map-contribuicões-ambientais" transform="translate(-571.603 -744.774)">
    <g id="Group_702" data-name="Group 702">
      <path id="Path_1879" data-name="Path 1879" d="M755.868,1384.483l-5.3-4.4-4.408-5.276-2.648-6.606L740,1356.3l-3.52-6.607-2.648-2.646-2.2-1.315h-4.852l-15.872,1.315,1.76,32.162-25.56,3.074-33.06,2.2-14.54.444h-7.056l-12.78-1.759-10.148-1.759-.872-.444H608.2l-14.984-4.4-14.556-6.163-3.964-3.533L571.6,1372.6l5.3,3.961,11.908,3.074,3.52.887,7.056,3.961,5.281,1.331,10.591,1.759,14.984,2.646,9.688,1.754,7.056.881,8.816,3.083,10.148,3.964,19.836-1.762,13.653-.881,16.76-1.762,24.688-2.2,24.244-1.321v-.441l-.444-.44Z" fill="#426aa8"/>
      <path id="Path_1880" data-name="Path 1880" d="M799.182,1338.011l-14.984.887-9.7.872-7.484.443-15.428,1.315-10.148.887-1.76.887-.888.428v2.2l1.775,2.646,1.76,3.533,2.2,4.833,3.076,7.937,1.776,4.848,2.2,4.4,2.2,2.63,3.964,3.976,4.408,3.961,3.076,1.315,1.775.887,2.633-.443,3.092-.444h2.648l5.28.444,6.612-.444,8.816-.444,4.852-.428h5.3l3.52-.443,5.3-7.494-8.372-39.64Z" fill="#426aa8"/>
      <path id="Path_1881" data-name="Path 1881" d="M842.492,1254.572v-3.533l-1.332-11.883-.429-10.568-12.8,1.759-26,2.646-9.26.872-4.408.444-3.52.444-23.356,2.646-18.964,2.2-5.724.872-1.76.887L731.848,1244l-2.648,3.961-1.316,2.646v4.4L729.2,1269.1l32.616-3.074,2.648,36.551h3.218l3.092,35.679,40.545-3.961-.024-.247,8.27-.64,10.148-1.315,5.28-2.2,3.536-2.2,5.724-4.4,2.648-3.533v-8.365l-3.092-42.729Z" fill="#426aa8"/>
      <path id="Path_1882" data-name="Path 1882" d="M730.153,1279.862,692.8,1282.7l.424,6.189,5.3,56.891,10.178-1.208-.045-.467,24.087-2.331-2.607-26.455,3.254-.262Z" fill="#426aa8"/>
      <path id="Path_1883" data-name="Path 1883" d="M1119.754,1061.678l-7.928-4.848-25.576-4.848-70.528.444-42.749,7.922-29.1,12.77-34.82,14.987L872.9,1099.544l-.444,1.331-10.132,11.883-21.168,7.937-16.3,11.883,7.484,9.7,1.332,2.2.872,2.2,1.332,2.646,1.316,4.4,1.332,3.961.429,3.961.444,3.533,1.76,21.135,89.048-6.607,3.964,46.232.888,7.479,1.76,21.594,4.852,54.613.444,8.809,5.724-3.533,33.948-21.579,19.836-9.252,13.653-8.366L1036,1258.977l8.816-10.568,15.872-19.82,12.78-28.17,9.7-32.162,5.281-13.214,28.652-58.573,6.168-22.466-.428-6.163Z" fill="#426aa8"/>
      <path id="Path_1884" data-name="Path 1884" d="M1080.635,893.25l28.652-1.315V880.48l.444-10.567V855.368l-.888-1.315-1.316-1.315-.888-.444h-25.116l-.888.444-.444.428.444,19.392V893.25Z" fill="#426aa8"/>
      <path id="Path_1885" data-name="Path 1885" d="M1125.235,955.157v-89.42l-2.648,1.835-2.648,1.33-2.648,2.646-1.837,1.835-2.633,3.518-.444,2.2.444,48.006V932.4l.429,26.87.444,3.961,3.092,5.8,2.648,3.518.872,2.2.444,1.835.444,12.342,5.28,3.426-1.316-36.995Z" fill="#426aa8"/>
      <path id="Path_1886" data-name="Path 1886" d="M1146.89,820.078l-5.3-39.2-1.837-17.159-2.2-17.618-14.035-.882v0l-7.056-.444-19.836,1.774-17.632,2.63-18.948,7.494-13.668,10.552-20.28,14.987-10.576,7.478-13.668,6.163-7.928,5.291h-5.3l-4.408-1.774-6.168-.428-8.372-.887L954.253,796.3l-19.392.872-19.392,3.976-13.224,5.276-14.112,10.14-14.54,12.326-15,19.82-22.04,16.3-14.54,3.961-29.54,8.365-18.5,3.089-11.02,2.63-9.26.444H719.312l-9.7-1.315-5.724-2.2-7.944.872-3.076,2.2-1.776,4.4-2.2,5.735-3.52,7.479-1.76,13.213,2.2,7.937,5.724,11.883,3.536,6.179,5.28,7.478,12.352,12.77,7.041,7.05,11.02,10.568,6.184,5.291,7.928,7.05,7.056,5.276,14.984,7.937,12.336,6.163,6.184,3.518,6.168,3.976,14.1,10.568,3.98,6.163,3.076,8.365,3.536,10.568,1.76,9.253,1.316,4.4.888.887,4.852,3.961,6.168,4.4h1.316l18.964,6.607,7.928.887L875.8,1081.7l7.041-2.2,17.632-4.848,14.112-3.517,6.168-1.759,8.372-3.089,5.74-3.074,6.168-3.976,12.78-9.681,11.908-5.291V994.5l.872-104.836H1002.3l.444-23.781V845.19h91.681l22.04-.444H1120l1.76,1.315,1.316,1.331.811,2.012v9.06l.444,9.7.444.443h.872l2.648-3.089,3.092-3.074,2.648-2.2,2.2-1.835,1.316-.887.888-.443h7.041l.888-17.174.949-8.809Z" fill="#426aa8"/>
    </g>
    <g id="Group_704" data-name="Group 704">
      <path id="Path_1887" data-name="Path 1887" d="M870.533,975.905H859.55a1.873,1.873,0,0,1-1.874-1.874v-8.125h14.247v8.609a1.39,1.39,0,0,1-1.39,1.39Z" fill="#426aa8"/>
      <path id="Path_1888" data-name="Path 1888" d="M857.676,970.886h0Z" fill="#fff"/>
      <path id="Path_1889" data-name="Path 1889" d="M864.8,943.394c4.049,3.451,9.963-.51,9.963-6,0-8.374-10.5-18-10.5-18s-9.431,9.621-9.431,18c0,5.492,5.916,9.453,9.965,6Z" fill="#41c5a9"/>
      <g id="Group_703" data-name="Group 703">
        <path id="Path_1890" data-name="Path 1890" d="M866.581,979.368h-3.562a2.2,2.2,0,0,1-2.2-2.2v-1.268a.671.671,0,1,1,1.342,0v1.268a.855.855,0,0,0,.854.854h3.562a.855.855,0,0,0,.853-.854v-1.268a.671.671,0,1,1,1.342,0v1.268A2.2,2.2,0,0,1,866.581,979.368Z" fill="#fff"/>
        <path id="Path_1891" data-name="Path 1891" d="M870.533,976.576H859.55a2.548,2.548,0,0,1-2.545-2.545v-8.125a.671.671,0,0,1,.671-.671h14.247a.671.671,0,0,1,.67.671v8.609A2.063,2.063,0,0,1,870.533,976.576Zm-12.186-10v7.454a1.2,1.2,0,0,0,1.2,1.2h10.983a.719.719,0,0,0,.719-.719v-7.938Z" fill="#fff"/>
        <path id="Path_1892" data-name="Path 1892" d="M871.263,966.577H858.336a.669.669,0,0,1-.281-.062c-.109-.05-2.681-1.3-3.609-6.951a28.638,28.638,0,0,0-3.692-10.271c-.083-.135-.163-.266-.238-.386a29.992,29.992,0,0,0-1.955-2.8,20.771,20.771,0,0,1,15.411-33.671,20.86,20.86,0,0,1,21.56,20.067,21.111,21.111,0,0,1-4.339,13.542,42.052,42.052,0,0,0-2.666,3.759c-.142.233-.291.48-.444.738a21.968,21.968,0,0,0-2.832,8.361c-.831,6.215-3.59,7.555-3.707,7.609A.665.665,0,0,1,871.263,966.577Zm-12.742-1.342h12.557c.452-.31,2.214-1.8,2.843-6.507a23.289,23.289,0,0,1,3.009-8.867c.156-.264.307-.516.453-.753a43.214,43.214,0,0,1,2.749-3.881,19.769,19.769,0,0,0,4.06-12.68,19.4,19.4,0,0,0-38.794.619,19.531,19.531,0,0,0,4.214,12.109,31.437,31.437,0,0,1,2.042,2.921l.246.4a29.952,29.952,0,0,1,3.87,10.75C856.463,963.567,858.089,964.939,858.521,965.235Z" fill="#fff"/>
        <path id="Path_1893" data-name="Path 1893" d="M871.923,971.556H857.676a.671.671,0,1,1,0-1.341h14.247a.671.671,0,0,1,0,1.341Z" fill="#fff"/>
        <path id="Path_1894" data-name="Path 1894" d="M863.119,966.577a.671.671,0,0,1-.666-.6l-.914-9.017-3.306-5.112a.67.67,0,0,1,1.126-.728l3.394,5.247a.658.658,0,0,1,.1.3l.93,9.178a.669.669,0,0,1-.6.734A.544.544,0,0,1,863.119,966.577Z" fill="#fff"/>
        <path id="Path_1895" data-name="Path 1895" d="M866.582,966.577a.534.534,0,0,1-.069,0,.67.67,0,0,1-.6-.734l.931-9.178a.668.668,0,0,1,.1-.3l3.395-5.247a.671.671,0,0,1,1.127.728l-3.307,5.112-.914,9.017A.671.671,0,0,1,866.582,966.577Z" fill="#fff"/>
        <path id="Path_1896" data-name="Path 1896" d="M861.409,945.363a6.321,6.321,0,0,1-2.655-.608,8.182,8.182,0,0,1-4.589-7.363c0-8.549,9.229-18.063,9.622-18.464a.67.67,0,0,1,.932-.025c.438.4,10.715,9.919,10.715,18.489a8.181,8.181,0,0,1-4.59,7.363,5.839,5.839,0,0,1-6.044-.509A5.758,5.758,0,0,1,861.409,945.363Zm2.883-25.012c-1.858,2.032-8.786,10.079-8.786,17.041a6.822,6.822,0,0,0,3.81,6.146,4.564,4.564,0,0,0,5.049-.654.67.67,0,0,1,.87,0,4.562,4.562,0,0,0,5.047.654,6.821,6.821,0,0,0,3.81-6.146C874.092,930.413,866.322,922.34,864.292,920.351Z" fill="#fff"/>
        <path id="Path_1897" data-name="Path 1897" d="M864.8,952.932a.671.671,0,0,1-.638-.464,17.383,17.383,0,0,1-.008-9.254c1.961-6.972,1.216-17.171-.534-23.642a.671.671,0,0,1,1.295-.35c1.742,6.444,2.652,16.814.531,24.355a16.221,16.221,0,0,0-.008,8.478.671.671,0,0,1-.431.845A.682.682,0,0,1,864.8,952.932Z" fill="#fff"/>
        <path id="Path_1898" data-name="Path 1898" d="M885.9,921.017l5.65-2.69Z" fill="#fff"/>
        <path id="Path_1899" data-name="Path 1899" d="M885.9,921.687a.671.671,0,0,1-.289-1.276l5.651-2.69a.671.671,0,1,1,.576,1.211l-5.65,2.69A.671.671,0,0,1,885.9,921.687Z" fill="#fff"/>
        <path id="Path_1900" data-name="Path 1900" d="M888.794,932.153h0Z" fill="#fff"/>
        <path id="Path_1901" data-name="Path 1901" d="M892.568,932.824h-3.774a.671.671,0,0,1,0-1.342h3.774a.671.671,0,0,1,0,1.342Z" fill="#fff"/>
        <path id="Path_1902" data-name="Path 1902" d="M878.14,912.73l2.123-3.12Z" fill="#fff"/>
        <path id="Path_1903" data-name="Path 1903" d="M878.14,913.4a.67.67,0,0,1-.554-1.048l2.123-3.12a.671.671,0,0,1,1.109.755l-2.123,3.119A.669.669,0,0,1,878.14,913.4Z" fill="#fff"/>
        <path id="Path_1904" data-name="Path 1904" d="M843.7,921.017l-5.65-2.69Z" fill="#fff"/>
        <path id="Path_1905" data-name="Path 1905" d="M843.7,921.687a.675.675,0,0,1-.288-.065l-5.65-2.69a.671.671,0,1,1,.576-1.211l5.651,2.69a.671.671,0,0,1-.289,1.276Z" fill="#fff"/>
        <path id="Path_1906" data-name="Path 1906" d="M840.8,932.153h0Z" fill="#fff"/>
        <path id="Path_1907" data-name="Path 1907" d="M840.8,932.824h-3.773a.671.671,0,0,1,0-1.342H840.8a.671.671,0,1,1,0,1.342Z" fill="#fff"/>
        <path id="Path_1908" data-name="Path 1908" d="M851.459,912.73l-2.124-3.12Z" fill="#fff"/>
        <path id="Path_1909" data-name="Path 1909" d="M851.459,913.4a.671.671,0,0,1-.555-.294l-2.123-3.119a.671.671,0,0,1,1.109-.755l2.123,3.12a.67.67,0,0,1-.554,1.048Z" fill="#fff"/>
        <path id="Path_1910" data-name="Path 1910" d="M865.116,909.48v0Z" fill="#fff"/>
        <path id="Path_1911" data-name="Path 1911" d="M865.116,910.151a.671.671,0,0,1-.67-.671v-3.3a.671.671,0,0,1,1.341,0v3.3A.671.671,0,0,1,865.116,910.151Z" fill="#fff"/>
      </g>
    </g>
    <g id="Group_706" data-name="Group 706">
      <path id="Path_1912" data-name="Path 1912" d="M1022.248,1164.193h-10.983a1.873,1.873,0,0,1-1.874-1.874v-8.125h14.247v8.609a1.39,1.39,0,0,1-1.39,1.39Z" fill="#426aa8"/>
      <path id="Path_1913" data-name="Path 1913" d="M1009.391,1159.174h0Z" fill="#fff"/>
      <path id="Path_1914" data-name="Path 1914" d="M1016.515,1131.682c4.049,3.451,9.963-.51,9.963-6,0-8.374-10.5-17.995-10.5-17.995s-9.431,9.621-9.431,17.995c0,5.492,5.916,9.453,9.965,6Z" fill="#41c5a9"/>
      <g id="Group_705" data-name="Group 705">
        <path id="Path_1915" data-name="Path 1915" d="M1018.3,1167.656h-3.562a2.2,2.2,0,0,1-2.2-2.195v-1.268a.671.671,0,1,1,1.342,0v1.268a.855.855,0,0,0,.854.854h3.562a.855.855,0,0,0,.853-.854v-1.268a.671.671,0,0,1,1.342,0v1.268A2.2,2.2,0,0,1,1018.3,1167.656Z" fill="#fff"/>
        <path id="Path_1916" data-name="Path 1916" d="M1022.248,1164.864h-10.983a2.548,2.548,0,0,1-2.545-2.545v-8.125a.67.67,0,0,1,.671-.67h14.247a.67.67,0,0,1,.67.67v8.609A2.063,2.063,0,0,1,1022.248,1164.864Zm-12.186-10v7.454a1.2,1.2,0,0,0,1.2,1.2h10.983a.719.719,0,0,0,.719-.719v-7.938Z" fill="#fff"/>
        <path id="Path_1917" data-name="Path 1917" d="M1022.978,1154.865h-12.926a.669.669,0,0,1-.282-.062c-.109-.05-2.681-1.3-3.609-6.951a28.606,28.606,0,0,0-3.692-10.27c-.083-.136-.163-.267-.238-.387a30.009,30.009,0,0,0-1.955-2.8,20.771,20.771,0,0,1,15.411-33.671,20.86,20.86,0,0,1,21.56,20.067,21.111,21.111,0,0,1-4.339,13.542,42.074,42.074,0,0,0-2.666,3.759c-.142.233-.291.48-.444.738a21.967,21.967,0,0,0-2.832,8.361c-.831,6.215-3.59,7.555-3.707,7.609A.665.665,0,0,1,1022.978,1154.865Zm-12.742-1.341h12.557c.452-.311,2.214-1.8,2.843-6.508a23.3,23.3,0,0,1,3.009-8.867c.156-.264.307-.516.453-.753a43.206,43.206,0,0,1,2.749-3.881,19.77,19.77,0,0,0,4.06-12.68,19.4,19.4,0,0,0-38.794.619,19.531,19.531,0,0,0,4.214,12.109,31.458,31.458,0,0,1,2.042,2.921l.246.4a29.952,29.952,0,0,1,3.87,10.75C1008.178,1151.855,1009.8,1153.227,1010.236,1153.524Z" fill="#fff"/>
        <path id="Path_1918" data-name="Path 1918" d="M1023.638,1159.845h-14.247a.671.671,0,1,1,0-1.342h14.247a.671.671,0,0,1,0,1.342Z" fill="#fff"/>
        <path id="Path_1919" data-name="Path 1919" d="M1014.834,1154.865a.671.671,0,0,1-.666-.6l-.914-9.017-3.306-5.112a.67.67,0,1,1,1.126-.728l3.394,5.247a.658.658,0,0,1,.1.3l.93,9.178a.671.671,0,0,1-.6.735Z" fill="#fff"/>
        <path id="Path_1920" data-name="Path 1920" d="M1018.3,1154.865l-.069,0a.672.672,0,0,1-.6-.735l.931-9.178a.668.668,0,0,1,.1-.3l3.4-5.247a.671.671,0,0,1,1.127.728l-3.307,5.112-.914,9.017A.671.671,0,0,1,1018.3,1154.865Z" fill="#fff"/>
        <path id="Path_1921" data-name="Path 1921" d="M1013.124,1133.651a6.321,6.321,0,0,1-2.655-.608,8.182,8.182,0,0,1-4.589-7.363c0-8.549,9.229-18.063,9.622-18.464a.671.671,0,0,1,.933-.025c.437.4,10.714,9.919,10.714,18.489a8.181,8.181,0,0,1-4.59,7.363,5.839,5.839,0,0,1-6.044-.509A5.758,5.758,0,0,1,1013.124,1133.651Zm2.883-25.012c-1.858,2.032-8.786,10.079-8.786,17.041a6.822,6.822,0,0,0,3.81,6.146,4.565,4.565,0,0,0,5.049-.654.67.67,0,0,1,.87,0,4.562,4.562,0,0,0,5.047.654,6.821,6.821,0,0,0,3.81-6.146C1025.807,1118.7,1018.037,1110.628,1016.007,1108.639Z" fill="#fff"/>
        <path id="Path_1922" data-name="Path 1922" d="M1016.514,1141.22a.671.671,0,0,1-.638-.464,17.383,17.383,0,0,1-.008-9.254c1.961-6.972,1.216-17.171-.534-23.642a.671.671,0,0,1,1.3-.35c1.742,6.444,2.652,16.814.531,24.355a16.221,16.221,0,0,0-.008,8.478.671.671,0,0,1-.431.845A.682.682,0,0,1,1016.514,1141.22Z" fill="#fff"/>
        <path id="Path_1923" data-name="Path 1923" d="M1037.617,1109.305l5.65-2.69Z" fill="#fff"/>
        <path id="Path_1924" data-name="Path 1924" d="M1037.617,1109.975a.67.67,0,0,1-.288-1.276l5.65-2.69a.67.67,0,1,1,.576,1.211l-5.65,2.69A.672.672,0,0,1,1037.617,1109.975Z" fill="#fff"/>
        <path id="Path_1925" data-name="Path 1925" d="M1040.509,1120.441h0Z" fill="#fff"/>
        <path id="Path_1926" data-name="Path 1926" d="M1044.283,1121.112h-3.774a.671.671,0,0,1,0-1.342h3.774a.671.671,0,0,1,0,1.342Z" fill="#fff"/>
        <path id="Path_1927" data-name="Path 1927" d="M1029.855,1101.018l2.123-3.12Z" fill="#fff"/>
        <path id="Path_1928" data-name="Path 1928" d="M1029.855,1101.689a.67.67,0,0,1-.554-1.048l2.123-3.12a.671.671,0,1,1,1.109.755l-2.123,3.119A.669.669,0,0,1,1029.855,1101.689Z" fill="#fff"/>
        <path id="Path_1929" data-name="Path 1929" d="M995.412,1109.305l-5.65-2.69Z" fill="#fff"/>
        <path id="Path_1930" data-name="Path 1930" d="M995.412,1109.975a.675.675,0,0,1-.288-.065l-5.65-2.69a.67.67,0,1,1,.576-1.211l5.651,2.69a.671.671,0,0,1-.289,1.276Z" fill="#fff"/>
        <path id="Path_1931" data-name="Path 1931" d="M992.52,1120.441h0Z" fill="#fff"/>
        <path id="Path_1932" data-name="Path 1932" d="M992.52,1121.112h-3.773a.671.671,0,1,1,0-1.342h3.773a.671.671,0,0,1,0,1.342Z" fill="#fff"/>
        <path id="Path_1933" data-name="Path 1933" d="M1003.174,1101.018l-2.124-3.12Z" fill="#fff"/>
        <path id="Path_1934" data-name="Path 1934" d="M1003.174,1101.689a.671.671,0,0,1-.555-.294l-2.123-3.119a.671.671,0,0,1,1.109-.755l2.123,3.12a.67.67,0,0,1-.554,1.048Z" fill="#fff"/>
        <path id="Path_1935" data-name="Path 1935" d="M1016.831,1097.768v0Z" fill="#fff"/>
        <path id="Path_1936" data-name="Path 1936" d="M1016.831,1098.439a.671.671,0,0,1-.67-.671v-3.3a.671.671,0,0,1,1.341,0v3.3A.671.671,0,0,1,1016.831,1098.439Z" fill="#fff"/>
      </g>
    </g>
    <g id="Group_708" data-name="Group 708">
      <path id="Path_1937" data-name="Path 1937" d="M808.524,1296.042H797.541a1.874,1.874,0,0,1-1.874-1.874v-8.125h14.247v8.609a1.39,1.39,0,0,1-1.39,1.39Z" fill="#426aa8"/>
      <path id="Path_1938" data-name="Path 1938" d="M795.668,1291.022h0Z" fill="#fff"/>
      <path id="Path_1939" data-name="Path 1939" d="M802.791,1263.531c4.049,3.451,9.964-.51,9.964-6,0-8.374-10.5-17.995-10.5-17.995s-9.431,9.621-9.431,17.995c0,5.492,5.915,9.453,9.964,6Z" fill="#41c5a9"/>
      <g id="Group_707" data-name="Group 707">
        <path id="Path_1940" data-name="Path 1940" d="M804.572,1299.505H801.01a2.2,2.2,0,0,1-2.2-2.2v-1.267a.671.671,0,1,1,1.341,0v1.267a.855.855,0,0,0,.854.855h3.562a.855.855,0,0,0,.854-.855v-1.267a.671.671,0,1,1,1.341,0v1.267A2.2,2.2,0,0,1,804.572,1299.505Z" fill="#fff"/>
        <path id="Path_1941" data-name="Path 1941" d="M808.525,1296.712H797.541a2.547,2.547,0,0,1-2.544-2.544v-8.125a.671.671,0,0,1,.67-.671h14.247a.672.672,0,0,1,.671.671v8.609A2.062,2.062,0,0,1,808.525,1296.712Zm-12.187-10v7.454a1.2,1.2,0,0,0,1.2,1.2h10.984a.72.72,0,0,0,.718-.719v-7.938Z" fill="#fff"/>
        <path id="Path_1942" data-name="Path 1942" d="M809.254,1286.714H796.328a.665.665,0,0,1-.281-.062c-.109-.051-2.681-1.3-3.61-6.951a28.618,28.618,0,0,0-3.692-10.271c-.083-.136-.162-.266-.238-.386a29.975,29.975,0,0,0-1.955-2.8,20.887,20.887,0,0,1-4.5-12.943,20.744,20.744,0,0,1,41.476-.66,21.107,21.107,0,0,1-4.34,13.542,42.247,42.247,0,0,0-2.665,3.759c-.142.233-.291.48-.444.738a21.968,21.968,0,0,0-2.833,8.36c-.831,6.215-3.589,7.556-3.706,7.61A.673.673,0,0,1,809.254,1286.714Zm-12.741-1.342H809.07c.452-.31,2.213-1.8,2.843-6.507a23.3,23.3,0,0,1,3.008-8.868c.156-.263.308-.515.453-.752a43.416,43.416,0,0,1,2.749-3.881,19.758,19.758,0,0,0,4.06-12.68,19.4,19.4,0,0,0-38.794.619,19.537,19.537,0,0,0,4.214,12.109,31.458,31.458,0,0,1,2.042,2.921c.078.124.16.258.247.4a29.97,29.97,0,0,1,3.869,10.75C794.454,1283.7,796.081,1285.076,796.513,1285.372Z" fill="#fff"/>
        <path id="Path_1943" data-name="Path 1943" d="M809.914,1291.693H795.668a.67.67,0,1,1,0-1.341h14.246a.67.67,0,1,1,0,1.341Z" fill="#fff"/>
        <path id="Path_1944" data-name="Path 1944" d="M801.111,1286.714a.671.671,0,0,1-.667-.6l-.914-9.017-3.306-5.112a.671.671,0,0,1,1.127-.728l3.394,5.247a.683.683,0,0,1,.1.3l.93,9.178a.67.67,0,0,1-.6.735A.519.519,0,0,1,801.111,1286.714Z" fill="#fff"/>
        <path id="Path_1945" data-name="Path 1945" d="M804.573,1286.714a.533.533,0,0,1-.069,0,.67.67,0,0,1-.6-.735l.93-9.178a.67.67,0,0,1,.1-.3l3.395-5.247a.67.67,0,0,1,1.126.728l-3.307,5.112-.914,9.017A.671.671,0,0,1,804.573,1286.714Z" fill="#fff"/>
        <path id="Path_1946" data-name="Path 1946" d="M799.4,1265.5a6.317,6.317,0,0,1-2.654-.608,8.181,8.181,0,0,1-4.59-7.363c0-8.55,9.23-18.064,9.623-18.464a.67.67,0,0,1,.932-.025c.438.4,10.714,9.918,10.714,18.489a8.182,8.182,0,0,1-4.589,7.363,5.843,5.843,0,0,1-6.045-.509A5.756,5.756,0,0,1,799.4,1265.5Zm2.884-25.012c-1.858,2.032-8.786,10.078-8.786,17.041a6.82,6.82,0,0,0,3.81,6.145,4.563,4.563,0,0,0,5.048-.653.67.67,0,0,1,.87,0,4.561,4.561,0,0,0,5.048.653,6.82,6.82,0,0,0,3.81-6.145C812.084,1250.55,804.313,1242.477,802.284,1240.488Z" fill="#fff"/>
        <path id="Path_1947" data-name="Path 1947" d="M802.79,1273.069a.671.671,0,0,1-.638-.464,17.393,17.393,0,0,1-.007-9.255c1.961-6.971,1.215-17.17-.535-23.641a.671.671,0,1,1,1.3-.35c1.743,6.444,2.652,16.813.531,24.355a16.229,16.229,0,0,0-.007,8.478.669.669,0,0,1-.639.877Z" fill="#fff"/>
        <path id="Path_1948" data-name="Path 1948" d="M823.893,1241.153l5.65-2.69Z" fill="#fff"/>
        <path id="Path_1949" data-name="Path 1949" d="M823.894,1241.824a.671.671,0,0,1-.289-1.276l5.65-2.69a.671.671,0,1,1,.577,1.211l-5.651,2.69A.671.671,0,0,1,823.894,1241.824Z" fill="#fff"/>
        <path id="Path_1950" data-name="Path 1950" d="M826.786,1252.289h0Z" fill="#fff"/>
        <path id="Path_1951" data-name="Path 1951" d="M830.559,1252.96h-3.773a.67.67,0,1,1,0-1.341h3.773a.67.67,0,1,1,0,1.341Z" fill="#fff"/>
        <path id="Path_1952" data-name="Path 1952" d="M816.132,1232.867l2.123-3.12Z" fill="#fff"/>
        <path id="Path_1953" data-name="Path 1953" d="M816.132,1233.537a.661.661,0,0,1-.377-.116.671.671,0,0,1-.178-.932l2.123-3.119a.671.671,0,1,1,1.109.754l-2.122,3.12A.67.67,0,0,1,816.132,1233.537Z" fill="#fff"/>
        <path id="Path_1954" data-name="Path 1954" d="M781.689,1241.153l-5.651-2.69Z" fill="#fff"/>
        <path id="Path_1955" data-name="Path 1955" d="M781.689,1241.824a.672.672,0,0,1-.288-.065l-5.651-2.69a.671.671,0,1,1,.577-1.211l5.65,2.69a.67.67,0,0,1-.288,1.276Z" fill="#fff"/>
        <path id="Path_1956" data-name="Path 1956" d="M778.8,1252.289h0Z" fill="#fff"/>
        <path id="Path_1957" data-name="Path 1957" d="M778.8,1252.96h-3.774a.67.67,0,1,1,0-1.341H778.8a.67.67,0,1,1,0,1.341Z" fill="#fff"/>
        <path id="Path_1958" data-name="Path 1958" d="M789.45,1232.867l-2.123-3.12Z" fill="#fff"/>
        <path id="Path_1959" data-name="Path 1959" d="M789.451,1233.537a.667.667,0,0,1-.555-.293l-2.123-3.12a.671.671,0,1,1,1.109-.754l2.123,3.119a.67.67,0,0,1-.554,1.048Z" fill="#fff"/>
        <path id="Path_1960" data-name="Path 1960" d="M803.108,1229.617v0Z" fill="#fff"/>
        <path id="Path_1961" data-name="Path 1961" d="M803.108,1230.288a.672.672,0,0,1-.671-.671v-3.3a.671.671,0,0,1,1.342,0v3.3A.672.672,0,0,1,803.108,1230.288Z" fill="#fff"/>
      </g>
    </g>
  </g>
</svg>
