<svg xmlns="http://www.w3.org/2000/svg" width="575.715" height="655.126" viewBox="0 0 575.715 655.126">
  <g id="map-oportunidades-inovacao" transform="translate(-571.603 -744.774)">
    <g id="Group_1100" data-name="Group 1100">
      <path id="Path_5260" data-name="Path 5260" d="M755.868,1384.483l-5.3-4.4-4.408-5.276-2.648-6.606L740,1356.3l-3.52-6.607-2.648-2.646-2.2-1.315h-4.852l-15.872,1.315,1.76,32.162-25.56,3.074-33.06,2.2-14.54.444h-7.056l-12.78-1.759-10.148-1.759-.872-.444H608.2l-14.984-4.4-14.556-6.163-3.964-3.533L571.6,1372.6l5.3,3.961,11.908,3.074,3.52.887,7.056,3.961,5.281,1.331,10.591,1.759,14.984,2.646,9.688,1.754,7.056.881,8.816,3.083,10.148,3.964,19.836-1.762,13.653-.881,16.76-1.762,24.688-2.2,24.244-1.321v-.441l-.444-.44Z" fill="#426aa8"/>
      <path id="Path_5261" data-name="Path 5261" d="M799.182,1338.011l-14.984.887-9.7.872-7.484.443-15.428,1.315-10.148.887-1.76.887-.888.428v2.2l1.775,2.646,1.76,3.533,2.2,4.833,3.076,7.937,1.776,4.848,2.2,4.4,2.2,2.63,3.964,3.976,4.408,3.961,3.076,1.315,1.775.887,2.633-.443,3.092-.444h2.648l5.28.444,6.612-.444,8.816-.444,4.852-.428h5.3l3.52-.443,5.3-7.494-8.372-39.64Z" fill="#426aa8"/>
      <path id="Path_5262" data-name="Path 5262" d="M842.492,1254.572v-3.533l-1.332-11.883-.429-10.568-12.8,1.759-26,2.646-9.26.872-4.408.444-3.52.444-23.356,2.646-18.964,2.2-5.724.872-1.76.887L731.848,1244l-2.648,3.961-1.316,2.646v4.4L729.2,1269.1l32.616-3.074,2.648,36.551h3.218l3.092,35.679,40.545-3.961-.024-.247,8.27-.64,10.148-1.315,5.28-2.2,3.536-2.2,5.724-4.4,2.648-3.533v-8.365l-3.092-42.729Z" fill="#426aa8"/>
      <path id="Path_5263" data-name="Path 5263" d="M730.153,1279.862,692.8,1282.7l.424,6.189,5.3,56.891,10.178-1.208-.045-.467,24.087-2.331-2.607-26.455,3.254-.262Z" fill="#426aa8"/>
      <path id="Path_5264" data-name="Path 5264" d="M1119.754,1061.678l-7.928-4.848-25.576-4.848-70.528.444-42.749,7.922-29.1,12.77-34.82,14.987L872.9,1099.544l-.444,1.331-10.132,11.883-21.168,7.937-16.3,11.883,7.484,9.7,1.332,2.2.872,2.2,1.332,2.646,1.316,4.4,1.332,3.961.429,3.961.444,3.533,1.76,21.135,89.048-6.607,3.964,46.232.888,7.479,1.76,21.594,4.852,54.613.444,8.809,5.724-3.533,33.948-21.579,19.836-9.252,13.653-8.366L1036,1258.977l8.816-10.568,15.872-19.82,12.78-28.17,9.7-32.162,5.281-13.214,28.652-58.573,6.168-22.466-.428-6.163Z" fill="#426aa8"/>
      <path id="Path_5265" data-name="Path 5265" d="M1080.635,893.25l28.652-1.315V880.48l.444-10.567V855.368l-.888-1.315-1.316-1.315-.888-.444h-25.116l-.888.444-.444.428.444,19.392V893.25Z" fill="#426aa8"/>
      <path id="Path_5266" data-name="Path 5266" d="M1125.235,955.157v-89.42l-2.648,1.835-2.648,1.33-2.648,2.646-1.837,1.835-2.633,3.518-.444,2.2.444,48.006V932.4l.429,26.87.444,3.961,3.092,5.8,2.648,3.518.872,2.2.444,1.835.444,12.342,5.28,3.426-1.316-36.995Z" fill="#426aa8"/>
      <path id="Path_5267" data-name="Path 5267" d="M1146.89,820.078l-5.3-39.2-1.837-17.159-2.2-17.618-14.035-.882v0l-7.056-.444-19.836,1.774-17.632,2.63-18.948,7.494-13.668,10.552-20.28,14.987-10.576,7.478-13.668,6.163-7.928,5.291h-5.3l-4.408-1.774-6.168-.428-8.372-.887L954.253,796.3l-19.392.872-19.392,3.976-13.224,5.276-14.112,10.14-14.54,12.326-15,19.82-22.04,16.3-14.54,3.961-29.54,8.365-18.5,3.089-11.02,2.63-9.26.444H719.312l-9.7-1.315-5.724-2.2-7.944.872-3.076,2.2-1.776,4.4-2.2,5.735-3.52,7.479-1.76,13.213,2.2,7.937,5.724,11.883,3.536,6.179,5.28,7.478,12.352,12.77,7.041,7.05,11.02,10.568,6.184,5.291,7.928,7.05,7.056,5.276,14.984,7.937,12.336,6.163,6.184,3.518,6.168,3.976,14.1,10.568,3.98,6.163,3.076,8.365,3.536,10.568,1.76,9.253,1.316,4.4.888.887,4.852,3.961,6.168,4.4h1.316l18.964,6.607,7.928.887L875.8,1081.7l7.041-2.2,17.632-4.848,14.112-3.517,6.168-1.759,8.372-3.089,5.74-3.074,6.168-3.976,12.78-9.681,11.908-5.291V994.5l.872-104.836H1002.3l.444-23.781V845.19h91.681l22.04-.444H1120l1.76,1.315,1.316,1.331.811,2.012v9.06l.444,9.7.444.443h.872l2.648-3.089,3.092-3.074,2.648-2.2,2.2-1.835,1.316-.887.888-.443h7.041l.888-17.174.949-8.809Z" fill="#426aa8"/>
    </g>
    <g id="Group_1435" data-name="Group 1435" transform="translate(8.33 -7.674)">
      <g id="Group_1430" data-name="Group 1430">
        <path id="Path_14245" data-name="Path 14245" d="M1016.031,1165.344l7.211-.07.115-2.594s1.9-4.035,2.94-4.727c3.087-2.058,3.032-5.72,2.845-7.968a9.876,9.876,0,0,0-9.129-8.346c-6.556-.531-10.463,6.846-9.973,10.319a12.272,12.272,0,0,0,4.093,7.148C1015.538,1160.417,1015.937,1165.156,1016.031,1165.344Z" fill="#41c5a9"/>
        <path id="Path_14246" data-name="Path 14246" d="M993.949,1163.691l-11.473,7.6-.259,25.651,12.892,1.9,11.732-1.887-.259-25.667Z" fill="#41c5a9"/>
        <path id="Path_14247" data-name="Path 14247" d="M1018.094,1195.642a.584.584,0,0,0-.671-.475l-2.89.493v-14.806a.581.581,0,0,0-.272-.492l-7.419-4.617v-3.967a.575.575,0,0,0-.259-.482l-11.474-7.6v-4.917a.58.58,0,1,0-1.16,0v4.916l-11.473,7.605a.577.577,0,0,0-.258.483v3.968l-7.366,4.616a.581.581,0,0,0-.271.492v14.635L972,1195.03a.559.559,0,0,0-.437.1.536.536,0,0,0-.241.366.552.552,0,0,0,.1.434.541.541,0,0,0,.367.242l3.264.581a.571.571,0,0,0,.295-.039l.141-.055.113.1a.561.561,0,0,0,.265.144l6.878,1.328.017.006,11.674,1.866a.757.757,0,0,0,.19,0l11.725-1.881,11.267-1.911a.58.58,0,0,0,.475-.669Zm-35.876,1.3-6.13-1.181-.131.006-.323,0,.091-.369a.389.389,0,0,0,.015-.068v-14.164l6.478-4.06Zm11.731,1.9-10.571-1.695V1172.09l10.571-7.007Zm11.733-1.695-10.573,1.7v-33.767l10.573,7.008Zm7.691-1.3-6.531,1.1v-19.852l6.531,4.066Z" fill="#fff"/>
        <g id="Group_1429" data-name="Group 1429">
          <path id="Path_14248" data-name="Path 14248" d="M1009.453,1151.195a10.146,10.146,0,0,0,3.3,7.482,7.925,7.925,0,0,1,2.615,5.825v.776a5,5,0,0,1,.36,4.366,2.018,2.018,0,0,0,2.016,2.017h3.683a2.019,2.019,0,0,0,2.017-2.017,1.989,1.989,0,0,1,1.03-2.875,2,2,0,0,0-.671-1.491v-.767a8.21,8.21,0,0,1,2.742-5.95,10.134,10.134,0,0,0-6.87-17.5h-.09a10.14,10.14,0,0,0-10.137,10.138Zm11.979,19.308h-3.683a.859.859,0,0,1,0-1.717h3.683a.859.859,0,1,1,0,1.717Zm1.03-2.875h-5.742a.859.859,0,1,1,0-1.718h5.742a.859.859,0,1,1,0,1.718Zm-2.872-25.413h.08a9.159,9.159,0,0,1,8.9,8.757,8.985,8.985,0,0,1-2.812,6.746,9.353,9.353,0,0,0-3.1,6.792v.241h-2.48v-8.815c1.769-.274,3.117-1.707,3.117-2.923a.579.579,0,0,0-1.158,0,2.679,2.679,0,0,1-5.077,0,.579.579,0,0,0-1.158,0c0,1.211,1.389,2.653,3.118,2.924v8.814h-2.481v-.25a9.084,9.084,0,0,0-2.993-6.68,8.977,8.977,0,0,1,6.052-15.607Z" fill="#fff"/>
          <path id="Path_14249" data-name="Path 14249" d="M1020.17,1137.658v-2.082a.579.579,0,1,0-1.158,0v2.082a.579.579,0,0,0,1.158,0Z" fill="#fff"/>
          <path id="Path_14250" data-name="Path 14250" d="M1031.11,1138.927a.578.578,0,0,0-.819,0l-1.6,1.6a.579.579,0,0,0,.819.819l1.6-1.6A.578.578,0,0,0,1031.11,1138.927Z" fill="#fff"/>
          <path id="Path_14251" data-name="Path 14251" d="M1008.072,1161.964a.577.577,0,0,0,.818,0l1.6-1.6a.579.579,0,0,0-.818-.819l-1.6,1.6A.576.576,0,0,0,1008.072,1161.964Z" fill="#fff"/>
          <path id="Path_14252" data-name="Path 14252" d="M1033.221,1151.024h2.081a.579.579,0,0,0,0-1.158h-2.081a.579.579,0,0,0,0,1.158Z" fill="#fff"/>
          <path id="Path_14253" data-name="Path 14253" d="M1005.961,1149.866h-2.081a.579.579,0,0,0,0,1.158h2.081a.579.579,0,0,0,0-1.158Z" fill="#fff"/>
          <path id="Path_14254" data-name="Path 14254" d="M1029.512,1159.548a.579.579,0,0,0-.819.819l1.6,1.6a.579.579,0,1,0,.819-.818Z" fill="#fff"/>
          <path id="Path_14255" data-name="Path 14255" d="M1008.89,1138.927a.578.578,0,0,0-.818.818l1.6,1.6a.579.579,0,1,0,.818-.819Z" fill="#fff"/>
        </g>
      </g>
      <g id="Group_1432" data-name="Group 1432">
        <path id="Path_14256" data-name="Path 14256" d="M816.914,1280.93l7.211-.069.115-2.594s1.9-4.035,2.94-4.727c3.087-2.058,3.032-5.72,2.845-7.968a9.875,9.875,0,0,0-9.129-8.346c-6.555-.531-10.463,6.846-9.973,10.319a12.278,12.278,0,0,0,4.093,7.148C816.421,1276,816.82,1280.743,816.914,1280.93Z" fill="#41c5a9"/>
        <path id="Path_14257" data-name="Path 14257" d="M794.832,1279.277l-11.473,7.6-.259,25.651,12.892,1.9,11.732-1.887-.259-25.667Z" fill="#41c5a9"/>
        <path id="Path_14258" data-name="Path 14258" d="M818.977,1311.229a.584.584,0,0,0-.671-.475l-2.89.493v-14.806a.581.581,0,0,0-.272-.492l-7.419-4.617v-3.967a.575.575,0,0,0-.259-.482l-11.473-7.605v-4.918a.581.581,0,0,0-1.161,0v4.917l-11.472,7.6a.578.578,0,0,0-.259.483v3.968l-7.365,4.616a.58.58,0,0,0-.272.492v14.635l-2.577-.459a.557.557,0,0,0-.436.1.538.538,0,0,0-.242.366.552.552,0,0,0,.1.434.546.546,0,0,0,.367.242l3.264.581a.57.57,0,0,0,.295-.039l.141-.055.114.1a.553.553,0,0,0,.264.144l6.878,1.327.017.007,11.675,1.866a.749.749,0,0,0,.189,0l11.726-1.881L818.5,1311.9a.58.58,0,0,0,.475-.669Zm-35.876,1.3-6.13-1.181-.131.006-.323,0,.091-.369a.315.315,0,0,0,.015-.068v-14.164l6.478-4.06Zm11.731,1.9-10.571-1.7v-25.064l10.571-7.007Zm11.733-1.7-10.572,1.7V1280.67l10.572,7.008Zm7.691-1.3-6.531,1.105V1292.7l6.531,4.066Z" fill="#fff"/>
        <g id="Group_1431" data-name="Group 1431">
          <path id="Path_14259" data-name="Path 14259" d="M810.336,1266.782a10.146,10.146,0,0,0,3.3,7.482,7.926,7.926,0,0,1,2.616,5.825v.776a4.991,4.991,0,0,1,.359,4.366,2.019,2.019,0,0,0,2.017,2.017h3.682a2.019,2.019,0,0,0,2.017-2.017,1.985,1.985,0,0,0-.274-.995,2,2,0,0,0,.633-3.371v-.767a8.21,8.21,0,0,1,2.742-5.95,10.133,10.133,0,0,0-6.869-17.5h-.091a10.14,10.14,0,0,0-10.137,10.138Zm11.979,19.308h-3.682a.858.858,0,1,1,0-1.717h3.682a.858.858,0,1,1,0,1.717Zm1.03-2.875H817.6a.859.859,0,0,1,0-1.718h5.742a.859.859,0,1,1,0,1.718Zm-2.872-25.413h.08a9.161,9.161,0,0,1,8.9,8.757,8.985,8.985,0,0,1-2.813,6.746,9.352,9.352,0,0,0-3.1,6.792v.241h-2.481v-8.815c1.77-.274,3.118-1.707,3.118-2.923a.579.579,0,0,0-1.158,0,2.68,2.68,0,0,1-5.078,0,.579.579,0,0,0-1.158,0c0,1.211,1.389,2.653,3.118,2.924v8.814h-2.481v-.25a9.08,9.08,0,0,0-2.993-6.68,8.977,8.977,0,0,1,6.052-15.607Z" fill="#fff"/>
          <path id="Path_14260" data-name="Path 14260" d="M821.053,1253.244v-2.081a.579.579,0,0,0-1.158,0v2.081a.579.579,0,0,0,1.158,0Z" fill="#fff"/>
          <path id="Path_14261" data-name="Path 14261" d="M831.993,1254.513a.579.579,0,0,0-.818,0l-1.6,1.6a.579.579,0,0,0,.818.819l1.6-1.6A.579.579,0,0,0,831.993,1254.513Z" fill="#fff"/>
          <path id="Path_14262" data-name="Path 14262" d="M808.955,1277.551a.577.577,0,0,0,.818,0l1.6-1.6a.579.579,0,1,0-.818-.819l-1.6,1.6A.578.578,0,0,0,808.955,1277.551Z" fill="#fff"/>
          <path id="Path_14263" data-name="Path 14263" d="M834.1,1266.611h2.081a.579.579,0,0,0,0-1.158H834.1a.579.579,0,1,0,0,1.158Z" fill="#fff"/>
          <path id="Path_14264" data-name="Path 14264" d="M806.844,1265.453h-2.081a.579.579,0,1,0,0,1.158h2.081a.579.579,0,0,0,0-1.158Z" fill="#fff"/>
          <path id="Path_14265" data-name="Path 14265" d="M830.4,1275.135a.579.579,0,0,0-.818.819l1.6,1.6a.578.578,0,0,0,.818-.818Z" fill="#fff"/>
          <path id="Path_14266" data-name="Path 14266" d="M809.773,1254.513a.579.579,0,0,0-.818.819l1.6,1.6a.579.579,0,0,0,.818-.819Z" fill="#fff"/>
        </g>
      </g>
      <g id="Group_1434" data-name="Group 1434">
        <path id="Path_14267" data-name="Path 14267" d="M887.653,954.166l7.211-.069.115-2.594s1.9-4.035,2.94-4.727c3.087-2.058,3.032-5.721,2.845-7.968a9.874,9.874,0,0,0-9.128-8.347c-6.556-.53-10.464,6.847-9.973,10.319a12.267,12.267,0,0,0,4.093,7.149C887.16,949.24,887.559,953.979,887.653,954.166Z" fill="#41c5a9"/>
        <path id="Path_14268" data-name="Path 14268" d="M865.571,952.513l-11.473,7.6-.259,25.651,12.892,1.9,11.732-1.887-.259-25.667Z" fill="#41c5a9"/>
        <path id="Path_14269" data-name="Path 14269" d="M889.716,984.464a.584.584,0,0,0-.671-.474l-2.89.493V969.676a.579.579,0,0,0-.272-.491l-7.419-4.617V960.6a.575.575,0,0,0-.259-.482l-11.473-7.605V947.6a.581.581,0,0,0-1.161,0v4.917l-11.472,7.6a.578.578,0,0,0-.259.483v3.968l-7.365,4.616a.578.578,0,0,0-.272.491v14.636l-2.577-.459a.557.557,0,0,0-.436.1.535.535,0,0,0-.242.366.592.592,0,0,0,.464.676l3.264.581a.58.58,0,0,0,.295-.039l.141-.055.114.1a.573.573,0,0,0,.264.145l6.878,1.327.017.007,11.675,1.865a.666.666,0,0,0,.189,0l11.726-1.881,11.266-1.911a.572.572,0,0,0,.376-.235A.581.581,0,0,0,889.716,984.464Zm-35.876,1.3-6.13-1.182-.131.006-.323.005.091-.369a.329.329,0,0,0,.015-.068V970l6.478-4.059Zm11.731,1.9L855,985.977V960.912l10.571-7.006Zm11.733-1.694-10.572,1.7V953.906l10.572,7.007Zm7.691-1.3-6.531,1.1V965.934L884.995,970Z" fill="#fff"/>
        <g id="Group_1433" data-name="Group 1433">
          <path id="Path_14270" data-name="Path 14270" d="M881.076,940.018a10.148,10.148,0,0,0,3.3,7.482A7.926,7.926,0,0,1,887,953.325v.776a4.99,4.99,0,0,1,.359,4.366,2.02,2.02,0,0,0,2.017,2.017h3.683a2.019,2.019,0,0,0,2.016-2.017,1.992,1.992,0,0,0-.273-.995,2,2,0,0,0,.632-3.371v-.768a8.212,8.212,0,0,1,2.742-5.95,10.133,10.133,0,0,0-6.869-17.5h-.091a10.137,10.137,0,0,0-10.136,10.138Zm11.979,19.308h-3.683a.859.859,0,0,1,0-1.718h3.683a.859.859,0,0,1,0,1.718Zm1.029-2.875h-5.742a.859.859,0,0,1,0-1.718h5.742a.859.859,0,1,1,0,1.718Zm-2.872-25.413h.08a9.161,9.161,0,0,1,8.9,8.758,8.98,8.98,0,0,1-2.813,6.745,9.354,9.354,0,0,0-3.1,6.792v.242h-2.481V944.76c1.77-.274,3.118-1.707,3.118-2.924a.579.579,0,0,0-1.158,0,2.68,2.68,0,0,1-5.078,0,.578.578,0,0,0-1.157,0c0,1.212,1.388,2.654,3.117,2.925v8.814h-2.48v-.25a9.084,9.084,0,0,0-2.994-6.681,8.976,8.976,0,0,1,6.052-15.606Z" fill="#fff"/>
          <path id="Path_14271" data-name="Path 14271" d="M891.792,926.48V924.4a.579.579,0,0,0-1.158,0v2.081a.579.579,0,1,0,1.158,0Z" fill="#fff"/>
          <path id="Path_14272" data-name="Path 14272" d="M902.732,927.749a.578.578,0,0,0-.818,0l-1.6,1.6a.578.578,0,1,0,.818.818l1.6-1.6A.579.579,0,0,0,902.732,927.749Z" fill="#fff"/>
          <path id="Path_14273" data-name="Path 14273" d="M879.694,950.787a.579.579,0,0,0,.818,0l1.6-1.6a.578.578,0,0,0-.818-.818l-1.6,1.6A.579.579,0,0,0,879.694,950.787Z" fill="#fff"/>
          <path id="Path_14274" data-name="Path 14274" d="M904.843,939.847h2.081a.579.579,0,0,0,0-1.158h-2.081a.579.579,0,1,0,0,1.158Z" fill="#fff"/>
          <path id="Path_14275" data-name="Path 14275" d="M877.583,938.689H875.5a.579.579,0,1,0,0,1.158h2.081a.579.579,0,0,0,0-1.158Z" fill="#fff"/>
          <path id="Path_14276" data-name="Path 14276" d="M901.134,948.371a.578.578,0,0,0-.818.818l1.6,1.6a.579.579,0,0,0,.818-.819Z" fill="#fff"/>
          <path id="Path_14277" data-name="Path 14277" d="M880.512,927.749a.579.579,0,0,0-.818.819l1.6,1.6a.578.578,0,0,0,.818-.818Z" fill="#fff"/>
        </g>
      </g>
    </g>
  </g>
</svg>
