<svg id="icon-facebook" xmlns="http://www.w3.org/2000/svg" width="16.071" height="30.784" viewBox="0 0 16.071 30.784">
  <path id="Path_39" data-name="Path 39" d="M407.794,118.792c.955-.033,1.905-.008,2.863-.01h.393v-4.961c-.508-.051-1.043-.123-1.574-.149-.978-.044-1.959-.092-2.94-.072a7.218,7.218,0,0,0-4.142,1.281,6.211,6.211,0,0,0-2.493,4.142,14.4,14.4,0,0,0-.172,2.131c-.028,1.112-.005,2.224-.005,3.338v.419h-4.745v5.541h4.72v13.927h5.767v-13.9h4.7c.244-1.844.478-3.669.727-5.569h-1.058c-1.338.008-4.409,0-4.409,0s.013-2.745.046-3.936C405.518,119.336,406.487,118.838,407.794,118.792Z" transform="translate(-394.978 -113.595)" fill="#fff"/>
</svg>
