<svg id="icon-insta" xmlns="http://www.w3.org/2000/svg" width="31.981" height="31.981" viewBox="0 0 31.981 31.981">
  <g id="Group_33" data-name="Group 33">
    <g id="Group_31" data-name="Group 31">
      <path id="Path_33" data-name="Path 33" d="M541.011,146.5H522.719a6.854,6.854,0,0,1-6.846-6.846V121.359a6.851,6.851,0,0,1,6.846-6.843h18.292a6.849,6.849,0,0,1,6.843,6.843v18.293A6.851,6.851,0,0,1,541.011,146.5ZM522.719,118.25a3.114,3.114,0,0,0-3.112,3.11v18.293a3.117,3.117,0,0,0,3.112,3.112h18.292a3.114,3.114,0,0,0,3.109-3.112V121.359a3.112,3.112,0,0,0-3.109-3.11Z" transform="translate(-515.873 -114.516)" fill="#fff"/>
    </g>
    <g id="Group_32" data-name="Group 32" transform="translate(7.156 7.156)">
      <path id="Path_34" data-name="Path 34" d="M527.5,134.972a8.834,8.834,0,1,1,8.835-8.836A8.847,8.847,0,0,1,527.5,134.972Zm0-13.935a5.1,5.1,0,1,0,5.1,5.1A5.106,5.106,0,0,0,527.5,121.037Z" transform="translate(-518.66 -117.303)" fill="#fff"/>
    </g>
    <path id="Path_35" data-name="Path 35" d="M528.185,118.38a1.591,1.591,0,1,1-1.592-1.589A1.593,1.593,0,0,1,528.185,118.38Z" transform="translate(-501.56 -110.949)" fill="#fff"/>
  </g>
</svg>
