<svg id="icon-whatsapp" xmlns="http://www.w3.org/2000/svg" width="31.811" height="31.981" viewBox="0 0 31.811 31.981">
  <g id="Group_29" data-name="Group 29">
    <path id="Path_31" data-name="Path 31" d="M484.827,143.627c.179-.692.334-1.294.5-1.893.525-1.921,1.064-3.836,1.563-5.765a1.38,1.38,0,0,0-.094-.922,15.855,15.855,0,1,1,6.852,6.673,1.584,1.584,0,0,0-.977-.1C488.468,142.67,485.674,143.458,484.827,143.627Zm3.694-3.643c1.579-.413,3.034-.777,4.477-1.18a1.292,1.292,0,0,1,1.085.155,12.981,12.981,0,0,0,8.781,1.659,13.256,13.256,0,1,0-13.659-6.7,2.766,2.766,0,0,1,.3,2.519C489.107,137.552,488.862,138.716,488.521,139.984Z" transform="translate(-484.827 -111.646)" fill="#fff"/>
    <path id="Path_32" data-name="Path 32" d="M500.89,130.771c-3.1-.112-8.028-2.558-11.406-8.425a4.764,4.764,0,0,1,.731-6.095,2.208,2.208,0,0,1,2.037-.3c.171.026.35.289.438.484.448,1.022.893,2.049,1.284,3.1.208.558-.173,1.077-.975,2a.683.683,0,0,0-.108.9,10.8,10.8,0,0,0,5.5,4.725.657.657,0,0,0,.834-.226c1.268-1.543,1.4-1.994,2.063-1.679,3.2,1.534,3.453,1.6,3.468,1.96A3.491,3.491,0,0,1,500.89,130.771Z" transform="translate(-480.803 -107.301)" fill="#fff"/>
  </g>
</svg>
