<svg xmlns="http://www.w3.org/2000/svg" xmlns:xlink="http://www.w3.org/1999/xlink" width="2077.416" height="896.839" viewBox="0 0 2077.416 896.839">
  <defs>
    <clipPath id="clip-path">
      <rect id="Rectangle_61" data-name="Rectangle 61" width="1558.179" height="876.475" fill="none"/>
    </clipPath>
    <clipPath id="clip-path-2">
      <rect id="Rectangle_60" data-name="Rectangle 60" width="1558.124" height="877.471" fill="none"/>
    </clipPath>
    <clipPath id="clip-path-3">
      <rect id="Rectangle_57" data-name="Rectangle 57" width="1555.11" height="874.911" fill="none"/>
    </clipPath>
  </defs>
  <g id="map-paralax-regiao" transform="translate(53.014 -2045.191)">
    <path id="Path_14235" data-name="Path 14235" d="M12.172,35.6,93.917-91.809,534,0V805H0L12.172,107.228Z" transform="translate(1490.402 2137)" fill="#426aa8"/>
    <g id="Group_1221" data-name="Group 1221" transform="translate(-53.014 2065.555)">
      <g id="Group_1201" data-name="Group 1201" transform="translate(0)">
        <g id="Group_1200" data-name="Group 1200" clip-path="url(#clip-path)">
          <g id="Group_1199" data-name="Group 1199" transform="translate(0 -0.021)">
            <g id="Group_1198" data-name="Group 1198" clip-path="url(#clip-path-2)">
              <g id="Group_1192" data-name="Group 1192" transform="translate(1.831 1.837)">
                <g id="Group_1191" data-name="Group 1191" transform="translate(0)" clip-path="url(#clip-path-3)">
                  <path id="Path_5950" data-name="Path 5950" d="M898.48,1267.6a23.213,23.213,0,0,1-11.3,4.9c-4.714,1.06-39.308,7-31.171-7.123,2.411-4.123,11.28-9.242,15.5-11.715a15.325,15.325,0,0,1,8.589-2.258C887.157,1251.969,906.423,1259.711,898.48,1267.6ZM687.192,1424.037c-.365,1.936,0,3.69,0,5.652a4.158,4.158,0,0,1-7.491,2.452,10.926,10.926,0,0,1-1.873-4.826,14.931,14.931,0,0,0-1.593-4.958c-1.227-1.962-8.891,1.577-10.333,1.989a94.8,94.8,0,0,1-12.206,2.761c-3.293.516-7.319.619-9.342-2.039a7.049,7.049,0,0,1,.215-7.9,30.254,30.254,0,0,1,6.157-5.809,43.9,43.9,0,0,0,11.237-14.223,41.824,41.824,0,0,0,3.25-8.674c.71-2.71.366-5.73,3.788-6.171,3.165,1.886,6.76,2.273,9.989,3.848a13.876,13.876,0,0,1,6.974,7.745,11.819,11.819,0,0,1,.624,5.472,26.957,26.957,0,0,0-.9,4.519c0,2.374-.646,3.355-2.992,3.51-3.078.181-7.255,1.11-6.458,5.032.28,1.448,2.217,2.583,3.337,1.5a4.168,4.168,0,0,0,2.454,5.161c1.292.594,3.659-.335,4.736.49C687.859,1420.4,687.408,1422.824,687.192,1424.037Zm879.443-661.442-68.219,104.568a25.583,25.583,0,0,1,10.914,11.42c3.552,8.517-.258,14.217-5.554,20.367-3.273,3.764-4.78,8.625-8.116,12.238a29.4,29.4,0,0,0-5.7,6.732,14.486,14.486,0,0,0,0,8.345,24.972,24.972,0,0,0,3.379,8.129c1.593,2.581,4.435,4.172,6.179,6.689,2.325,3.377.172,6.13-.258,9.764-.323,2.71-.732,5.463-.883,8.195a65.117,65.117,0,0,0,1.98,18.367c2.066,9.227,4.585,18.518,6.372,27.809,1.335,6.947,2.584,15.958-3.853,20.862a38.885,38.885,0,0,1-7.75,4.129c-6.178,2.925-10.807,7.743-16.446,11.464a93.968,93.968,0,0,1-19.138,9.656,165.188,165.188,0,0,1-16.123,5.162c-5.166,1.419-11.173,2.065-16.253,4-10.333,3.936-20.989,7.484-31.236,11.871a160,160,0,0,0-27.834,14.195c-9.214,6.366-14.165,15.013-21.656,22.733l-12.594,12.9c-3.422,3.505-7.3,9.57-12.249,10.861a40.572,40.572,0,0,0-4.047.839c-4.262,1.591-4.692,10.194-5.769,13.894a33.707,33.707,0,0,0-.732,10.689,61.118,61.118,0,0,0,1.529,11.528,12.509,12.509,0,0,0,14.294,10.409,3.423,3.423,0,0,1,.452-.086c5.166-.86,2.173,5.915,0,7.742-3.66,3.442-8.267,4.345-11.711,8.152a94.273,94.273,0,0,0-10.1,13.721c-1.506,2.58-2.927,5.377-1.851,8.044a10.118,10.118,0,0,0,2.325,3.14c1.292,1.333,4.822,7.4.366,6.883a7.276,7.276,0,0,1-3.4-1.979c-11.172-9.249-24.519-6.087-37.8-6.84q-22.8-1.227-45.659-1.957a193.394,193.394,0,0,0-37.953,2.344c-5.4.9-10.849,1.613-16.166,2.709a130.724,130.724,0,0,1-18.341,1.226c-7.6.538-15.22.968-22.84,1.463a66.875,66.875,0,0,1-13.907.365,33.266,33.266,0,0,1-10.332-3.055,16.152,16.152,0,0,1-2.39-1.354l-12.185,1.871-.366.344a32.174,32.174,0,0,1-4.37,4.021c-3.466,2.388-8.18,1.979-12.141,2.581-5.6.968-11.194,2.452-16.748,3.678l-34.487,7.614a22.849,22.849,0,0,1-8.524.774c-4.155-.71-5.576-3.334-8.245-6.044a34.77,34.77,0,0,0-8.115-5.764,25.644,25.644,0,0,0-7.75-2.344,17.271,17.271,0,0,1-6.738-4.109,33.463,33.463,0,0,0-9.041-6.753,17.975,17.975,0,0,0-9.752-1.011,8.917,8.917,0,0,1-3.767.365c-.8-.236-1.528-1.118-1.206-1.914.3-.8,1.507-1.162,1.744-2.044a1.41,1.41,0,0,0-.969-1.592,2.62,2.62,0,0,0-2,.323,17.98,17.98,0,0,0-1.615,1.248c-3.272,2.58-8.718,3.183-12.636,3.785a52.341,52.341,0,0,0-13.455,2.752c-2.238.99-7,3.871-6.135,6.9a3.1,3.1,0,0,1-1.615,2.216,2.019,2.019,0,0,1-2.239,0c-1.141-.9-4.865-3.4-5.9-.861-2.088,5.161-6.393,11.528-12.787,11.141-1.464,0-3.164-.43-4.262.581-1.077.989-1.012,2.022-1.959,2.58-.948.538-2.369,0-3.509-.473-1.873-.818-2.949,0-4.607.645a38.3,38.3,0,0,1-15.177,3.828,58.339,58.339,0,0,0-6.974.559c-.926,0-4,.882-4.844.236-4.09-3.076-8.525-5.484-12.593-8.538a21.3,21.3,0,0,0-5.813-3.484c-3.875-1.376-6.78.559-10.117,2.344a40.523,40.523,0,0,1-12.507,4.3c-7.75,1.355-16.921-2.108-21.1,6.71a30.824,30.824,0,0,0-2.131,8.194c-1.012,5.936-2.131,11.844-3.165,17.731-.387,2.168-.193,5.7,2.455,6.219,3.4.672,5.166-4.517,6.8-6.219,4.241-4.209,8.762,3.355,10.85,6.271a26.4,26.4,0,0,0,6.565,7c4.177,2.709,10.182-1.885,9.9,5.161-.259,6.351-8.482,14.122-14.66,15.232-2.433.464-5.7-1.729-8.18-2.194-6.265-1.136-13.864,1.238-19.7-1.809a26.507,26.507,0,0,1-5.446-4.1l.258,6.789c-2.346,3.02-6.479,3.768-9.515,5.885a4.716,4.716,0,0,1-2.109.981,2.193,2.193,0,0,1-2.367-1.729c-.173-1.136.387-2.374-.194-3.433-1.163-2.039-3.81-.62-5.576-1.342-1.787-.723-1.916-1.858-2.842-3.047a3.323,3.323,0,0,0-3.6-.929,8.731,8.731,0,0,0-3.315,2.093,103.237,103.237,0,0,1-8.438,7.355,84.68,84.68,0,0,1-15.328,8.054,9.031,9.031,0,0,0-3.379,2.323c-1.679,2.2,0,3.9,1.077,5.835a3.687,3.687,0,0,1-.9,4.232,12.936,12.936,0,0,1-14.423,5.009c-1.034-.413-1.98-.955-3.014-1.316a4.6,4.6,0,0,0-3.207,0c-2.024.774-1.959,3.587-2.368,5.368a28.933,28.933,0,0,1-3.207,8.105,12.376,12.376,0,0,1-8.525,6.068,9.277,9.277,0,0,1-5.9-1.342,29.893,29.893,0,0,0-3.617-2.583c-2.734-1.265-5.381,1.187-7.19,3.021a21.589,21.589,0,0,0-3.165,4.207,7.8,7.8,0,0,1-5.618,4.415l-9.687,16.364a42.854,42.854,0,0,1,3.036,4.209c2.066,3.51,1.378,7.562,1.636,11.435s-.452,9.448-4.844,10.094c-3.229.49-5.425-1.471-8.718,0-2.454,1.084-4.779,2.58-7.427,1.832l-7.449-1.652-4.736-6.661-8.589-1.29-20.214-3.3-32.936-1.783-34.9,12.444-10.333,6.426c-.387.542-.753,1.084-1.163,1.6a76.565,76.565,0,0,0-6.049,8.8,24.135,24.135,0,0,0-2,3.719,12.413,12.413,0,0,0,0,4.542c0,2.865-3.659,5.164-5.769,6.429a22.677,22.677,0,0,1-5.167,2.374,10.077,10.077,0,0,0-4.8,2.22,16.134,16.134,0,0,1-3.014,2.712c-2.26,1.316-4.93.594-7.147,1.988a2.1,2.1,0,0,1-2.024.386,1.518,1.518,0,0,1-.538-1.91c.646-1.705,2.778-2.918,3.079-4.829s-2.346-2.994-4.09-3.664l-7.319,4.62-3.982,3.228c-.237.7-.387,1.651-1.1,2.064a1.447,1.447,0,0,1-1.486,0l-290.04,233.308a29.287,29.287,0,0,1-8.527,12.725c-6.122,5.805-9.973,5.7-16.122,7.1l-4.626,3.721a2.119,2.119,0,0,1-.672,1.032l-30.23,44.864-26.561,6.581-19.585,27.744-29.2,90.653-.181,41.078-12.4,41.509,1603.916,321.833,37.048-1339.745Z" transform="translate(-3.797 -603.537)" fill="#426aa8"/>
                </g>
              </g>
              <path id="Path_5951" data-name="Path 5951" d="M1616.908,979.612l-14.358,11.442-8.87,7.076a65.47,65.47,0,0,1-20.666,12.065c-9.385,2.9-14.6-.861-21.957-6.215l.559.9c-1.141-1.807-10.075-3.119-12.12-3.849a39.739,39.739,0,0,1-13.54-6.883c-4.392-3.935-6.329-12.689-13.476-12.646-6.437,0-15.737,1.828-21.1,5.57-2.863,2.409-7.491,2.581-11.151,2.581a7.336,7.336,0,0,1-6.823-4.646c-.625-2.387,1.377-6.99-3.724-6.517l-1.227.624,1.227-.624c-2.583-1.484-10.484,3.957-11.776,0l-.624-.6c-.754-1.85-3.1-2.043-4.349-3.1-1.851-1.161-3.638-.3-5.576,0-5.166.559-8.74,5.721-12.916,8.431a24.528,24.528,0,0,1-16.812,3.7,17.958,17.958,0,0,0,1.808-.365,111.524,111.524,0,0,0-13.648,10.56,6.264,6.264,0,0,1-5.575,4.323,17.483,17.483,0,0,0-12.357-4.344,18.036,18.036,0,0,0-5.166,2.108c-5.166,2.731-10.333,6.086-15.629,8.345-4.435,1.828-9.278,2.194-13.928,3.72-10.526,3.485-20.106,9.249-30.138,13.851q-18.535,8.518-37.113,17.055c-11.13,5.162-22.818,9.592-33.087,16.3-5.619,3.656-11.8,9.2-18.083,11.485-1.894.689-5.037,0-6.479,1.721-1.7,2.173.774,5.161-1.937,7.334s-8.331,1.807-11.431,2.581a119.59,119.59,0,0,0-25.832,9.2c-8.482,4.151-16.468,9.291-25.015,13.248-11.452,5.333-23.7,8.56-35.261,13.528-12.615,5.463-20.386,14.173-31.021,22.26a46.166,46.166,0,0,0-10.548,10.323,26.417,26.417,0,0,1-7.471,6.065,29.686,29.686,0,0,1-11.84,5.484c-6.35.947-8.762,4.043-14.272,6.775-9.451,4.689-13.583-3.871-21.937-6.194-5.49-1.526-6.909,3.7-11.516,5.893-3.337,1.592-4.155,5.291-7.211,6.668-4.112,1.807-5.834-2.172-8.74-4.087,0-3.291-7.362-3.7-8.675-7.441-3.207-1.2-12.421-6.581-11.323-10.065.732-2.237,4.887-2.774,4.5-5.914-.3-2.71-5.167-2.581-7.428-1.4-3.035,3.269-8.46,2.6-12.4,4.366,1.1,2.43,4.047,2.022,3.917,4.732-.237,4.9-7.513,4.989-10.678,4.6-9.235-1.161-17.587-.71-25.358,5.162-1.873,1.376-3.6,3.011-5.6,4.258-5.166,3.248-11.667,3.334-17.63,2.71a62,62,0,0,0-24.886,3.656c-5.166,1.656-10.592,6.022-15.951,5.807-2.907,0-5.727-.946-8.654-1.1-8.159-.451-11.969,8.023-13.584,14.689a7.05,7.05,0,0,1-4.908,4.3,135.766,135.766,0,0,0-15.112,7.592c-5.489,2.817-6.76,6.194-9.9,11.227a55.362,55.362,0,0,1-7.749,9.979c-2,2-4.263,3.549-6.416,5.355s-2.8,3.591-4.606,4.989c-2.8,2.13-4.586,1.033-8.073.452-5.424-.882-8.4,3.161-13.088,4.474-4.672,1.312-9.816,0-14.531,1.484a8.01,8.01,0,0,0-5.812,6.409c0,.193-7.944-.258-8.632-.151a9.542,9.542,0,0,0-6.136,3.85c-4.026,6.387-10.333,10.581-16.511,14.862-2.928,2.065-16.791,10.538-12.12,15.2-3.789,2.8-8.073,7.184-12.508,8.646-4.413,1.484-9.644.387-14.143,2.581a59.429,59.429,0,0,0-8.266,5.527l-4.693,3.589a62.345,62.345,0,0,0-9.838,8.674,25.622,25.622,0,0,0-5.4,17.707c0,3.77,1.679,8.957-.775,12.314s-7.169,1.781-10.527,4.052a5.806,5.806,0,0,0-1.981,8.009v.02a7.508,7.508,0,0,0,6.781,1.781c7.384-.852,12.443-5.345,19.095-7.9l7.749-2.994c4.736-1.807,10.829-4.958,15.995-4.8s10.074,3.486,15.629,2.273a8.282,8.282,0,0,1,4.478-.258c2.367.878,2.992,3.974,4.822,5.755a12.982,12.982,0,0,0,6.479,2.581,7.745,7.745,0,0,1,5.769,3.641" transform="translate(-119.296 -641.498)" fill="none" stroke="#0c2b5c" stroke-linejoin="round" stroke-width="1.856"/>
              <path id="Path_5952" data-name="Path 5952" d="M818.456,1525.807a15.932,15.932,0,0,0,2.346,1.138" transform="translate(-151.377 -745.239)" fill="none" stroke="#a0a09f" stroke-linejoin="bevel" stroke-width="3.182"/>
              <path id="Path_5953" data-name="Path 5953" d="M827.274,1529.148c.948.329,1.916.707,2.842,1.135a14.037,14.037,0,0,1,6.975,7.745,11.813,11.813,0,0,1,.6,5.472,26.965,26.965,0,0,0-.9,4.519c0,2.375-.646,3.356-2.992,3.51-2.842.181-6.63.981-6.566,4.207" transform="translate(-153.027 -745.868)" fill="none" stroke="#a0a09f" stroke-linejoin="bevel" stroke-width="3.182" stroke-dasharray="3.119 3.119"/>
              <path id="Path_5954" data-name="Path 5954" d="M828.5,1564.789a1.955,1.955,0,0,0,2.411,0,3.168,3.168,0,0,0,0,2.58" transform="translate(-153.267 -752.571)" fill="none" stroke="#a0a09f" stroke-linejoin="bevel" stroke-width="3.182"/>
              <path id="Path_5955" data-name="Path 5955" d="M827.14,1563.715c1.163,0,2.411-.258,3.122.284,1.162.929.581,3.2.365,4.415-.365,1.936,0,3.69,0,5.652a4.159,4.159,0,0,1-7.491,2.452,10.926,10.926,0,0,1-1.873-4.826,14.93,14.93,0,0,0-1.593-4.958c-1.227-1.962-8.891,1.577-10.333,1.989a94.8,94.8,0,0,1-12.206,2.761c-3.293.516-7.319.619-9.342-2.039a7.049,7.049,0,0,1,.215-7.9,30.248,30.248,0,0,1,6.157-5.809,43.9,43.9,0,0,0,11.237-14.223,41.823,41.823,0,0,0,3.25-8.674c.237-.878.344-1.781.516-2.581" transform="translate(-145.401 -746.077)" fill="none" stroke="#a0a09f" stroke-linejoin="bevel" stroke-width="3.182" stroke-dasharray="3.294 3.294"/>
              <path id="Path_5956" data-name="Path 5956" d="M815.645,1526.919a3.544,3.544,0,0,1,2.282-1.112" transform="translate(-150.848 -745.239)" fill="none" stroke="#a0a09f" stroke-linejoin="bevel" stroke-width="3.182"/>
              <path id="Path_5957" data-name="Path 5957" d="M950.372,1431.191a9.313,9.313,0,0,1-1.9,1.781" transform="translate(-175.831 -727.445)" fill="none" stroke="#a0a09f" stroke-linejoin="bevel" stroke-width="3.182"/>
              <g id="Group_1194" data-name="Group 1194" transform="translate(1.831 1.837)">
                <g id="Group_1193" data-name="Group 1193" transform="translate(0)" clip-path="url(#clip-path-3)">
                  <path id="Path_5958" data-name="Path 5958" d="M854.253,1434.517a19.087,19.087,0,0,0-3.057,1.677,4.718,4.718,0,0,1-2.11.981,2.159,2.159,0,0,1-2.346-1.729c-.193-1.136.388-2.374-.215-3.433-1.162-2.039-3.788-.619-5.576-1.342s-1.915-1.858-2.841-3.047a3.324,3.324,0,0,0-3.6-.929,8.891,8.891,0,0,0-3.315,2.092,103.069,103.069,0,0,1-8.439,7.355,83.964,83.964,0,0,1-15.327,8.054,9.033,9.033,0,0,0-3.38,2.323c-1.679,2.2,0,3.9,1.077,5.835a3.621,3.621,0,0,1-.9,4.233A12.914,12.914,0,0,1,789.8,1461.6c-1.033-.413-1.98-.955-3.013-1.316a4.573,4.573,0,0,0-3.208,0c-2,.774-1.959,3.587-2.368,5.368a28.284,28.284,0,0,1-3.207,8.106,12.374,12.374,0,0,1-8.524,6.068,9.292,9.292,0,0,1-5.9-1.342,29.988,29.988,0,0,0-3.616-2.583c-2.734-1.264-5.36,1.188-7.169,3.022a21.694,21.694,0,0,0-3.186,4.207,7.446,7.446,0,0,1-6.05,4.466c-1.786,0-3.573-.439-5.382-.258-6.307.62-6.63,12.289-4.09,16.212.99,1.574,2.325,2.942,3.25,4.57,2.066,3.51,1.4,7.562,1.658,11.435s-.474,9.448-4.865,10.094c-3.229.49-5.425-1.471-8.719,0-2.756,1.213-5.339,2.967-8.4,1.5a14.08,14.08,0,0,1-4.714-4.441,20.536,20.536,0,0,0-4.478-4.7c-3.788-2.426-9.45-.181-13.734-1.651-.646-.232-23.68-3.383-24.24-3.8a93.6,93.6,0,0,0-10.57-1.781,53.059,53.059,0,0,0-7,.129,42.115,42.115,0,0,0-7.211.955c-3.315.826-6.673,1.6-9.88,2.583a58.988,58.988,0,0,0-5.576,2.04c-1.83.748-9.279,3.587-10.161,3.948-3.422,1.342-7,2.349-10.548,3.487a14.426,14.426,0,0,0-7.061,4.232c-1.464,1.729-2.583,3.665-4,5.42a73.943,73.943,0,0,0-6.049,8.8,22.5,22.5,0,0,0-2.024,3.719,13.41,13.41,0,0,0,0,4.542c0,2.867-3.637,5.165-5.769,6.429a22.232,22.232,0,0,1-5.167,2.374,10.085,10.085,0,0,0-4.8,2.22,16.723,16.723,0,0,1-2.992,2.712c-2.282,1.317-4.93.594-7.169,1.988a2.074,2.074,0,0,1-2,.387,1.517,1.517,0,0,1-.538-1.91c.646-1.706,2.756-2.919,3.057-4.828.323-1.91-3.53-3.562-4.951-3.974a7.759,7.759,0,0,0-7.75,1.677,5.312,5.312,0,0,0-1.1,2.348c-.344,1.445-1.12,2.581-1.593,4.055-.215.723-.387,1.729-1.077,2.142-.71.412-1.937-.361-2.885-.826a4.3,4.3,0,0,0-2.583-.258,41.084,41.084,0,0,0-11.474,3.716,207.278,207.278,0,0,0-23.551,11.771c-8.891,4.595-20.967,12.056-29.772,17.348a62.522,62.522,0,0,0-5.92,3.949" transform="translate(-88 -728.4)" fill="none" stroke="#a0a09f" stroke-linejoin="bevel" stroke-width="3.182" stroke-dasharray="3.198 3.198"/>
                </g>
              </g>
              <g id="Group_1196" data-name="Group 1196" transform="translate(1.831 1.837)">
                <g id="Group_1195" data-name="Group 1195" transform="translate(0)" clip-path="url(#clip-path-3)">
                  <path id="Path_5959" data-name="Path 5959" d="M-734.245,815.539c-2.583-5.162-6.372-12.926-.6-17.314,2.583-2.022,6.2-2.581,9.171-4.043,5.015-2.581,7.749-8.087,10.333-13.162,3.315-6.9,4.951-12.6,11.839-15.958,5.167-2.581,15.026-1.936,17.072-9.119a32.028,32.028,0,0,0,.624-9.292c-.537-2.58-2.583-3.248-3.1-6.215a52.646,52.646,0,0,1-.624-7.119,36.912,36.912,0,0,1,1.248-6.818c.173-.731,1.12-2.581,1.077-2.946-.237-1.269-2.023-2.022-2.325-3.248-1.443-5.635,3.767-14.3,5.576-19.205a27.315,27.315,0,0,1,14.788-15.185,21.394,21.394,0,0,0,6.05-7.57,46.784,46.784,0,0,1,5.64-9.678,46.664,46.664,0,0,1,2.885-4.753,25.9,25.9,0,0,1,5.575-4.022c4.736-2.581,5.963-7.549,8.675-12.69a57.682,57.682,0,0,1,3.875-5.161c1.765-2.581,1.83-4.3,4.5-6.366,10.72-8.323,25.832-5.355,36.746-10.065a54.044,54.044,0,0,0,11.624-7.893c5.576-4.409,6.329-10.947,8.675-17.507a160.228,160.228,0,0,1,9.106-20.862c1.658-3.119,3.466-7.42,7.1-8.517a8.9,8.9,0,0,0,4.155-3.441,24.563,24.563,0,0,1,4.478-3.548c1.679-1.248,1.485-1.506,3.724-1.85,1.507-.236,2.841.3,4.176-.472a183.075,183.075,0,0,1,30.418-13.894,45.343,45.343,0,0,0,16.727-8.947c3.25-3.119,5.36-10.517,9.45-12.625,1.486-.774,3.315,0,5.166-.624,1.83-.624,4.134-2.43,6.5-3.1,1.443-.409,2.433,0,3.724-.624s1.529-1.463,2.584-1.85c4.09-1.634,6.092,2,9.924,2.581,4.37.538,5.015,5.162,7.922,7.334a26.675,26.675,0,0,0,12.442,5.161c13.088,2.71,26.306,5.076,39.438,7.872q19.891,4.259,40.126,6.539c17.4,1.7,40.68,3.011,57.628-1.548a41.612,41.612,0,0,1,13.359-2.409c8.578.516,9.767,9.592,16.586,13.377a28.534,28.534,0,0,0,17,2.86c2.4-.344,12.686,13.722,12.479,17.012a49.118,49.118,0,0,0,3.412,24.023,94.806,94.806,0,0,1,4.366,10.324,36.888,36.888,0,0,0,4.03,9.85,14.675,14.675,0,0,0,8.14,4.452,7.974,7.974,0,0,0,5.685.215,23.332,23.332,0,0,0,5.166-3.334,27.323,27.323,0,0,0,6.823-9.506c1.524-3.162,3.409-6.194,4.884-9.42,1.266-2.774,1.137-6.344,3.281-8.689a8.066,8.066,0,0,1,7.984-1.828,16.207,16.207,0,0,1,7.75,4.021c2.069,2.581,2.585,7.57,3.024,10.625a79.5,79.5,0,0,1,.956,20.841c-.49,5.785-2.583,10.968,1.292,16.216a25.6,25.6,0,0,0,9.431,6.754,7.337,7.337,0,0,0,2.816,1.011c2.3.172,3.85-2.366,4.522-4.259a15.479,15.479,0,0,0,.362-7.076c-.982-7.743-3.928-15.206-2.584-22.8a21,21,0,0,1,2.739-7.549c1.706-2.752,2.584-3.463,2.429-6.8-.8-11.291,21.29-10,27.827-9.958,6.02,0,12.919,1.355,18.6-.215,3.565-.989,5.838-3.978,10.077-4.624,4.856-.71,9.87,1.291,14.8.71,3.774-.451,7.261-2.129,10.981-2.9a46.026,46.026,0,0,1,9.249-.624h11.524c4.419,0,4.419,2.581,7.752,4.581,3.332,1.979,11.962,1.14,12.117-3.591,0-2.581,16.821,10.323,32.454,3.462,5.166-2.215,20.67-7.1,23.254-4.8,3.229,2.968,8.94.667,10.9-3.269,3.306-6.516-1.679-12.711.129-18.819,1.162-3.806,12.686-5.161,16.123-5.614a27.441,27.441,0,0,1,20.955,5.979A56.93,56.93,0,0,0,78.206,571c7.082,4.9,7.082-.989,11.065-3.957a44.821,44.821,0,0,1,14.53-7.29c2.584-.8,7.125-3.377,9.73-2.581,2.6.818,4.758,4.172,6.179,6.56.473.8,2.023,2.817,1.679,3.785-.345.947-2.584,1.119-3.337,2.323-2.713,5.161,8.783,10.625,12.12,12.323a98.961,98.961,0,0,1,9.515,5.162,46,46,0,0,1,8.654,7.419c1.593,1.785,3.056,3.656,4.52,5.549a28.623,28.623,0,0,1,5.167,8.152c.537,1.7-.237,2.8-.775,4.323a24.864,24.864,0,0,1-1.679,4.9,18.985,18.985,0,0,1-2.325,2.753,23.158,23.158,0,0,0-5.317,11.313,47.893,47.893,0,0,0-.732,6.323V641.2c0,1.656.624,3.29.732,4.946.129,2.409-.667,4.732-.517,7.14a12.6,12.6,0,0,0,.173,3.248c.451,1.248,1.894,1.785,2.927,2.409,2.584,1.613,4.93,3.635,7.428,5.441a32.164,32.164,0,0,0,5.166,2.925A61.486,61.486,0,0,0,170.556,670a7.77,7.77,0,0,1,4.65,3.4c1.357,2.043.624,4.3.861,6.624a20.541,20.541,0,0,0,1.227,3.57c.323.5.3.538.624,1.1.344.538,1.808.538,1.873.6.43,1.226-.6,2.065-.71,3.076" transform="translate(139.496 -557.806)" fill="none" stroke="#a0a09f" stroke-linejoin="bevel" stroke-width="3.182" stroke-dasharray="3.182 3.182"/>
                </g>
              </g>
              <path id="Path_5960" data-name="Path 5960" d="M393.312,729.828a19.523,19.523,0,0,0,2.282,1.226,9.075,9.075,0,0,0-1.185,2.28" transform="translate(-71.419 -595.537)" fill="none" stroke="#a0a09f" stroke-linejoin="bevel" stroke-width="3.182"/>
              <path id="Path_5961" data-name="Path 5961" d="M392.148,738.622A3.8,3.8,0,0,1,392,741.2a6.243,6.243,0,0,0-.861,2.387,13.97,13.97,0,0,1,.215,1.914c0,.732-.559.968-.99,1.505-.409.559-.8,1.591-1.314,2.3a5.2,5.2,0,0,1-5.963,1.484c-1.206-.451-3.207-1.85-4.5-1.011a2.833,2.833,0,0,0-1.012,1.785,24.953,24.953,0,0,0-1.335,5.463,9.184,9.184,0,0,1-1.593,5.161,17.968,17.968,0,0,1-2.26,2.345c-1.27,1.269-2.863,2.28-4.026,3.656a3.244,3.244,0,0,0-.9,2.151c0,1.893,1.981,3.14,2.217,5.161a5.788,5.788,0,0,1-.667,3.183c-1.421,2.818-4.327,5.162-4.2,8.711a8.253,8.253,0,0,0,2.584,5.57,10.991,10.991,0,0,0,2.583,1.871c.9.43,3.767.43,3.9,1.764a2.6,2.6,0,0,1-.344,1.2c-.861,1.85,1.206,2.581,2.3,3.656a22.036,22.036,0,0,0,3.229,2.581c.818.537,1.98.473,2.584,1.183a3.47,3.47,0,0,1,.775,3.076,25.167,25.167,0,0,0-1.442,5.161,17.633,17.633,0,0,0,.947,6.065,39.213,39.213,0,0,1,1.12,4.495c.194,1.441-.172,2.9,0,4.3.215.968.991,1.4,1.765,1.872,1.378.839,4.607,1.612,3.036,3.785-.991,1.333-2.842,2.43-2.95,4.237,0,1.183.624,1.72,1.185,2.581a8.108,8.108,0,0,1,1.1,3.42c.387,2.925,1.119,7.29,3.53,9.355s3.81,1.054,4.671,4.366c2,7.484,7.557,13.765,11.861,20.13a13.63,13.63,0,0,1,3.036,7.227c0,2.58-1.981,4-2.821,6.3-1.162,3.076.969,4.882,3.681,5.828a32.378,32.378,0,0,0,12.357.9,18.022,18.022,0,0,0,8.094-2.581c7.879-4.323,17.007-14.044,26.22-7.269,9.236,6.754,13.046-4.56,19.116-1.14a8.344,8.344,0,0,1,3.358,5.528,13.949,13.949,0,0,0,2.584,6.086c4.478,4.882,13.778,0,18.75,4.388,16.533,14.538-8.137,45.358-16.252,58.091-5.77,9.011-10.979,18.776-12.077,29.422-.8,7.743,2.734,14.969,6.221,21.829" transform="translate(-66.058 -597.191)" fill="none" stroke="#a0a09f" stroke-linejoin="bevel" stroke-width="3.182" stroke-dasharray="3.214 3.214"/>
              <path id="Path_5962" data-name="Path 5962" d="M507.833,1079.165c.388.774.775,1.549,1.142,2.323-.345-.71-1.142-.322-2.131.624" transform="translate(-92.771 -661.238)" fill="none" stroke="#a0a09f" stroke-linejoin="bevel" stroke-width="3.182"/>
              <path id="Path_5963" data-name="Path 5963" d="M500.668,1087.774a22.918,22.918,0,0,0-3.079,5.657c-.494,4.431,2.433,8.839,4.09,12.689,4.069,9.593,5.748,14.346-3.466,22.088-9.88,8.323-9.041,22.023-2.971,32.562C504.994,1177.7,531,1188,547.037,1198.213c3.207,2.065,1.141,14.3,0,17.034-3.358,8.99-14.983,8.43-8.137,18.948,4.521,6.968,13.174,8.172,15.5,16.732,2.821,10.474-1.1,23.572,16.468,18.883,10.2-2.752,18.987-4.731,29.579-3.118,9.536,1.505,18.836,5.183,27.964-.129,4.327-2.581,9.257-12.087,15.026-10.754,4.177.947,2.885,7.054,6.157,8.474,5.661,2.452,36.51-18.54,33.259-25.831-3.25-7.269-11.409.194-16.467-2.839-6.308-3.764,8.61-17.055,11.452-22.217,2.152-3.936,2.2-10.324,8.373-10.6,3.488-.129,6.136,2.882,8.632,5.355,4.693,4.732,12.185.8,17.846,3.054,6.092,2.43,6.458,9.291,13.153,0a7.5,7.5,0,0,1,5.791-3.85c4.736.215,5.6,7.313,9.687,9.7,2.885,1.742,6.587.624,9.773-.537a68.452,68.452,0,0,0,18.858-9.076c7.233-5.549,15.5-8.883,20.106-16.517,1.7-2.861,4.521-3.571,7.406-4.732L808.138,1182a18.987,18.987,0,0,1,12.657-1.054,8.053,8.053,0,0,0,5.921-.258,54.513,54.513,0,0,1,7-2.817l7.749-1.958c3.574-.925,7.1-1.85,10.657-2.9" transform="translate(-89.739 -662.857)" fill="none" stroke="#a0a09f" stroke-linejoin="bevel" stroke-width="3.182" stroke-dasharray="3.166 3.166"/>
              <line id="Line_515" data-name="Line 515" y1="0.817" x2="2.454" transform="translate(764.833 508.623)" fill="none" stroke="#a0a09f" stroke-linejoin="bevel" stroke-width="3.182"/>
              <path id="Path_5964" data-name="Path 5964" d="M1072.42,1364.637c7.169.559,26.435,8.323,18.492,16.192a23.212,23.212,0,0,1-11.3,4.9c-4.714,1.06-39.308,7-31.171-7.123,2.411-4.123,11.28-9.242,15.5-11.715A15.276,15.276,0,0,1,1072.42,1364.637Z" transform="translate(-194.399 -714.927)" fill="none" stroke="#a0a09f" stroke-linejoin="bevel" stroke-width="3.182" stroke-dasharray="3.182 3.182"/>
              <path id="Path_5965" data-name="Path 5965" d="M1088.038,1226.511a3.128,3.128,0,0,1-1.593,2.216,2.056,2.056,0,0,1-2.26,0c-1.141-.9-4.843-3.4-5.877-.861-2.109,5.162-6.415,11.528-12.808,11.141-1.464,0-3.165-.43-4.263.581-1.077.989-.99,2.022-1.959,2.58-.947.538-2.367,0-3.508-.473-1.873-.818-2.95,0-4.607.645a38.3,38.3,0,0,1-15.155,3.828,57.547,57.547,0,0,0-6.974.56c-.948,0-4,.881-4.865.236-4.09-3.076-8.524-5.484-12.594-8.538a21.3,21.3,0,0,0-5.812-3.484c-3.875-1.376-6.781.559-10.117,2.344a40.321,40.321,0,0,1-12.508,4.3c-7.75,1.355-16.92-2.108-21.074,6.711a30.085,30.085,0,0,0-2.153,8.194c-1.012,5.936-2.109,11.844-3.143,17.731-.409,2.167-.215,5.7,2.454,6.219,3.379.672,5.166-4.516,6.781-6.219,4.241-4.209,8.761,3.355,10.849,6.271a26.766,26.766,0,0,0,6.566,7c4.2,2.709,10.182-1.885,9.9,5.161-.258,6.351-8.482,14.122-14.66,15.232-2.433.464-5.7-1.729-8.18-2.194-6.264-1.136-13.842,1.238-19.7-1.809-5.834-3.046-10.7-10.093-15.65-14.4a33.005,33.005,0,0,0-5.791-4.31,24.8,24.8,0,0,1-4.5-2.583c-3.487-2.891-1.185-8.466,1.442-11.152,3.057-3.149,6.716-3.819,8.912-7.908a30.275,30.275,0,0,0,2.6-13.615c.172-6.8,0-14.194,4.176-19.593a31.213,31.213,0,0,1,4.435-4.323l4.435-3.764c9.558-8.087,24.54-13.1,36.531-14.991,3.509-.58,4.177-5.161,7.147-6.409,5.166-2.3,5.769,4.947,10.677,5.593,2.885.365,5.468-1.678,7.75-3.442,4.2-3.269,8.525-2.752,13.541-2.925a26.844,26.844,0,0,0,16.124-5.549,7.9,7.9,0,0,0,3.6-6.947,30.679,30.679,0,0,1-1.034-4.8c0-2.946,3.078-4.861,5.791-6.044,4.263-1.828,10.333-6.344,11.022-11.377.409-2.581-1.055-3.829-2.583-5.657s-2.325-3.936-3.616-5.807a8.562,8.562,0,0,0-5.167-2.839c-4.306-1.419-8.912-1.376-13.26-2.58a55.6,55.6,0,0,0-11.926-2.968,35.223,35.223,0,0,0-16.339,2.86c-4.3,1.914-9.579,8.087-14.638,6.689-3.207-.882-5.941-3.183-9.214-3.763-3.25-.6-7.965,2.151-11.15.408a8.991,8.991,0,0,1-3.337-4.56c-.732-1.849-1.141-3.806-1.98-5.592-2.842-6.215-8.654-10.323-11.6-16.861-2.239-4.839-3.208-10.883-7.75-14.13-2.584-1.893-12.012-.172-9.3-6.259a6.093,6.093,0,0,1,3.789-3.076,17.59,17.59,0,0,1,4.951-.645c4.714-.172,10.785.624,15.306-.581,3.616-.989,6.888-4.387,9.773-6.646,3.466-2.58,6.5-1.7,10.333-1.57a17.631,17.631,0,0,0,12.766-4.517c4.176-3.592,7.75-8.13,13.067-9.872a27.577,27.577,0,0,1,9.558-.839l17.91.43a65.385,65.385,0,0,0,9.407-.15c6.351-.667,18.6-4.366,22.431-9.872.9-1.29,1.184-2.925,2.11-4.215a18.094,18.094,0,0,1,7.749-4.387,29.887,29.887,0,0,1,9.967-1.979,41.846,41.846,0,0,0,4.37-.151c3.681-.43,6.415-2.752,9.666-4.259,6.071-2.818,12.292-5.29,18.513-7.743,5.167-2.043,10.764-8.087,16.554-5.549a50.974,50.974,0,0,0,5.77,2.817c3.81,1.14,7.75-.451,11.452-2.065a24.663,24.663,0,0,1,17.846-1.548c2.238.688,3.358,2.344,5.446,3.14,2.992,1.162,6.716-.15,9.708-.645a47.666,47.666,0,0,0,11.689-3.807c5.166-2.387,10.333-5.333,15.5-7.764,12.421-5.592,25.681-1.634,38.748,0,2.583.344,5.747.559,5.726,4.021a12.509,12.509,0,0,1-1.55,4.861,6.624,6.624,0,0,0-.624,4.989c3.853,9.764,33.818-15.485,38.49-18.475a346.292,346.292,0,0,1,47.037-23.7c16.726-7.248,32.721-16.087,49.877-22.518a39.6,39.6,0,0,0,7.944-3.355,24.461,24.461,0,0,1,6.587-3.979c2.583-.645,4.779.753,7.513-.343,2.217-.925,4.37-2.022,6.523-3.141,1.636-.839,4.714-1.333,5.424-3.162,1.184-3.1-1.12-7.743-3.6-9.785a7.28,7.28,0,0,0-4.327-1.742c-16.813-.3-7.384-18.582.624-24.819a44.244,44.244,0,0,0,5.877-5.1,6.925,6.925,0,0,0,.215-9.657,12.254,12.254,0,0,1-2.454-4.8c-.517-3.183,2.949-6.022,4.585-8.387A50.408,50.408,0,0,0,1434,888.591a163.163,163.163,0,0,0,5.576-23.249c2.088-10.13,2.389-19.27,9.472-27.228,2.584-2.882,18.319-14.474,11.581-18.238-.732-.43-1.657-.386-2.389-.839-.711-.43-1.033-1.484-1.829-2s-2.369-1.119-3.445-1.936c-5.812-4.6.259-6.668,4.435-8.969a38.487,38.487,0,0,1,26.306-3.613c.818.15,4.693-11.636,5.167-12.711,1.485-3.807,1.98-8.324,4.284-11.786s7.578-6.409,11.259-9.1a4.587,4.587,0,0,1,1.765-.9,3.2,3.2,0,0,1,2.842,1.269,17.266,17.266,0,0,0,4.843,4.99c2.6,1.161,6.028.6,8.718,1.032,8.029,1.269,9.085,12.087,10.031,18.453a112.355,112.355,0,0,1,0,32.239c-.366,2.258,1.12,6.8-.236,8.366-.366.408-.839.774-1.184,1.226-1.722,2,1.227,4.258,2.583,5.549,1.787,1.634,4.521.667,6.652,1.118a65.4,65.4,0,0,1,7.986,3.141l19.2,7.033c3.767,1.4,7.578,2.8,11.216,4.516,2.583,1.2,6.156,3.571,9.041,3.291,2.584-.258,3.724-2.323,6.351-2.58a30.916,30.916,0,0,1,19.223,5.161,7.767,7.767,0,0,0,7.19,1.936c2.734-.732,3.4-2.258,6.436-1.441,6.2,1.634,10.484,4.3,17.2,1.979,4.09-1.4,6.845-3.377,11.172-2.366a43.348,43.348,0,0,1,11.646,4.9,25.936,25.936,0,0,1,11.3,11.635c3.552,8.517-.259,14.217-5.576,20.368-3.25,3.763-4.779,8.624-8.094,12.237a30.055,30.055,0,0,0-5.726,6.732,14.868,14.868,0,0,0,0,8.345,25,25,0,0,0,3.4,8.129c1.593,2.581,4.435,4.172,6.157,6.689,2.324,3.376.193,6.129-.258,9.764-.3,2.709-.71,5.463-.861,8.194a65.189,65.189,0,0,0,1.98,18.367c2.067,9.227,4.564,18.517,6.351,27.809,1.356,6.947,2.583,15.958-3.853,20.861a37.736,37.736,0,0,1-7.75,4.13c-6.157,2.925-10.785,7.743-16.425,11.464a94.537,94.537,0,0,1-19.137,9.656,165.31,165.31,0,0,1-16.124,5.162c-5.166,1.419-11.172,2.064-16.252,4-10.333,3.935-20.989,7.484-31.236,11.872a159.867,159.867,0,0,0-27.834,14.194c-9.236,6.366-14.165,15.012-21.656,22.733l-12.615,12.9c-3.4,3.505-7.276,9.57-12.249,10.861-1.335.344-2.734.365-4.026.839-4.263,1.591-4.693,10.194-5.791,13.894a33.687,33.687,0,0,0-.711,10.689,59.377,59.377,0,0,0,1.528,11.528,12.51,12.51,0,0,0,14.294,10.409,3.359,3.359,0,0,1,.452-.086c5.166-.86,2.175,5.915,0,7.743-3.681,3.441-8.266,4.344-11.71,8.151a94.213,94.213,0,0,0-10.1,13.722c-1.507,2.581-2.928,5.377-1.873,8.044a10.188,10.188,0,0,0,2.346,3.14c1.292,1.333,4.822,7.4.344,6.883a7.316,7.316,0,0,1-3.379-1.979c-11.194-9.249-24.519-6.087-37.8-6.84q-22.829-1.225-45.659-1.957a193.292,193.292,0,0,0-37.952,2.344c-5.4.9-10.85,1.613-16.167,2.71a130.886,130.886,0,0,1-18.34,1.225c-7.6.538-15.22.968-22.861,1.463a66.681,66.681,0,0,1-13.886.365,33.3,33.3,0,0,1-10.333-3.054,17.394,17.394,0,0,1-4.392-2.925,6.471,6.471,0,0,1-1.679-1.914c-.452-1.441,2.153-.366,2.734-.258a1.864,1.864,0,0,0,2.11-1.377c.473-1.871-2-3.333-3.229-4.258a5.441,5.441,0,0,1-2.756-6.194,16.622,16.622,0,0,1,2.367-4.8l14.144-22.11a18.012,18.012,0,0,0,2.368-4.56,5.739,5.739,0,0,0-4.8-7.936,16.167,16.167,0,0,0-5.382.258,80.35,80.35,0,0,0-26.478,9.656,19.994,19.994,0,0,0-9.386,9.4,15.014,15.014,0,0,0,3.81,14.667,42.739,42.739,0,0,0,13.152,8.8c1.637.818,3.531,1.979,3.552,3.807a6.115,6.115,0,0,1-.8,2.581c-1.141,2.58,0,2.86,1.873,4,1.851,1.14-1.141,2.9-2.152,3.936a32.3,32.3,0,0,1-4.371,4.043c-3.465,2.366-8.18,1.958-12.141,2.581-5.619.946-11.194,2.452-16.748,3.656l-34.486,7.613a22.852,22.852,0,0,1-8.526.775c-4.176-.688-5.6-3.334-8.244-6.044a34.044,34.044,0,0,0-8.116-5.742,26.5,26.5,0,0,0-7.75-2.366,17.036,17.036,0,0,1-6.716-3.893,33.465,33.465,0,0,0-9.041-6.753,18,18,0,0,0-9.752-1.011,8.91,8.91,0,0,1-3.767.365c-.8-.236-1.528-1.118-1.206-1.914.3-.8,1.507-1.162,1.744-2.043a1.41,1.41,0,0,0-.969-1.592,2.622,2.622,0,0,0-2,.322,17.935,17.935,0,0,0-1.615,1.248c-3.272,2.58-8.718,3.183-12.636,3.785a52.34,52.34,0,0,0-13.454,2.752c-2.239.99-7,3.871-6.135,6.9" transform="translate(-171.052 -602.718)" fill="none" stroke="#a0a09f" stroke-linejoin="bevel" stroke-width="3.182" stroke-dasharray="3.182 3.182"/>
              <path id="Path_5966" data-name="Path 5966" d="M508.275,1421.2c3.207-.62,5.554,2.71,7.986,1.729s4.8-5.5,7.3-7.278a108.69,108.69,0,0,1,20.451-10.326,135.053,135.053,0,0,1,23.938-8.312A67.359,67.359,0,0,0,588.4,1388a9.967,9.967,0,0,1,3.293-1.393,44.719,44.719,0,0,0,5.36-.671c3.6-1.422,6.415-4.725,10.074-5.551a64.364,64.364,0,0,0,8.654-1.393c2.433-.852,6.157-1.729,9.386-2.761,5.015-1.628,12.916-7.745,17.5-11.619,2.992-2.58,6.135-6.813,9.364-9.342a79.355,79.355,0,0,1,12.164-6.764,181.714,181.714,0,0,0,23.744-13.87,84.2,84.2,0,0,1,19.568-11.765c1.679-.645,3.594-.753,5.4-1.4l1.378-.689c2.067-.882,5.4-4.6,7.621-5.893,2.713-1.57,6.888-3.4,10.074-5.161,5.167-2.947,11.194-6.5,17.136-9.463a101.81,101.81,0,0,0,15.8-9.227c1.765-1.4,3.272-3.485,4.865-4.151.926-.408,2.325.366,3.272,0,1.593-.6,1.507-1.354,2.282-2.086,1.334-1.333,7.125-10.926,9.02-8.323,3.186-1.72,3.983-4.8,5.9-6.947,2.864-3.227,7.75-5.592,11.087-8.3,5.317-4.323,12.916-10.13,19.223-14.883a80.735,80.735,0,0,1,6.781-4.517c1.744-1.076,3.229-2.581,4.865-3.484,3.745-2.216,8.675-4.431,10.742-8.3a11.466,11.466,0,0,1,.345-1.915,13.74,13.74,0,0,0,1.4-1.548,28.888,28.888,0,0,0,2.088-2.753c.947-2.365.365-2.58,2.755-3.484a4.622,4.622,0,0,1,4.156.689l.818-.732c3.122,0,3.7-2.752,6.221-2.752m-.086-.108h.71c1.722,1.054,3.746-.494,5.878-1.4a32.126,32.126,0,0,1,5.92-2.064c5.166-1.119,8.891-3.528,13.885-5.55,1.83-.753.409-1.1,2.238-.688s3.337,1.677,5.382,2.086a11.245,11.245,0,0,0,7.62-1.4,110.081,110.081,0,0,1,15.5-6.947,28.139,28.139,0,0,1,5.748-1.72c1.615,0,4.263.409,5.877.366h7.75a19.709,19.709,0,0,0,4.456-.731,45.308,45.308,0,0,1,9.946-1.1,8.222,8.222,0,0,1,5.166,1.161c3.444,2.409,5.166,4.345,8.675,6.9l.71-.667c.667,1.807,3.9,3.334,5.7,5.011,1.012.925,2.584,1.828,3.293,2.581,1.077,1.312.6,1.914,1.4,3.119a23.466,23.466,0,0,0,2.066,3.1s2.928,2.28,2.433,2.087c1.959.753,6.867.3,7.987-1.377,2.066.731,1.937,3.377,3.465,4.839,1.529,1.484.9,1.527,2.756,2.087a29.1,29.1,0,0,0,4.714.71c2.95-.193,5.167-2.28,8.46-2.086a30.6,30.6,0,0,0,6.265,0c2.087-.237,5.554-.883,7.47.688.538.473.236,1.914.839,2.43.624.516,2.2.194,2.8.688a11.909,11.909,0,0,1,1.377,2.065c.9,1.4.323,1.161,1.723,2.43a19.255,19.255,0,0,1,4,3.463c1.658,2.366,2.023,4.56,4.5,5.549a11.977,11.977,0,0,0,4.543.3c.6,0,1.141.215,1.743.193a10.868,10.868,0,0,1,1.873-.15,9.7,9.7,0,0,1,1.894.6,4,4,0,0,1,1.851,1.677,5.42,5.42,0,0,0,1.034,1.548,4.626,4.626,0,0,0,1.442.581,28.694,28.694,0,0,0,3.961.968,9.941,9.941,0,0,0,1.959,0c.645,0,.71.473,1.033.818a3.661,3.661,0,0,0,3.1,1.1c1.27.215,1.851,1.075,2.8,1.548a9.407,9.407,0,0,0,4.155,1.226c2.066.279,4.349,1.032,6.264,1.4,3.122.558,11.689,3.183,13.843,1.354,1.915,1.506,3.53.129,5.554,0a10.456,10.456,0,0,1,4.865,1.4c2.109.6,4.8.947,6.953,1.4,3.035.58,3.487-.236,6.221-.71,5.661-.968,8.8,2.581,12.486,4.86l7.75,4.861c2.8,1.742,10.979,4.388,11.775,7.613" transform="translate(-93.04 -683.636)" fill="none" stroke="#1a1413" stroke-linejoin="round" stroke-width="3.182"/>
              <path id="Path_5967" data-name="Path 5967" d="M508.275,1421.2c3.207-.62,5.554,2.71,7.986,1.729s4.8-5.5,7.3-7.278a108.69,108.69,0,0,1,20.451-10.326,135.053,135.053,0,0,1,23.938-8.312A67.359,67.359,0,0,0,588.4,1388a9.967,9.967,0,0,1,3.293-1.393,44.719,44.719,0,0,0,5.36-.671c3.6-1.422,6.415-4.725,10.074-5.551a64.364,64.364,0,0,0,8.654-1.393c2.433-.852,6.157-1.729,9.386-2.761,5.015-1.628,12.916-7.745,17.5-11.619,2.992-2.58,6.135-6.813,9.364-9.342a79.355,79.355,0,0,1,12.164-6.764,181.714,181.714,0,0,0,23.744-13.87,84.2,84.2,0,0,1,19.568-11.765c1.679-.645,3.594-.753,5.4-1.4l1.378-.689c2.067-.882,5.4-4.6,7.621-5.893,2.713-1.57,6.888-3.4,10.074-5.161,5.167-2.947,11.194-6.5,17.136-9.463a101.81,101.81,0,0,0,15.8-9.227c1.765-1.4,3.272-3.485,4.865-4.151.926-.408,2.325.366,3.272,0,1.593-.6,1.507-1.354,2.282-2.086,1.334-1.333,7.125-10.926,9.02-8.323,3.186-1.72,3.983-4.8,5.9-6.947,2.864-3.227,7.75-5.592,11.087-8.3,5.317-4.323,12.916-10.13,19.223-14.883a80.735,80.735,0,0,1,6.781-4.517c1.744-1.076,3.229-2.581,4.865-3.484,3.745-2.216,8.675-4.431,10.742-8.3a11.466,11.466,0,0,1,.345-1.915,13.74,13.74,0,0,0,1.4-1.548,28.888,28.888,0,0,0,2.088-2.753c.947-2.365.365-2.58,2.755-3.484a4.622,4.622,0,0,1,4.156.689l.818-.732c3.122,0,3.7-2.752,6.221-2.752m-.086-.108h.71c1.722,1.054,3.746-.494,5.878-1.4a32.126,32.126,0,0,1,5.92-2.064c5.166-1.119,8.891-3.528,13.885-5.55,1.83-.753.409-1.1,2.238-.688s3.337,1.677,5.382,2.086a11.245,11.245,0,0,0,7.62-1.4,110.081,110.081,0,0,1,15.5-6.947,28.139,28.139,0,0,1,5.748-1.72c1.615,0,4.263.409,5.877.366h7.75a19.709,19.709,0,0,0,4.456-.731,45.308,45.308,0,0,1,9.946-1.1,8.222,8.222,0,0,1,5.166,1.161c3.444,2.409,5.166,4.345,8.675,6.9l.71-.667c.667,1.807,3.9,3.334,5.7,5.011,1.012.925,2.584,1.828,3.293,2.581,1.077,1.312.6,1.914,1.4,3.119a23.466,23.466,0,0,0,2.066,3.1s2.928,2.28,2.433,2.087c1.959.753,6.867.3,7.987-1.377,2.066.731,1.937,3.377,3.465,4.839,1.529,1.484.9,1.527,2.756,2.087a29.1,29.1,0,0,0,4.714.71c2.95-.193,5.167-2.28,8.46-2.086a30.6,30.6,0,0,0,6.265,0c2.087-.237,5.554-.883,7.47.688.538.473.236,1.914.839,2.43.624.516,2.2.194,2.8.688a11.909,11.909,0,0,1,1.377,2.065c.9,1.4.323,1.161,1.723,2.43a19.255,19.255,0,0,1,4,3.463c1.658,2.366,2.023,4.56,4.5,5.549a11.977,11.977,0,0,0,4.543.3c.6,0,1.141.215,1.743.193a10.868,10.868,0,0,1,1.873-.15,9.7,9.7,0,0,1,1.894.6,4,4,0,0,1,1.851,1.677,5.42,5.42,0,0,0,1.034,1.548,4.626,4.626,0,0,0,1.442.581,28.694,28.694,0,0,0,3.961.968,9.941,9.941,0,0,0,1.959,0c.645,0,.71.473,1.033.818a3.661,3.661,0,0,0,3.1,1.1c1.27.215,1.851,1.075,2.8,1.548a9.407,9.407,0,0,0,4.155,1.226c2.066.279,4.349,1.032,6.264,1.4,3.122.558,11.689,3.183,13.843,1.354,1.915,1.506,3.53.129,5.554,0a10.456,10.456,0,0,1,4.865,1.4c2.109.6,4.8.947,6.953,1.4,3.035.58,3.487-.236,6.221-.71,5.661-.968,8.8,2.581,12.486,4.86l7.75,4.861c2.8,1.742,10.979,4.388,11.775,7.613" transform="translate(-93.04 -683.636)" fill="none" stroke="#fff" stroke-linejoin="round" stroke-width="1.856"/>
              <g id="Group_1197" data-name="Group 1197" transform="translate(415.235 -30.54)">
                <path id="Path_5968" data-name="Path 5968" d="M854.515,1220.255h2.066v-.688c.689,0,.323.279,2.088-.667v-.709h.689v-.688h1.377m.538,0h.71l.689.688h.689v-.688h.71v-.688h.775l.667-.71H867.6l.71-.688h1.357v-.667h2.087v-.71h3.423l.689-.688h.71l.689-.71h.689l.689-.688h.688v-.689h1.4l.689-.71h1.507l.689-.667h.71l.689-.71h.71l.689-.688h.688v-.688l.689-.71h1.378v.71a18.7,18.7,0,0,0,11.129,2.087v-.71h2.066v-.688c.3-.172.732.6,2.778-1.4h1.378v-.688h1.4l.689-.667h.689l.689-.71h.689l.689-.688h.71l1.4-1.4h1.357v-.753c.387.15,0,0,3.487-.688l.689-.667c.84-.452,1.636,1.118,4.844-1.4a9.273,9.273,0,0,0,4.865,1.4l.688-.709c2.584.343,7.341-1.054,13.175-.688l.711-.71m105.956,46.5v.688l.689.688v1.377h4.177l.688.71h.689l.71.688h.688l.667-.688c.194.172-.194-.237,1.4,1.4h.71v.688h2.067m-17.351-7.635h.71v.688l.688.71.71-.71h.689v.71h-.689v.689h-.71v.688h.71v.688h1.378v-.688h.688l.689-.688M860.586,1217.5h.688m-353,203.647h2.8v.7h2.067l.689.671h.71v.7h1.485l.667-.7v-.671h.71l.689-1.393h.516v-.7l1.4-1.394h.667v-.671h.71v-.7c1.593-.9,1.055-.62,5.554-3.486v-.671a3.594,3.594,0,0,1,2.088-.7v-.7H530.4l.689-.7h1.4l.689-.7h.926l.688-.7h.689l.688-.672h1.4l.71-.7h.667l.689-.7h.711l.688-.7c.323-.413-.366.929,2.777-.7v-.7h.646l.689-.7c0-.258.667.828,3.466-1.367h.688l.711-.7c.323.207.344-.206,2.756-.7.516-.594,2.088-1.781,6.953-2.065l.689-.7a10.654,10.654,0,0,0,4.176-.7v-.7h.538l.667-.7a39.091,39.091,0,0,0,6.952-.7l.689-.7h.71v-.673a8.013,8.013,0,0,0,5.532-2.787h1.378v-.7h.71l1.4-1.367c.861,0,2.066.361,4.155-2.091h2.066v-.7h.689v-.7h4.865l.689-.671h1.378c.237.129.194-1.164,2.8-1.4v-.7h.688a6.612,6.612,0,0,1,4.155-2.065v-.7h.71l.667-.7h5.6v-.7h1.4l.689-.7h2.778v-.7h.689l.71-.7h2.756l.71-.671c.775.361,1.55-.594,4.155-.7v-.7H627.6v-.7h.667a12.21,12.21,0,0,1,3.487-2.761h.71v-.7h.667c0-.387.689-.361,2.777-2.091h.71v-.7h.667l.689-.671h.71c.775-.361-.194-.7,2.756-2.09v-.7h.71a13.755,13.755,0,0,0,1.4-1.37h.689v-.7l5.554-5.549h.6a6.928,6.928,0,0,1,2.088-2.764h.689v-.7c.279-.181.753.593,2.777-1.394h.689v-.62a47.393,47.393,0,0,1,7.621-3.458v-.7h.71l.689-.7h.689l.71-.7h.689c1.679-1.886.194-.18,5.532-3.456a14.194,14.194,0,0,0,6.265-3.462c.3-.172.732.6,2.755-1.4h.689l.71-.688h.689l1.4-1.376h.775l2.088-2.087h.71l1.356-1.4h.711a22.072,22.072,0,0,1,4.844-3.463v-.688h.624c0-.537.559-.129,3.465-2.065h.689v-.709h1.4v-.688c1.012-.15.9.5,2.777-.688v-.688h.689l.689-.667h2.066l.71-.689c.84,0,.8,0,3.487-.71m1.443-.8h.667v-.688h.71c1.119-1.354,2.583-2.129,5.554-4.86h.667v-.689c3.4-.516,3.745-1.742,9.709-4.86h.71v-.667h.732l.71-.711c.28-.171.754.6,2.756-1.376.387,0,1.7,0,3.465-2.065h.71l.689-.71h.689l.71-.689h.624v-.71a68.543,68.543,0,0,0,11.775-6.237h1.4c.818-.774,0-.344,2.756-2.064h.71v-.689H761.5v-.709h.667l1.4-1.4h.689v-.667h.71l.688-.688h.689l.689-.71v-.688h.689v-.71h.689l.84-.688h.689v-.667H773.4l.689-.709h.71v-.688h.688v-.689h.667l.71-.71v-.688h.688v-1.376h.711v-1.4h.689v-1.376l1.378-1.377h.689l.71-.688h.688v-.71h.689v-.688h1.4v.688l.667-.688h.711l2.777-2.774v-.689l.689-.688v-.71l.688-.689v-.753h.689c1.614-2.3,5.769-3.979,10.355-8.323h.688v-.688h.667a14.115,14.115,0,0,0,1.4-1.376h.689v-.688c1.722-1.786,4.628-2.065,9.02-6.947h.71l2.066-2.065h.689a32.009,32.009,0,0,1,4.865-4.151h.689v-.71h.71v-.688h.689l1.378-1.4h1.378l.71-.667h1.227v-.689h.689v-.709l.688-.688h.689v-.71h.71v-.688h1.4v-.688h.688l.667-.688h.71v-.688h.689l.689-.688h.71l.689-.71h1.378v-1.4h.689l.71-.667h.688v-1.4h.711v-.6l.667-.71h.689v-2.752h.71l.689-.71h.689v-2.087h.71l.689-.667v-.839l.667-.688v-1.4l.71-.688h5.554v.688l.883-.5m194.712,24.755-.711-.688.711-.689-.711-.709h-.667v-.689h-.688v-.667h.688v-.646h.667v-.709h-2.755v.709l-.689.689v.667h-.71v.71m99.929,32.519v-.688l-.71-.71h-.689l-2.777-2.065h-.688l-1.4-1.4h-.667l-.71-.689h-.516l-1.378-1.376c-.3-.172-.753.6-2.777-1.4h-1.4v-.451l-.689-.71c-.688,0-.344.3-2.066-.688v-.688h-.689v-.688h-1.4v-.689h-1.4v-.688h-.667c.15-.215-1.765-1.033-4.155-3.463h-.71l-.689-.71h-7.749v.581c-2.26,1.958-6.308-1.807-11.108-1.4v-.688h-.71l-.689-.711h-4.865l-.667.711h-2.691l-.688-.711-.689.711h-2.088v-.711h-4.284l-.688-.688h-2.777l-.689-.667h-3.466l-.71-.71c-3.423.408-2.131-.71-8.31-.688l-.688-.71v-.688l-.754-.8h-.71l-.688-.667h-.689m-117.107-51.9c2.217.408,5.575-.689,9.708-.689v.689h1.378v.688h1.4l1.4,1.4v.667h1.356v.753l.71.71h.689v.688h1.4l.667.688v.71H964a11.891,11.891,0,0,1,1.4,1.355l.71-.667v.667h.688v.71h.689a14.082,14.082,0,0,0,1.378,1.4h.689v.688l.711.689h.688l1.378,1.376h.689l1.4,1.4v.689h.689l.711.71v.688h.689c.323,1.14-.8.989.667,3.462h1.356v1.377h1.4l.689.688v1.4h6.931l1.4-1.4.689.688h.667v1.936h1.4v1.376l.689.689v.71l1.4,1.4a39.27,39.27,0,0,1,7.621.688l.711-.688h.689l.667-.71a24.505,24.505,0,0,1,6.953-.688v.688h2.777l.689-.688c.215.387,1.2-.753,3.465-.71l.689.71h2.8l.667.688h.71v2.065h.689v.71h2.8v.688h.667v1.4h.689v2.065h.71l.689.689h.689v.709h1.378v.689h.688v.71h.711l.688.688v.667h.71v.71l.689.688c0,.947-.215.151.688,2.8h.646v.667h.71v.689h4.155v.709h2.088l.71-.709h.667v.709h.689v-.709" transform="translate(-508.275 -653.046)" fill="none" stroke="#15c7b2" stroke-linecap="round" stroke-linejoin="round" stroke-width="3.055"/>
                <path id="Path_5969" data-name="Path 5969" d="M1058.827,1057.161c16.726-.451-5.167-23.636,28.824-31.4,0-.624.344,1.677,4.349-2.581-2.325-8.624-5.77-15.678-16.748-37.788.129.688-6.114-1.957-1.851-4.345,3.186-4.86,1.443-2.022-3.1-16.109,1.679-1.29,10.872,2.087,12.916-2.581,19.806,2.99,22.173-7.333,46.5-15.485,6.093-.365,13.476-.71,19.849-5.592,4.026-1.893,8.632-5.506,16.123-7.419,4.822-3.571,11.366-2.839,17.373-8.066,9.773-1.828,10.613-12.582,21.7-10.517-.625.989,6.222-2.581,6.824-.624-.473-1.936,1.335-2.28,0-4.968,7.75-9.077-3.917-20.948-10.548-27.895.173,0-2.583,0-.624-1.871-4.349-3.054-3.488-12.9-9.3-14.238-.366.344-.129-1.355-1.249-1.247,3.014,1.075-1.206-29.766-8.051-31.594-8.159-9.442-16.554-12.281-23.572-18.066-1.314-1.377-1.98-1.119-1.851-1.248.839.323-4.844-1.634-1.873-3.7-3.122-5.764-2.906-12.173-2.583-18.087v-1.85c-1.442-.559-1.033-2.581-2.583-3.1,3.013-1.807-.689-2.989,1.248-4.967a4.011,4.011,0,0,0-2.583-6.8c-1.529-3.033-.215-4.086-.625-5.592,2.066-2.237,0-8.753-3.724-12.388v.624c-9.622-12.151-.516,3.893.624-42.777,2.583-9.506-2.584-16.948-1.851-27.873.71-10.925-4.2-10.861-6.824-27.873,7.621-5.161-10.01-1.462-18.082-35.938.3,0-2.131-.581-.624-1.872-1.916-.279-.6-2.387-3.724-4.323,1.249-1.893-5.769-10.13-1.249-17.356v-1.85c-.9.5,2.584-4.473.625-6.818-.129.559,0-4.086-2.583-6.193-1.615-6.087,2.454-15.486,1.872-21.722,3.4-1.742-3.035-2.28-4.972-6.194l3.293-11.248,7.75-7.312V526.816" transform="translate(-611.819 -526.816)" fill="none" stroke="#15c7b2" stroke-linecap="round" stroke-linejoin="round" stroke-width="3.055"/>
              </g>
              <path id="Path_5970" data-name="Path 5970" d="M1152.82,1037.148v-2.58c-.151.8-.323,1.742-.474,2.344l-.688,2.731h-1.163l-.646-2.581a22.21,22.21,0,0,1-.452-2.387,17.3,17.3,0,0,1-.129,2.581v2.58h-1.356l.559-7.743h1.572l.624,2.774c.194.968.388,1.807.538,2.581a11.368,11.368,0,0,1,.5-2.581l.581-2.774h1.55l.473,7.743h-1.227Z" transform="translate(-213.339 -652.385)" fill="#fff"/>
              <line id="Line_516" data-name="Line 516" x1="48.759" y1="47.767" transform="translate(509.049 333.555)" fill="none" stroke="#fff" stroke-width="1.856"/>
            </g>
          </g>
        </g>
      </g>
      <text id="ECOPARQUE_INDUSTRIAL" data-name="ECOPARQUE
INDUSTRIAL" transform="translate(580.333 397.308) rotate(0.202)" fill="#41c5a9" font-size="33" font-family="Urbanist" font-weight="800"><tspan x="0" y="0">ECOPARQUE</tspan><tspan x="0" y="39">INDUSTRIAL</tspan></text>
      <text id="OCEANO_ATLÂNTICO" data-name="OCEANO ATLÂNTICO" transform="translate(1061.769 785.03) rotate(0.202)" fill="#fff" font-size="27" font-family="UrbanistRoman-ExtraBold, Urbanist" font-weight="800"><tspan x="0" y="0">OCEANO ATLÂNTICO</tspan></text>
      <text id="PORTO_DE_SÃO_SEBASTIÃO" data-name="PORTO DE 
SÃO SEBASTIÃO" transform="translate(699.155 785.973) rotate(0.202)" fill="#fff" font-size="11" font-family="UrbanistRoman-Bold, Urbanist" font-weight="700"><tspan x="0" y="0">PORTO DE </tspan><tspan x="0" y="13">SÃO SEBASTIÃO</tspan></text>
      <text id="PORTO_DE_SANTOS" data-name="PORTO
DE SANTOS" transform="translate(519.377 840.549) rotate(0.202)" fill="#fff" font-size="11" font-family="UrbanistRoman-Bold, Urbanist" font-weight="700"><tspan x="0" y="0">PORTO</tspan><tspan x="0" y="13">DE SANTOS</tspan></text>
      <text id="PORTO_DE_ANGRA" data-name="PORTO 
DE ANGRA" transform="translate(852.742 695.756) rotate(0.202)" fill="#fff" font-size="11" font-family="UrbanistRoman-Bold, Urbanist" font-weight="700"><tspan x="0" y="0">PORTO </tspan><tspan x="0" y="13">DE ANGRA</tspan></text>
      <text id="PORTO_DE_ITAGUAÍ" data-name="PORTO 
DE ITAGUAÍ" transform="translate(948.336 659.256) rotate(0.202)" fill="#fff" font-size="11" font-family="UrbanistRoman-Bold, Urbanist" font-weight="700"><tspan x="0" y="0">PORTO </tspan><tspan x="0" y="13">DE ITAGUAÍ</tspan></text>
      <text id="PORTO_DE_FORNO" data-name="PORTO 
DE FORNO" transform="translate(1300.402 649.625) rotate(0.202)" fill="#fff" font-size="11" font-family="UrbanistRoman-Bold, Urbanist" font-weight="700"><tspan x="0" y="0">PORTO </tspan><tspan x="0" y="13">DE FORNO</tspan></text>
      <text id="PORTO_DO_AÇU" data-name="PORTO 
DO AÇU" transform="translate(1489.534 449.834) rotate(0.202)" fill="#fff" font-size="11" font-family="UrbanistRoman-Bold, Urbanist" font-weight="700"><tspan x="0" y="0">PORTO </tspan><tspan x="0" y="13">DO AÇU</tspan></text>
      <text id="RIO_DE_JANEIRO" data-name="RIO DE JANEIRO" transform="translate(1014.811 547.625) rotate(0.202)" fill="#426aa8" font-size="10" font-family="UrbanistRoman-ExtraBold, Urbanist" font-weight="800"><tspan x="0" y="0">RIO DE JANEIRO</tspan></text>
      <text id="MINAS_GERAIS" data-name="MINAS GERAIS" transform="translate(766.302 284.315) rotate(0.202)" fill="#426aa8" font-size="17" font-family="UrbanistRoman-ExtraBold, Urbanist" font-weight="800"><tspan x="0" y="0">MINAS GERAIS</tspan></text>
      <text id="BELO_HORIZONTE" data-name="BELO HORIZONTE" transform="translate(930.839 36.062) rotate(0.202)" fill="#426aa8" font-size="10" font-family="UrbanistRoman-ExtraBold, Urbanist" font-weight="800"><tspan x="0" y="0">BELO HORIZONTE</tspan></text>
      <g id="Group_1202" data-name="Group 1202" transform="translate(1290.316 594.275)">
        <circle id="Ellipse_38" data-name="Ellipse 38" cx="15.571" cy="15.571" r="15.571" fill="#41c5a9"/>
        <circle id="Ellipse_39" data-name="Ellipse 39" cx="7.152" cy="7.152" r="7.152" transform="translate(8.419 8.419)" fill="#fff"/>
      </g>
      <g id="Group_1203" data-name="Group 1203" transform="translate(1488.686 370.56)">
        <circle id="Ellipse_40" data-name="Ellipse 40" cx="15.571" cy="15.571" r="15.571" transform="translate(0 0)" fill="#41c5a9"/>
        <circle id="Ellipse_41" data-name="Ellipse 41" cx="7.152" cy="7.152" r="7.152" transform="translate(8.419 8.419)" fill="#fff"/>
      </g>
      <g id="Group_1204" data-name="Group 1204" transform="translate(1046.049 565.768)">
        <circle id="Ellipse_42" data-name="Ellipse 42" cx="8.251" cy="8.251" r="8.251" fill="#426aa8"/>
      </g>
      <g id="Group_1205" data-name="Group 1205" transform="translate(927.063 1.88)">
        <circle id="Ellipse_43" data-name="Ellipse 43" cx="8.251" cy="8.251" r="8.251" fill="#426aa8"/>
      </g>
      <g id="Group_1206" data-name="Group 1206" transform="translate(945.303 603.957)">
        <circle id="Ellipse_44" data-name="Ellipse 44" cx="15.571" cy="15.571" r="15.571" fill="#41c5a9"/>
        <circle id="Ellipse_45" data-name="Ellipse 45" cx="7.152" cy="7.152" r="7.152" transform="translate(8.419 8.419)" fill="#fff"/>
      </g>
      <g id="Group_1207" data-name="Group 1207" transform="translate(472.797 836.623)">
        <circle id="Ellipse_46" data-name="Ellipse 46" cx="15.571" cy="15.571" r="15.571" fill="#41c5a9"/>
        <circle id="Ellipse_47" data-name="Ellipse 47" cx="7.152" cy="7.152" r="7.152" transform="translate(8.419 8.419)" fill="#fff"/>
      </g>
      <g id="Group_1208" data-name="Group 1208" transform="translate(637.1 781.856)">
        <circle id="Ellipse_48" data-name="Ellipse 48" cx="15.571" cy="15.571" r="15.571" fill="#41c5a9"/>
        <circle id="Ellipse_49" data-name="Ellipse 49" cx="7.152" cy="7.152" r="7.152" transform="translate(8.419 8.419)" fill="#fff"/>
      </g>
      <g id="Group_1209" data-name="Group 1209" transform="translate(847.581 635.808)">
        <circle id="Ellipse_50" data-name="Ellipse 50" cx="15.571" cy="15.571" r="15.571" fill="#41c5a9"/>
        <circle id="Ellipse_51" data-name="Ellipse 51" cx="7.152" cy="7.152" r="7.152" transform="translate(8.419 8.419)" fill="#fff"/>
      </g>
      <text id="SÃO_PAULO" data-name="SÃO PAULO" transform="translate(356.191 725.211) rotate(0.202)" fill="#426aa8" font-size="10" font-family="UrbanistRoman-ExtraBold, Urbanist" font-weight="800"><tspan x="0" y="0">SÃO PAULO</tspan></text>
      <g id="Group_1210" data-name="Group 1210" transform="translate(386.659 737.044)">
        <circle id="Ellipse_52" data-name="Ellipse 52" cx="8.251" cy="8.251" r="8.251" fill="#426aa8"/>
      </g>
      <g id="Group_1211" data-name="Group 1211" transform="translate(550.51 389.495)">
        <path id="Path_5971" data-name="Path 5971" d="M885.85,1220.255h2.066v-.688c.689,0,.323.279,2.088-.667v-.709h.689v-.688h1.377m.538,0h.71l.689.688h.689v-.688h.71v-.688h.775l.667-.71h2.088l.71-.688h1.357v-.667h2.087v-.71h3.423l.688-.688h.71l.689-.71h.689l.689-.688h.688v-.689h1.4l.689-.71h1.507l.688-.667h.71l.689-.71h.71l.688-.688h.689v-.688l.689-.71h1.378v.71a18.7,18.7,0,0,0,11.129,2.087v-.71H933.7v-.688c.3-.172.732.6,2.778-1.4h1.378v-.688h1.4l.688-.667h.689l.689-.71h.689l.689-.688h.71l1.4-1.4h1.357v-.753c.387.15,0,0,3.487-.688l.688-.667c.84-.452,1.636,1.118,4.844-1.4a9.273,9.273,0,0,0,4.865,1.4l.689-.709c2.584.343,7.341-1.054,13.175-.688l.71-.71m105.956,46.5v.688l.688.688v1.377h4.177l.688.71h.689l.71.688h.688l.667-.688c.194.172-.194-.237,1.4,1.4H1091v.688h2.067m-17.351-7.635h.71v.688l.688.71.71-.71h.689v.71h-.689v.689h-.71v.688h.71v.688h1.378v-.688h.689l.689-.688M891.92,1217.5h.689M674.885,1363.635h.689v-.7l5.554-5.549h.6a6.928,6.928,0,0,1,2.088-2.764h.689v-.7c.279-.181.753.593,2.777-1.394h.689v-.62a47.4,47.4,0,0,1,7.621-3.458v-.7h.71l.689-.7h.689l.71-.7h.689c1.679-1.886.194-.18,5.532-3.456a14.194,14.194,0,0,0,6.265-3.462c.3-.172.732.6,2.755-1.4h.689l.71-.688h.689l1.4-1.376h.775l2.088-2.087h.71l1.356-1.4h.711a22.069,22.069,0,0,1,4.844-3.463v-.688h.624c0-.537.559-.129,3.465-2.065h.689v-.709h1.4v-.688c1.012-.15.9.5,2.777-.688v-.688h.689l.689-.667H740l.71-.689c.84,0,.8,0,3.487-.71m1.443-.8h.667v-.688h.711c1.119-1.354,2.583-2.129,5.554-4.86h.667v-.689c3.4-.516,3.745-1.742,9.709-4.86h.711v-.667h.732l.71-.711c.28-.171.754.6,2.756-1.376.387,0,1.7,0,3.465-2.065h.71l.689-.71h.689l.71-.689h.624v-.71a68.541,68.541,0,0,0,11.775-6.237h1.4c.818-.774,0-.344,2.756-2.064h.71v-.689h1.442v-.709h.667l1.4-1.4h.689v-.667h.71l.689-.688h.689l.689-.71v-.688h.689v-.71h.688l.84-.688h.689v-.667h3.465l.689-.709h.71v-.688h.688v-.689h.667l.71-.71v-.688h.689v-1.376h.711v-1.4h.689v-1.376l1.378-1.377h.689l.71-.688h.689v-.71h.689v-.688h1.4v.688l.667-.688h.711L820,1272.84v-.689l.689-.688v-.71l.689-.689v-.753h.689c1.614-2.3,5.769-3.979,10.354-8.323h.688v-.688h.667a14.109,14.109,0,0,0,1.4-1.376h.689v-.688c1.722-1.786,4.628-2.065,9.02-6.947h.71l2.066-2.065h.689a32.009,32.009,0,0,1,4.865-4.151h.688v-.71h.71v-.688h.689l1.378-1.4h1.378l.71-.667H860v-.689h.689v-.709l.688-.688h.689v-.71h.71v-.688h1.4v-.688h.688l.667-.688h.71v-.688h.689l.689-.688h.71l.688-.71h1.378v-1.4h.689l.71-.667h.689v-1.4h.711v-.6l.667-.71h.689v-2.752h.71l.689-.71h.689v-2.087h.71l.689-.667v-.839l.667-.688v-1.4l.71-.688h5.554v.688l.883-.5m194.712,24.755-.711-.688.711-.689-.711-.709h-.667v-.689h-.689v-.667h.689v-.646h.667v-.709H1077.1v.709l-.689.689v.667h-.71v.71m99.929,32.519v-.688l-.71-.71h-.689l-2.777-2.065h-.688l-1.4-1.4h-.667l-.71-.689h-.516l-1.378-1.376c-.3-.172-.753.6-2.777-1.4h-1.4v-.451l-.689-.71c-.688,0-.344.3-2.066-.688v-.688h-.689v-.688h-1.4v-.689h-1.4v-.688H1155c.15-.215-1.765-1.033-4.155-3.463h-.71l-.689-.71H1141.7v.581c-2.26,1.958-6.308-1.807-11.108-1.4v-.688h-.711l-.689-.711h-4.865l-.667.711h-2.691l-.689-.711-.689.711H1117.5v-.711h-4.284l-.688-.688h-2.777l-.689-.667H1105.6l-.71-.71c-3.423.408-2.131-.71-8.31-.688l-.688-.71v-.688l-.754-.8h-.71l-.688-.667h-.689m-117.107-51.9c2.217.408,5.575-.689,9.708-.689v.689h1.378v.688h1.4l1.4,1.4v.667h1.356v.753l.71.71h.689v.688h1.4l.667.688v.71h.689a11.9,11.9,0,0,1,1.4,1.355l.71-.667v.667h.688v.71h.689a14.082,14.082,0,0,0,1.378,1.4h.689v.688l.711.689h.688l1.378,1.376h.689l1.4,1.4v.689h.689l.71.71v.688h.689c.323,1.14-.8.989.667,3.462h1.356v1.377h1.4l.689.688v1.4h6.931l1.4-1.4.689.688h.667v1.936h1.4v1.376l.689.689v.71l1.4,1.4a39.271,39.271,0,0,1,7.621.688l.71-.688h.689l.667-.71a24.506,24.506,0,0,1,6.954-.688v.688h2.777l.689-.688c.215.387,1.2-.753,3.465-.71l.689.71h2.8l.667.688h.71v2.065h.689v.71h2.8v.688h.667v1.4h.689v2.065h.71l.689.689h.689v.709h1.378v.689h.688v.71h.71l.689.688v.667h.71v.71l.689.688c0,.947-.215.151.688,2.8h.646v.667h.71v.689h4.155v.709h2.087l.711-.709h.667v.709h.689v-.709" transform="translate(-674.885 -1073.103)" fill="none" stroke="#15c7b2" stroke-linecap="round" stroke-linejoin="round" stroke-width="8"/>
        <path id="Path_5972" data-name="Path 5972" d="M1058.827,1154.462c16.726-.451-5.167-23.636,28.824-31.4,0-.624.344,1.677,4.349-2.581-2.325-8.624-5.77-15.678-16.748-37.788.129.688-6.114-1.957-1.851-4.344,3.186-4.86,1.443-2.022-3.1-16.109,1.679-1.29,10.872,2.087,12.916-2.581,19.806,2.99,22.173-7.333,46.5-15.485" transform="translate(-747.094 -1044.173)" fill="none" stroke="#15c7b2" stroke-linecap="round" stroke-linejoin="round" stroke-width="8"/>
      </g>
      <g id="Group_1214" data-name="Group 1214" transform="translate(940.995 544.22)">
        <path id="Path_5973" data-name="Path 5973" d="M1196.824,1247.333h-41v-12.595h41v29.589a10.806,10.806,0,0,1-.417,2.808,9.634,9.634,0,0,1-2.563,4.159,7.378,7.378,0,0,1-1.974,1.434,7.9,7.9,0,0,1-1.158.478,8.692,8.692,0,0,1-1.708.432,13.481,13.481,0,0,0-1.879.2c-.646.092-1.9.274-2.829.456a23.151,23.151,0,0,0-3.986,1.115,11.118,11.118,0,0,0-2.392,1.275,7.527,7.527,0,0,0-1.139.933,2.805,2.805,0,0,0-.456.455l-.19-.228a6.562,6.562,0,0,0-2.088-1.684,14.011,14.011,0,0,0-2.809-1.138,23.76,23.76,0,0,0-3-.728c-.873-.136-1.727-.3-2.619-.387a15.175,15.175,0,0,1-3.948-.706,9.435,9.435,0,0,1-4.2-3.53,9.1,9.1,0,0,1-1.651-5.349v-18.8" transform="translate(-1155.821 -1234.738)" fill="#41c5a9"/>
        <path id="Path_5974" data-name="Path 5974" d="M1196.824,1247.333h-41v-12.595h41v29.589a10.806,10.806,0,0,1-.417,2.808,9.634,9.634,0,0,1-2.563,4.159,7.378,7.378,0,0,1-1.974,1.434,7.9,7.9,0,0,1-1.158.478,8.692,8.692,0,0,1-1.708.432,13.481,13.481,0,0,0-1.879.2c-.646.092-1.9.274-2.829.456a23.151,23.151,0,0,0-3.986,1.115,11.118,11.118,0,0,0-2.392,1.275,7.527,7.527,0,0,0-1.139.933,2.805,2.805,0,0,0-.456.455l-.19-.228a6.562,6.562,0,0,0-2.088-1.684,14.011,14.011,0,0,0-2.809-1.138,23.76,23.76,0,0,0-3-.728c-.873-.136-1.727-.3-2.619-.387a15.175,15.175,0,0,1-3.948-.706,9.435,9.435,0,0,1-4.2-3.53,9.1,9.1,0,0,1-1.651-5.349v-18.8" transform="translate(-1155.821 -1234.738)" fill="none" stroke="#fff" stroke-width="1.163"/>
        <g id="Group_1212" data-name="Group 1212" transform="translate(5.496 22.348)">
          <path id="Path_5975" data-name="Path 5975" d="M1162.62,1272.005l-.03-9.628,3.507-.011a2.987,2.987,0,0,1,1.38.309,2.416,2.416,0,0,1,.98.89,2.681,2.681,0,0,1,.265,2.08,1.99,1.99,0,0,1-.314.644,1.28,1.28,0,0,1-.549.425,1.484,1.484,0,0,1,.73.4,2.074,2.074,0,0,1,.442.676,3.373,3.373,0,0,1,.219.789,5.216,5.216,0,0,1,.061.745,2.5,2.5,0,0,1-.374,1.364,2.755,2.755,0,0,1-1.011.952,2.865,2.865,0,0,1-1.406.354Zm1.659-5.906,1.638,0a1.278,1.278,0,0,0,.869-.32,1.058,1.058,0,0,0,.358-.839,1.008,1.008,0,0,0-.364-.841,1.354,1.354,0,0,0-.87-.282l-1.637,0Zm.015,4.463,2.049-.007a1.406,1.406,0,0,0,.742-.2,1.493,1.493,0,0,0,.528-.552,1.583,1.583,0,0,0,.2-.8,1.431,1.431,0,0,0-.2-.729,1.622,1.622,0,0,0-.531-.555,1.341,1.341,0,0,0-.744-.211l-2.049.006Z" transform="translate(-1162.59 -1262.282)" fill="#f1f1f1"/>
          <path id="Path_5976" data-name="Path 5976" d="M1172.961,1271.973l-.03-9.629,3.693-.011a2.634,2.634,0,0,1,1.418.388,2.868,2.868,0,0,1,1.007,1.045,2.9,2.9,0,0,1,.377,1.454,2.983,2.983,0,0,1-.234,1.2,2.833,2.833,0,0,1-.658.947,2.884,2.884,0,0,1-.971.608l2.316,3.974-1.933.006-2.239-3.823-1.08,0,.012,3.831Zm1.661-5.514,1.822-.006a1.234,1.234,0,0,0,.653-.181,1.358,1.358,0,0,0,.474-.483,1.373,1.373,0,0,0,0-1.354,1.346,1.346,0,0,0-.476-.48,1.228,1.228,0,0,0-.654-.177l-1.822.006Z" transform="translate(-1164.535 -1262.276)" fill="#f1f1f1"/>
          <path id="Path_5977" data-name="Path 5977" d="M1184.108,1271.939l-.024-7.95-1.21,0,.449-1.679,2.434-.008.03,9.629Z" transform="translate(-1166.405 -1262.271)" fill="#f1f1f1"/>
          <path id="Path_5978" data-name="Path 5978" d="M1189.7,1271.922l-.024-7.95-1.211,0,.449-1.68,2.434-.008.029,9.628Z" transform="translate(-1167.456 -1262.267)" fill="#f1f1f1"/>
          <path id="Path_5979" data-name="Path 5979" d="M1197.211,1272.076a3.23,3.23,0,0,1-1.693-.456,3.5,3.5,0,0,1-1.235-1.227,3.262,3.262,0,0,1-.467-1.7,3.385,3.385,0,0,1,.111-.895,3.622,3.622,0,0,1,.351-.833l2.682-4.691,1.946-.007-1.8,3.136a3.182,3.182,0,0,1,1.073.093,3.146,3.146,0,0,1,.958.43,3.336,3.336,0,0,1,.772.713,3.352,3.352,0,0,1,.44,3.347,3.493,3.493,0,0,1-.729,1.086,3.4,3.4,0,0,1-1.085.739A3.341,3.341,0,0,1,1197.211,1272.076Zm-.006-1.678a1.655,1.655,0,0,0,.893-.248,1.776,1.776,0,0,0,.615-.637,1.668,1.668,0,0,0,.22-.832,1.7,1.7,0,0,0-.229-.866,1.73,1.73,0,0,0-.618-.625,1.658,1.658,0,0,0-.877-.23,1.632,1.632,0,0,0-.891.245,1.768,1.768,0,0,0-.606.638,1.7,1.7,0,0,0-.218.847,1.616,1.616,0,0,0,.244.873,1.811,1.811,0,0,0,.632.611A1.627,1.627,0,0,0,1197.2,1270.4Z" transform="translate(-1168.463 -1262.263)" fill="#f1f1f1"/>
        </g>
        <g id="Group_1213" data-name="Group 1213" transform="translate(15.139 2.864)">
          <path id="Path_5980" data-name="Path 5980" d="M1174.491,1245.981l-.024-7.679,2.946-.009a2.1,2.1,0,0,1,1.131.309,2.3,2.3,0,0,1,.8.835,2.324,2.324,0,0,1,.3,1.159,2.389,2.389,0,0,1-.186.958,2.28,2.28,0,0,1-.525.756,2.312,2.312,0,0,1-.775.485l1.847,3.17-1.541,0-1.787-3.05-.861,0,.01,3.054Zm1.325-4.4,1.453,0a.994.994,0,0,0,.521-.144,1.1,1.1,0,0,0,.378-.386,1.037,1.037,0,0,0,.14-.537,1.056,1.056,0,0,0-.144-.543,1.1,1.1,0,0,0-.38-.382.981.981,0,0,0-.522-.141l-1.453,0Z" transform="translate(-1174.467 -1238.271)" fill="#f1f1f1"/>
          <path id="Path_5981" data-name="Path 5981" d="M1183.243,1246.1a2.462,2.462,0,0,1-.826-.141,2.3,2.3,0,0,1-.734-.421l.853-1.033a1.393,1.393,0,0,0,.3.177.982.982,0,0,0,.406.078,1.012,1.012,0,0,0,.548-.157,1.224,1.224,0,0,0,.4-.413,1.076,1.076,0,0,0,.149-.557l-.017-5.359,1.339,0,.016,5.359a2.381,2.381,0,0,1-.325,1.233,2.546,2.546,0,0,1-.881.9A2.314,2.314,0,0,1,1183.243,1246.1Z" transform="translate(-1175.824 -1238.266)" fill="#f1f1f1"/>
        </g>
      </g>
      <g id="Group_1217" data-name="Group 1217" transform="translate(917.985 374.501)">
        <path id="Path_5982" data-name="Path 5982" d="M1168.484,1038.3h-41v-12.594h41V1055.3a10.81,10.81,0,0,1-.417,2.808,9.634,9.634,0,0,1-2.563,4.16,7.371,7.371,0,0,1-1.974,1.434,7.818,7.818,0,0,1-1.158.478,8.678,8.678,0,0,1-1.709.432,13.359,13.359,0,0,0-1.879.206c-.646.091-1.9.273-2.829.455a23.145,23.145,0,0,0-3.986,1.115,11.085,11.085,0,0,0-2.392,1.275,7.634,7.634,0,0,0-1.139.933,2.806,2.806,0,0,0-.456.455l-.19-.228a6.578,6.578,0,0,0-2.088-1.684,14.094,14.094,0,0,0-2.809-1.138,24.027,24.027,0,0,0-3-.728c-.873-.136-1.727-.3-2.619-.387a15.18,15.18,0,0,1-3.948-.705,9.43,9.43,0,0,1-4.2-3.53,9.1,9.1,0,0,1-1.651-5.349v-18.8" transform="translate(-1127.481 -1025.706)" fill="#41c5a9"/>
        <path id="Path_5983" data-name="Path 5983" d="M1168.484,1038.3h-41v-12.594h41V1055.3a10.81,10.81,0,0,1-.417,2.808,9.634,9.634,0,0,1-2.563,4.16,7.371,7.371,0,0,1-1.974,1.434,7.818,7.818,0,0,1-1.158.478,8.678,8.678,0,0,1-1.709.432,13.359,13.359,0,0,0-1.879.206c-.646.091-1.9.273-2.829.455a23.145,23.145,0,0,0-3.986,1.115,11.085,11.085,0,0,0-2.392,1.275,7.634,7.634,0,0,0-1.139.933,2.806,2.806,0,0,0-.456.455l-.19-.228a6.578,6.578,0,0,0-2.088-1.684,14.094,14.094,0,0,0-2.809-1.138,24.027,24.027,0,0,0-3-.728c-.873-.136-1.727-.3-2.619-.387a15.18,15.18,0,0,1-3.948-.705,9.43,9.43,0,0,1-4.2-3.53,9.1,9.1,0,0,1-1.651-5.349v-18.8" transform="translate(-1127.481 -1025.706)" fill="none" stroke="#fff" stroke-width="1.163"/>
        <g id="Group_1215" data-name="Group 1215" transform="translate(11.677 2.598)">
          <path id="Path_5984" data-name="Path 5984" d="M1141.863,1036.694l1.52-7.679,1.108,0,1.855,4.931,1.889-4.917,1.108,0,1.466,7.689-1.367,0-.905-4.757-1.746,4.571-.917,0-1.712-4.583-.933,4.75Z" transform="translate(-1141.863 -1028.927)" fill="#f1f1f1"/>
          <path id="Path_5985" data-name="Path 5985" d="M1157.905,1036.865a3.56,3.56,0,0,1-1.489-.318,3.708,3.708,0,0,1-1.2-.868,4.122,4.122,0,0,1-1.078-2.823,4,4,0,0,1,.317-1.591,3.91,3.91,0,0,1,2.077-2.073,3.585,3.585,0,0,1,3.035.107,3.845,3.845,0,0,1,1.375,1.2l-1.2.638a2.4,2.4,0,0,0-.841-.676,2.252,2.252,0,0,0-1.893-.032,2.468,2.468,0,0,0-.787.555,2.661,2.661,0,0,0-.544.844,2.793,2.793,0,0,0-.2,1.061,2.725,2.725,0,0,0,.188,1.024,2.624,2.624,0,0,0,.527.842,2.473,2.473,0,0,0,.781.565,2.273,2.273,0,0,0,.953.207,2.129,2.129,0,0,0,.668-.1,2.33,2.33,0,0,0,.615-.308,2.447,2.447,0,0,0,.517-.491,2.832,2.832,0,0,0,.385-.659l-1.4,0,0-1.17,2.976.011a4.051,4.051,0,0,1-1.081,2.873,3.8,3.8,0,0,1-1.216.879A3.513,3.513,0,0,1,1157.905,1036.865Z" transform="translate(-1144.172 -1028.906)" fill="#f1f1f1"/>
        </g>
        <g id="Group_1216" data-name="Group 1216" transform="translate(4.577 21.08)">
          <path id="Path_5986" data-name="Path 5986" d="M1133.118,1059.831l.028-8.05,2.933.011a2.507,2.507,0,0,1,1.151.265,2.02,2.02,0,0,1,.813.75,2.227,2.227,0,0,1,.209,1.74,1.648,1.648,0,0,1-.266.536,1.061,1.061,0,0,1-.461.352,1.244,1.244,0,0,1,.608.336,1.755,1.755,0,0,1,.365.568,2.872,2.872,0,0,1,.18.662,4.339,4.339,0,0,1,.046.624,2.1,2.1,0,0,1-.319,1.137,2.306,2.306,0,0,1-.852.791,2.4,2.4,0,0,1-1.176.289Zm1.407-1.2,1.714.006a1.171,1.171,0,0,0,.621-.165,1.235,1.235,0,0,0,.444-.458,1.327,1.327,0,0,0,.169-.667,1.2,1.2,0,0,0-.164-.61,1.367,1.367,0,0,0-.441-.467,1.119,1.119,0,0,0-.62-.179l-1.713-.006Zm.014-3.731,1.369,0a1.061,1.061,0,0,0,.728-.263.882.882,0,0,0,.3-.7.846.846,0,0,0-.3-.706,1.145,1.145,0,0,0-.727-.241l-1.368,0Z" transform="translate(-1133.118 -1051.69)" fill="#f1f1f1"/>
          <path id="Path_5987" data-name="Path 5987" d="M1141.764,1059.861l.029-8.049,3.087.011a2.2,2.2,0,0,1,1.183.331,2.429,2.429,0,0,1,1.143,2.1,2.484,2.484,0,0,1-.2,1,2.386,2.386,0,0,1-1.37,1.292l1.914,3.337-1.616-.006-1.851-3.21-.9,0-.011,3.2Zm1.419-4.6,1.523.006a1.027,1.027,0,0,0,.547-.147,1.155,1.155,0,0,0,.4-.4,1.076,1.076,0,0,0,.151-.562,1.1,1.1,0,0,0-.148-.57,1.133,1.133,0,0,0-.395-.4,1.037,1.037,0,0,0-.546-.152l-1.524-.006Z" transform="translate(-1134.744 -1051.696)" fill="#f1f1f1"/>
          <path id="Path_5988" data-name="Path 5988" d="M1150.071,1059.859l0-1.254q.375-.281.889-.7t1.055-.9c.361-.324.7-.647,1-.973a6.945,6.945,0,0,0,.754-.928,1.468,1.468,0,0,0,.292-.758,1.23,1.23,0,0,0-.17-.641,1.316,1.316,0,0,0-.456-.464,1.193,1.193,0,0,0-.634-.176,1.226,1.226,0,0,0-.639.171,1.312,1.312,0,0,0-.461.462,1.225,1.225,0,0,0-.175.64l-1.4,0a2.6,2.6,0,0,1,.373-1.364,2.736,2.736,0,0,1,.978-.957,2.6,2.6,0,0,1,1.332-.348,2.569,2.569,0,0,1,1.339.364,2.739,2.739,0,0,1,.962.972,2.591,2.591,0,0,1,.357,1.353,2.3,2.3,0,0,1-.146.787,3.972,3.972,0,0,1-.405.8,7.706,7.706,0,0,1-.612.811q-.353.41-.776.837t-.892.874l2.858.01,0,1.4Z" transform="translate(-1136.306 -1051.669)" fill="#f1f1f1"/>
          <path id="Path_5989" data-name="Path 5989" d="M1160.783,1060.081a2.7,2.7,0,0,1-1.412-.39,2.96,2.96,0,0,1-1.027-1.034,2.731,2.731,0,0,1-.378-1.428,2.805,2.805,0,0,1,.1-.746,2.961,2.961,0,0,1,.3-.7l2.268-3.907,1.628,0-1.522,2.611a2.66,2.66,0,0,1,.9.084,2.626,2.626,0,0,1,.8.365,2.809,2.809,0,0,1,.641.6,2.8,2.8,0,0,1,.349,2.8,2.935,2.935,0,0,1-.615.9,2.841,2.841,0,0,1-.912.612A2.8,2.8,0,0,1,1160.783,1060.081Zm0-1.4a1.387,1.387,0,0,0,.749-.2,1.488,1.488,0,0,0,.517-.53,1.387,1.387,0,0,0,.189-.7,1.429,1.429,0,0,0-.187-.724,1.453,1.453,0,0,0-.513-.525,1.4,1.4,0,0,0-.732-.2,1.366,1.366,0,0,0-.745.2,1.464,1.464,0,0,0-.511.529,1.417,1.417,0,0,0-.187.706,1.345,1.345,0,0,0,.2.731,1.517,1.517,0,0,0,.524.513A1.358,1.358,0,0,0,1160.788,1058.677Z" transform="translate(-1137.791 -1051.709)" fill="#f1f1f1"/>
          <path id="Path_5990" data-name="Path 5990" d="M1166.066,1059.947l3.858-6.633-4.238-.015.006-1.4,5.865.021-.006,1.4-3.871,6.634Z" transform="translate(-1139.243 -1051.712)" fill="#f1f1f1"/>
        </g>
      </g>
      <g id="Group_1220" data-name="Group 1220" transform="translate(977.149 285.954)">
        <path id="Path_5991" data-name="Path 5991" d="M1241.353,929.243h-41V916.649h41v29.589a10.789,10.789,0,0,1-.417,2.807,9.633,9.633,0,0,1-2.562,4.159,7.375,7.375,0,0,1-1.975,1.434,7.794,7.794,0,0,1-1.158.478,8.679,8.679,0,0,1-1.708.432,13.521,13.521,0,0,0-1.88.205c-.646.091-1.9.273-2.828.455a23.151,23.151,0,0,0-3.986,1.116,11.119,11.119,0,0,0-2.392,1.275,7.685,7.685,0,0,0-1.139.933,2.81,2.81,0,0,0-.455.456l-.19-.227a6.57,6.57,0,0,0-2.087-1.685,14.089,14.089,0,0,0-2.809-1.138,24.057,24.057,0,0,0-3-.728c-.874-.136-1.728-.3-2.62-.386a15.192,15.192,0,0,1-3.948-.706,9.433,9.433,0,0,1-4.2-3.53,9.1,9.1,0,0,1-1.652-5.348v-18.8" transform="translate(-1200.35 -916.649)" fill="#41c5a9"/>
        <path id="Path_5992" data-name="Path 5992" d="M1241.353,929.243h-41V916.649h41v29.589a10.789,10.789,0,0,1-.417,2.807,9.633,9.633,0,0,1-2.562,4.159,7.375,7.375,0,0,1-1.975,1.434,7.794,7.794,0,0,1-1.158.478,8.679,8.679,0,0,1-1.708.432,13.521,13.521,0,0,0-1.88.205c-.646.091-1.9.273-2.828.455a23.151,23.151,0,0,0-3.986,1.116,11.119,11.119,0,0,0-2.392,1.275,7.685,7.685,0,0,0-1.139.933,2.81,2.81,0,0,0-.455.456l-.19-.227a6.57,6.57,0,0,0-2.087-1.685,14.089,14.089,0,0,0-2.809-1.138,24.057,24.057,0,0,0-3-.728c-.874-.136-1.728-.3-2.62-.386a15.192,15.192,0,0,1-3.948-.706,9.433,9.433,0,0,1-4.2-3.53,9.1,9.1,0,0,1-1.652-5.348v-18.8" transform="translate(-1200.35 -916.649)" fill="none" stroke="#fff" stroke-width="1.163"/>
        <g id="Group_1218" data-name="Group 1218" transform="translate(11.677 2.597)">
          <path id="Path_5993" data-name="Path 5993" d="M1214.732,927.636l1.52-7.679,1.109,0,1.854,4.931,1.889-4.917,1.108,0,1.466,7.69-1.366,0-.905-4.757-1.746,4.571-.917,0-1.713-4.583-.933,4.75Z" transform="translate(-1214.732 -919.869)" fill="#f1f1f1"/>
          <path id="Path_5994" data-name="Path 5994" d="M1230.775,927.807a3.562,3.562,0,0,1-1.489-.318,3.718,3.718,0,0,1-1.2-.868,4.114,4.114,0,0,1-1.077-2.823,4,4,0,0,1,.316-1.591,3.932,3.932,0,0,1,.852-1.254,3.879,3.879,0,0,1,1.225-.819,3.585,3.585,0,0,1,3.035.107,3.849,3.849,0,0,1,1.376,1.2l-1.2.638a2.412,2.412,0,0,0-.84-.675,2.25,2.25,0,0,0-1.893-.032,2.459,2.459,0,0,0-.788.555,2.659,2.659,0,0,0-.544.844,2.789,2.789,0,0,0-.2,1.061,2.723,2.723,0,0,0,.188,1.024,2.653,2.653,0,0,0,.527.842,2.468,2.468,0,0,0,.781.565,2.274,2.274,0,0,0,.954.207,2.13,2.13,0,0,0,.667-.1,2.342,2.342,0,0,0,.616-.308,2.469,2.469,0,0,0,.516-.492,2.842,2.842,0,0,0,.385-.658l-1.4,0,0-1.17,2.976.011a4,4,0,0,1-.27,1.574,4.063,4.063,0,0,1-.811,1.3,3.785,3.785,0,0,1-1.216.879A3.511,3.511,0,0,1,1230.775,927.807Z" transform="translate(-1217.042 -919.848)" fill="#f1f1f1"/>
        </g>
        <g id="Group_1219" data-name="Group 1219" transform="translate(4.073 21.08)">
          <path id="Path_5995" data-name="Path 5995" d="M1205.367,950.773l.028-8.049,2.933.011a2.5,2.5,0,0,1,1.152.266,2.026,2.026,0,0,1,.813.75,2.13,2.13,0,0,1,.3,1.148,2.1,2.1,0,0,1-.089.592,1.651,1.651,0,0,1-.266.536,1.058,1.058,0,0,1-.46.352,1.237,1.237,0,0,1,.607.336,1.733,1.733,0,0,1,.366.568,2.833,2.833,0,0,1,.18.662,4.375,4.375,0,0,1,.046.624,2.084,2.084,0,0,1-.319,1.137,2.3,2.3,0,0,1-.851.791,2.39,2.39,0,0,1-1.177.289Zm1.409-1.2,1.713.006a1.171,1.171,0,0,0,.621-.165,1.228,1.228,0,0,0,.443-.458,1.323,1.323,0,0,0,.169-.667,1.2,1.2,0,0,0-.164-.611,1.359,1.359,0,0,0-.441-.467,1.122,1.122,0,0,0-.62-.179l-1.714-.007Zm.012-3.732,1.369,0a1.064,1.064,0,0,0,.727-.263.885.885,0,0,0,.305-.7.847.847,0,0,0-.3-.706,1.142,1.142,0,0,0-.727-.241l-1.368,0Z" transform="translate(-1205.367 -942.633)" fill="#f1f1f1"/>
          <path id="Path_5996" data-name="Path 5996" d="M1214.014,950.8l.028-8.049,3.088.011a2.2,2.2,0,0,1,1.184.331,2.427,2.427,0,0,1,1.141,2.1,2.487,2.487,0,0,1-.2,1,2.391,2.391,0,0,1-1.37,1.291l1.914,3.337-1.617-.006-1.85-3.21-.9,0-.012,3.2Zm1.419-4.6,1.524.006a1.023,1.023,0,0,0,.546-.147,1.12,1.12,0,0,0,.4-.4,1.074,1.074,0,0,0,.152-.562,1.088,1.088,0,0,0-.148-.57,1.144,1.144,0,0,0-.4-.4,1.04,1.04,0,0,0-.546-.152l-1.524,0Z" transform="translate(-1206.993 -942.639)" fill="#f1f1f1"/>
          <path id="Path_5997" data-name="Path 5997" d="M1225.315,950.961a2.56,2.56,0,0,1-1.275-.329,3.118,3.118,0,0,1-.989-.9,4.333,4.333,0,0,1-.636-1.333,5.649,5.649,0,0,1-.219-1.619,5.706,5.706,0,0,1,.23-1.618,4.4,4.4,0,0,1,.646-1.328,3.122,3.122,0,0,1,1-.9,2.668,2.668,0,0,1,2.553.009,3.054,3.054,0,0,1,.983.9,4.5,4.5,0,0,1,.634,1.333,5.895,5.895,0,0,1-.011,3.237,4.462,4.462,0,0,1-.643,1.329,3.042,3.042,0,0,1-.99.9A2.546,2.546,0,0,1,1225.315,950.961Zm.005-1.4a1.4,1.4,0,0,0,1.02-.386,2.371,2.371,0,0,0,.6-1.021,4.58,4.58,0,0,0,.2-1.357,4.428,4.428,0,0,0-.2-1.395,2.341,2.341,0,0,0-.606-1.005,1.41,1.41,0,0,0-.994-.378,1.427,1.427,0,0,0-.809.226,1.812,1.812,0,0,0-.568.615,3.114,3.114,0,0,0-.336.888,4.774,4.774,0,0,0-.114,1.038,4.5,4.5,0,0,0,.194,1.354,2.38,2.38,0,0,0,.6,1.029A1.4,1.4,0,0,0,1225.32,949.557Z" transform="translate(-1208.532 -942.612)" fill="#f1f1f1"/>
          <path id="Path_5998" data-name="Path 5998" d="M1234.31,950.878l.007-1.95-3.426-.011,0-1.41,3.116-4.68,1.731,0-.016,4.7.678,0,0,1.4-.678,0-.007,1.949Zm-1.788-3.365,1.8.012.005-2.783Z" transform="translate(-1210.167 -942.653)" fill="#f1f1f1"/>
          <path id="Path_5999" data-name="Path 5999" d="M1241.653,951.019a2.553,2.553,0,0,1-1.275-.33,3.1,3.1,0,0,1-.989-.9,4.335,4.335,0,0,1-.636-1.334,5.947,5.947,0,0,1,.01-3.237,4.394,4.394,0,0,1,.646-1.328,3.125,3.125,0,0,1,1-.9,2.662,2.662,0,0,1,2.553.009,3.038,3.038,0,0,1,.983.9,4.49,4.49,0,0,1,.634,1.333,5.895,5.895,0,0,1-.011,3.237,4.483,4.483,0,0,1-.643,1.329,3.061,3.061,0,0,1-.99.9A2.546,2.546,0,0,1,1241.653,951.019Zm0-1.4a1.4,1.4,0,0,0,1.02-.387,2.373,2.373,0,0,0,.6-1.021,4.583,4.583,0,0,0,.2-1.357,4.438,4.438,0,0,0-.2-1.4,2.333,2.333,0,0,0-.606-1,1.409,1.409,0,0,0-.994-.378,1.433,1.433,0,0,0-.809.225,1.817,1.817,0,0,0-.568.615,3.11,3.11,0,0,0-.336.888,4.78,4.78,0,0,0-.114,1.037,4.524,4.524,0,0,0,.193,1.355,2.392,2.392,0,0,0,.6,1.029A1.4,1.4,0,0,0,1241.658,949.615Z" transform="translate(-1211.605 -942.623)" fill="#f1f1f1"/>
        </g>
      </g>
    </g>
  </g>
</svg>
